<svg width="16" height="17" viewBox="0 0 16 17" fill="none" xmlns="http://www.w3.org/2000/svg">
<path d="M9 7.18359H13.375C13.4019 7.18359 13.4278 7.19429 13.4468 7.21334C13.4659 7.23239 13.4766 7.25822 13.4766 7.28516V13.1602C13.4766 13.6844 13.2683 14.1871 12.8976 14.5578C12.527 14.9285 12.0242 15.1367 11.5 15.1367H4.5C3.97578 15.1367 3.47304 14.9285 3.10236 14.5578C2.73168 14.1871 2.52344 13.6844 2.52344 13.1602V3.16016C2.52344 2.63594 2.73168 2.13319 3.10236 1.76252C3.47304 1.39184 3.97578 1.18359 4.5 1.18359H7.375C7.40194 1.18359 7.42777 1.19429 7.44682 1.21334C7.46586 1.23239 7.47656 1.25822 7.47656 1.28516V5.66016C7.47656 6.0642 7.63707 6.45169 7.92277 6.73739C8.20847 7.02309 8.59596 7.18359 9 7.18359ZM5.5 12.1836H10.5C10.6388 12.1836 10.772 12.1284 10.8701 12.0303C10.9683 11.9321 11.0234 11.799 11.0234 11.6602C11.0234 11.5213 10.9683 11.3882 10.8701 11.29C10.772 11.1919 10.6388 11.1367 10.5 11.1367H5.5C5.36118 11.1367 5.22804 11.1919 5.12987 11.29C5.03171 11.3882 4.97656 11.5213 4.97656 11.6602C4.97656 11.799 5.03171 11.9321 5.12987 12.0303C5.22804 12.1284 5.36118 12.1836 5.5 12.1836ZM5.5 9.68359H10.5C10.6388 9.68359 10.772 9.62845 10.8701 9.53028C10.9683 9.43212 11.0234 9.29898 11.0234 9.16016C11.0234 9.02133 10.9683 8.88819 10.8701 8.79003C10.772 8.69187 10.6388 8.63672 10.5 8.63672H5.5C5.36118 8.63672 5.22804 8.69187 5.12987 8.79003C5.03171 8.88819 4.97656 9.02133 4.97656 9.16016C4.97656 9.29898 5.03171 9.43212 5.12987 9.53028C5.22804 9.62845 5.36118 9.68359 5.5 9.68359Z" fill="#232321" stroke="#232321" stroke-width="0.046875"/>
<path d="M8.59004 1.57581L13.084 6.06978L8.59004 1.57581ZM8.59004 1.57581C8.59003 1.57581 8.59002 1.5758 8.59002 1.57579M8.59004 1.57581L8.59002 1.57579M8.59002 1.57579C8.58456 1.57037 8.57762 1.56669 8.57008 1.56519C8.56252 1.5637 8.55469 1.56447 8.54757 1.56742C8.54046 1.57036 8.53437 1.57534 8.53007 1.58174C8.52579 1.58812 8.52348 1.59562 8.52344 1.60331V5.65982C8.52344 5.78621 8.57365 5.90742 8.66302 5.9968C8.75239 6.08617 8.87361 6.13638 9 6.13638H13.0565C13.0642 6.13635 13.0717 6.13404 13.0781 6.12974C13.0845 6.12545 13.0895 6.11936 13.0924 6.11224C13.0953 6.10512 13.0961 6.0973 13.0946 6.08974C13.0931 6.08221 13.0895 6.07528 13.0841 6.06983L8.59002 1.57579Z" fill="#232321" stroke="#232321" stroke-width="0.046875"/>
</svg>
