<svg width="18" height="18" viewBox="0 0 18 18" fill="none" xmlns="http://www.w3.org/2000/svg">
<path d="M0 9.16762C0 9.42628 0.105357 9.67434 0.292893 9.85723C0.48043 10.0401 0.734784 10.1429 1 10.1429H7C7.26522 10.1429 7.51957 10.0401 7.70711 9.85723C7.89464 9.67434 8 9.42628 8 9.16762V1.36555C8 1.10689 7.89464 0.858833 7.70711 0.675936C7.51957 0.493039 7.26522 0.390289 7 0.390289H1C0.734784 0.390289 0.48043 0.493039 0.292893 0.675936C0.105357 0.858833 0 1.10689 0 1.36555V9.16762ZM0 16.9697C0 17.2284 0.105357 17.4764 0.292893 17.6593C0.48043 17.8422 0.734784 17.945 1 17.945H7C7.26522 17.945 7.51957 17.8422 7.70711 17.6593C7.89464 17.4764 8 17.2284 8 16.9697V13.0687C8 12.81 7.89464 12.5619 7.70711 12.379C7.51957 12.1962 7.26522 12.0934 7 12.0934H1C0.734784 12.0934 0.48043 12.1962 0.292893 12.379C0.105357 12.5619 0 12.81 0 13.0687V16.9697ZM10 16.9697C10 17.2284 10.1054 17.4764 10.2929 17.6593C10.4804 17.8422 10.7348 17.945 11 17.945H17C17.2652 17.945 17.5196 17.8422 17.7071 17.6593C17.8946 17.4764 18 17.2284 18 16.9697V9.16762C18 8.90897 17.8946 8.66091 17.7071 8.47801C17.5196 8.29511 17.2652 8.19236 17 8.19236H11C10.7348 8.19236 10.4804 8.29511 10.2929 8.47801C10.1054 8.66091 10 8.90897 10 9.16762V16.9697ZM11 0.390289C10.7348 0.390289 10.4804 0.493039 10.2929 0.675936C10.1054 0.858833 10 1.10689 10 1.36555V5.26659C10 5.52524 10.1054 5.7733 10.2929 5.9562C10.4804 6.13909 10.7348 6.24184 11 6.24184H17C17.2652 6.24184 17.5196 6.13909 17.7071 5.9562C17.8946 5.7733 18 5.52524 18 5.26659V1.36555C18 1.10689 17.8946 0.858833 17.7071 0.675936C17.5196 0.493039 17.2652 0.390289 17 0.390289H11Z" fill="white"/>
</svg>
