<svg width="18" height="14" viewBox="0 0 18 14" fill="none" xmlns="http://www.w3.org/2000/svg">
<path d="M14.175 8.90584H4.5C3.25 8.90584 2.18767 8.47933 1.313 7.6263C0.438334 6.77328 0.000667427 5.7369 7.60456e-07 4.51718C-0.000665906 3.29745 0.437001 2.2614 1.313 1.40903C2.189 0.556649 3.25133 0.12981 4.5 0.12851C4.78333 0.12851 5.021 0.222135 5.213 0.409384C5.405 0.596634 5.50067 0.828096 5.5 1.10377C5.49933 1.37944 5.40333 1.61123 5.212 1.79913C5.02067 1.98703 4.78333 2.08033 4.5 2.07903C3.8 2.07903 3.20833 2.31472 2.725 2.78609C2.24167 3.25747 2 3.8345 2 4.51718C2 5.19986 2.24167 5.77689 2.725 6.24826C3.20833 6.71964 3.8 6.95533 4.5 6.95533H14.175L11.3 4.12707C11.1167 3.94828 11.0207 3.72494 11.012 3.45707C11.0033 3.1892 11.0993 2.95741 11.3 2.76171C11.4833 2.58291 11.7167 2.49351 12 2.49351C12.2833 2.49351 12.5167 2.58291 12.7 2.76171L17.3 7.2479C17.5 7.44296 17.6 7.67052 17.6 7.93058C17.6 8.19065 17.5 8.41821 17.3 8.61327L12.7 13.0995C12.5 13.2945 12.2667 13.3881 12 13.3803C11.7333 13.3725 11.5 13.2708 11.3 13.0751C11.1167 12.88 11.0207 12.6525 11.012 12.3924C11.0033 12.1323 11.0993 11.9048 11.3 11.7097L14.175 8.90584Z" fill="white"/>
</svg>
