<svg width="432" height="338" viewBox="0 0 432 338" fill="none" xmlns="http://www.w3.org/2000/svg">
<path d="M344.394 128C344.394 188.402 286.726 237.5 215.411 237.5C144.097 237.5 86.4291 188.402 86.4291 128C86.4291 67.5982 144.097 18.5 215.411 18.5C286.726 18.5 344.394 67.5982 344.394 128Z" fill="#FFC300" stroke="#8B8B8B"/>
<mask id="path-2-inside-1_160_1611" fill="white">
<path d="M344.894 128C344.894 150.648 336.665 172.744 321.331 191.27C305.998 209.796 284.306 223.85 259.219 231.513L215.411 128H344.894Z"/>
</mask>
<path d="M344.894 128C344.894 150.648 336.665 172.744 321.331 191.27C305.998 209.796 284.306 223.85 259.219 231.513L215.411 128H344.894Z" fill="#CFCFCF" stroke="#848484" stroke-width="2" mask="url(#path-2-inside-1_160_1611)"/>
<rect x="34.1362" y="292" width="30.6049" height="20" rx="1" fill="#CFCFCF"/>
<rect x="34.1362" y="255" width="30.6049" height="20" rx="1" fill="#FFC300"/>
<g filter="url(#filter0_i_160_1611)">
<rect width="432" height="338" rx="10" fill="#D9D9D9" fill-opacity="0.14"/>
</g>
<path d="M93.733 299H92.8523C92.8002 298.747 92.709 298.524 92.5788 298.332C92.451 298.141 92.2947 297.98 92.1101 297.849C91.9278 297.717 91.7254 297.617 91.5028 297.551C91.2803 297.485 91.0483 297.452 90.8068 297.452C90.3665 297.452 89.9676 297.563 89.6101 297.786C89.255 298.008 88.9721 298.336 88.7614 298.769C88.553 299.202 88.4489 299.734 88.4489 300.364C88.4489 300.993 88.553 301.525 88.7614 301.958C88.9721 302.391 89.255 302.719 89.6101 302.942C89.9676 303.164 90.3665 303.276 90.8068 303.276C91.0483 303.276 91.2803 303.242 91.5028 303.176C91.7254 303.11 91.9278 303.012 92.1101 302.881C92.2947 302.749 92.451 302.587 92.5788 302.395C92.709 302.201 92.8002 301.978 92.8523 301.727H93.733C93.6667 302.099 93.5459 302.432 93.3707 302.725C93.1955 303.019 92.9777 303.268 92.7173 303.474C92.4569 303.678 92.1645 303.833 91.8402 303.94C91.5182 304.046 91.1738 304.099 90.8068 304.099C90.1866 304.099 89.6349 303.948 89.152 303.645C88.669 303.342 88.2891 302.911 88.0121 302.352C87.7351 301.794 87.5966 301.131 87.5966 300.364C87.5966 299.597 87.7351 298.934 88.0121 298.375C88.2891 297.816 88.669 297.385 89.152 297.082C89.6349 296.779 90.1866 296.628 90.8068 296.628C91.1738 296.628 91.5182 296.681 91.8402 296.788C92.1645 296.894 92.4569 297.05 92.7173 297.256C92.9777 297.46 93.1955 297.709 93.3707 298.002C93.5459 298.293 93.6667 298.626 93.733 299ZM97.2583 304.114C96.7659 304.114 96.3339 303.996 95.9622 303.762C95.5929 303.528 95.304 303.2 95.0957 302.778C94.8897 302.357 94.7868 301.865 94.7868 301.301C94.7868 300.733 94.8897 300.237 95.0957 299.813C95.304 299.389 95.5929 299.06 95.9622 298.826C96.3339 298.592 96.7659 298.474 97.2583 298.474C97.7508 298.474 98.1816 298.592 98.551 298.826C98.9226 299.06 99.2115 299.389 99.4174 299.813C99.6258 300.237 99.7299 300.733 99.7299 301.301C99.7299 301.865 99.6258 302.357 99.4174 302.778C99.2115 303.2 98.9226 303.528 98.551 303.762C98.1816 303.996 97.7508 304.114 97.2583 304.114ZM97.2583 303.361C97.6324 303.361 97.9402 303.265 98.1816 303.073C98.4231 302.881 98.6019 302.629 98.7179 302.317C98.8339 302.004 98.8919 301.666 98.8919 301.301C98.8919 300.937 98.8339 300.597 98.7179 300.282C98.6019 299.967 98.4231 299.713 98.1816 299.518C97.9402 299.324 97.6324 299.227 97.2583 299.227C96.8843 299.227 96.5765 299.324 96.335 299.518C96.0936 299.713 95.9148 299.967 95.7988 300.282C95.6828 300.597 95.6248 300.937 95.6248 301.301C95.6248 301.666 95.6828 302.004 95.7988 302.317C95.9148 302.629 96.0936 302.881 96.335 303.073C96.5765 303.265 96.8843 303.361 97.2583 303.361ZM101.009 304V298.545H101.819V299.398H101.89C102.004 299.107 102.187 298.88 102.44 298.719C102.694 298.556 102.998 298.474 103.353 298.474C103.713 298.474 104.012 298.556 104.251 298.719C104.493 298.88 104.681 299.107 104.816 299.398H104.873C105.013 299.116 105.222 298.892 105.501 298.727C105.781 298.558 106.116 298.474 106.506 298.474C106.994 298.474 107.393 298.627 107.703 298.933C108.013 299.236 108.168 299.708 108.168 300.349V304H107.33V300.349C107.33 299.947 107.22 299.659 107 299.487C106.78 299.314 106.521 299.227 106.222 299.227C105.839 299.227 105.542 299.343 105.331 299.575C105.12 299.805 105.015 300.096 105.015 300.449V304H104.163V300.264C104.163 299.954 104.062 299.704 103.861 299.515C103.66 299.323 103.4 299.227 103.083 299.227C102.865 299.227 102.662 299.285 102.472 299.401C102.285 299.517 102.134 299.678 102.018 299.884C101.904 300.088 101.847 300.323 101.847 300.591V304H101.009ZM109.701 304V298.545H110.51V299.398H110.581C110.695 299.107 110.878 298.88 111.132 298.719C111.385 298.556 111.689 298.474 112.044 298.474C112.404 298.474 112.704 298.556 112.943 298.719C113.184 298.88 113.373 299.107 113.507 299.398H113.564C113.704 299.116 113.913 298.892 114.193 298.727C114.472 298.558 114.807 298.474 115.198 298.474C115.685 298.474 116.084 298.627 116.395 298.933C116.705 299.236 116.86 299.708 116.86 300.349V304H116.022V300.349C116.022 299.947 115.912 299.659 115.691 299.487C115.471 299.314 115.212 299.227 114.914 299.227C114.53 299.227 114.233 299.343 114.022 299.575C113.812 299.805 113.706 300.096 113.706 300.449V304H112.854V300.264C112.854 299.954 112.753 299.704 112.552 299.515C112.351 299.323 112.092 299.227 111.775 299.227C111.557 299.227 111.353 299.285 111.164 299.401C110.977 299.517 110.825 299.678 110.709 299.884C110.596 300.088 110.539 300.323 110.539 300.591V304H109.701ZM119.997 304.128C119.652 304.128 119.338 304.063 119.056 303.933C118.774 303.8 118.551 303.609 118.385 303.361C118.219 303.11 118.136 302.807 118.136 302.452C118.136 302.139 118.198 301.886 118.321 301.692C118.444 301.495 118.609 301.341 118.815 301.23C119.021 301.119 119.248 301.036 119.496 300.982C119.747 300.925 120 300.88 120.253 300.847C120.584 300.804 120.853 300.772 121.059 300.751C121.267 300.727 121.419 300.688 121.513 300.634C121.611 300.579 121.659 300.484 121.659 300.349V300.321C121.659 299.971 121.563 299.698 121.371 299.504C121.182 299.31 120.894 299.213 120.509 299.213C120.108 299.213 119.795 299.301 119.567 299.476C119.34 299.651 119.18 299.838 119.088 300.037L118.293 299.753C118.435 299.421 118.624 299.163 118.861 298.979C119.1 298.792 119.36 298.661 119.642 298.588C119.926 298.512 120.205 298.474 120.48 298.474C120.655 298.474 120.857 298.496 121.084 298.538C121.313 298.579 121.535 298.663 121.748 298.79C121.963 298.918 122.142 299.111 122.284 299.369C122.426 299.627 122.497 299.973 122.497 300.406V304H121.659V303.261H121.616C121.56 303.38 121.465 303.506 121.332 303.641C121.2 303.776 121.023 303.891 120.803 303.986C120.583 304.08 120.314 304.128 119.997 304.128ZM120.125 303.375C120.456 303.375 120.736 303.31 120.963 303.18C121.193 303.049 121.366 302.881 121.482 302.675C121.6 302.469 121.659 302.253 121.659 302.026V301.259C121.624 301.301 121.545 301.34 121.425 301.376C121.306 301.409 121.169 301.438 121.013 301.464C120.859 301.488 120.709 301.509 120.562 301.528C120.417 301.545 120.3 301.559 120.21 301.571C119.992 301.599 119.789 301.646 119.599 301.71C119.412 301.771 119.261 301.865 119.145 301.99C119.031 302.113 118.974 302.281 118.974 302.494C118.974 302.786 119.082 303.006 119.298 303.155C119.515 303.302 119.791 303.375 120.125 303.375ZM124.865 300.719V304H124.027V298.545H124.836V299.398H124.907C125.035 299.121 125.229 298.898 125.49 298.73C125.75 298.56 126.086 298.474 126.498 298.474C126.868 298.474 127.191 298.55 127.468 298.702C127.745 298.851 127.96 299.078 128.114 299.384C128.268 299.687 128.345 300.07 128.345 300.534V304H127.507V300.591C127.507 300.162 127.396 299.829 127.173 299.589C126.951 299.348 126.645 299.227 126.257 299.227C125.989 299.227 125.75 299.285 125.54 299.401C125.331 299.517 125.167 299.687 125.046 299.909C124.925 300.132 124.865 300.402 124.865 300.719ZM131.936 304.114C131.482 304.114 131.08 303.999 130.732 303.769C130.384 303.537 130.112 303.21 129.915 302.789C129.719 302.365 129.621 301.865 129.621 301.287C129.621 300.714 129.719 300.217 129.915 299.795C130.112 299.374 130.385 299.049 130.736 298.819C131.086 298.589 131.491 298.474 131.95 298.474C132.305 298.474 132.586 298.534 132.792 298.652C133 298.768 133.159 298.901 133.268 299.05C133.379 299.196 133.465 299.317 133.527 299.412H133.598V296.727H134.436V304H133.626V303.162H133.527C133.465 303.261 133.378 303.387 133.264 303.538C133.151 303.687 132.988 303.821 132.778 303.94C132.567 304.056 132.286 304.114 131.936 304.114ZM132.05 303.361C132.386 303.361 132.67 303.273 132.902 303.098C133.134 302.92 133.31 302.675 133.431 302.363C133.552 302.048 133.612 301.685 133.612 301.273C133.612 300.866 133.553 300.509 133.435 300.204C133.316 299.896 133.141 299.657 132.909 299.487C132.677 299.314 132.391 299.227 132.05 299.227C131.695 299.227 131.399 299.318 131.162 299.501C130.928 299.681 130.751 299.926 130.633 300.236C130.517 300.544 130.459 300.889 130.459 301.273C130.459 301.661 130.518 302.014 130.636 302.331C130.757 302.646 130.935 302.897 131.169 303.084C131.406 303.268 131.699 303.361 132.05 303.361ZM138.374 304.114C137.849 304.114 137.395 303.998 137.014 303.766C136.635 303.531 136.343 303.205 136.137 302.786C135.933 302.364 135.832 301.874 135.832 301.315C135.832 300.757 135.933 300.264 136.137 299.838C136.343 299.41 136.629 299.076 136.996 298.837C137.366 298.595 137.797 298.474 138.289 298.474C138.573 298.474 138.854 298.522 139.131 298.616C139.408 298.711 139.66 298.865 139.887 299.078C140.114 299.289 140.295 299.568 140.43 299.916C140.565 300.264 140.633 300.693 140.633 301.202V301.557H136.428V300.832H139.781C139.781 300.525 139.719 300.25 139.596 300.009C139.475 299.767 139.302 299.576 139.077 299.437C138.855 299.297 138.592 299.227 138.289 299.227C137.955 299.227 137.666 299.31 137.423 299.476C137.181 299.639 136.995 299.852 136.865 300.115C136.735 300.378 136.67 300.66 136.67 300.96V301.443C136.67 301.855 136.741 302.204 136.883 302.491C137.027 302.775 137.227 302.991 137.483 303.141C137.739 303.287 138.036 303.361 138.374 303.361C138.594 303.361 138.793 303.33 138.971 303.268C139.151 303.205 139.306 303.11 139.436 302.984C139.566 302.857 139.667 302.698 139.738 302.509L140.548 302.736C140.462 303.01 140.319 303.252 140.118 303.46C139.917 303.666 139.668 303.827 139.372 303.943C139.076 304.057 138.744 304.114 138.374 304.114ZM145.771 299.767L145.018 299.98C144.971 299.855 144.901 299.733 144.809 299.614C144.719 299.494 144.596 299.394 144.44 299.316C144.283 299.238 144.083 299.199 143.839 299.199C143.506 299.199 143.228 299.276 143.005 299.43C142.785 299.581 142.675 299.774 142.675 300.009C142.675 300.217 142.75 300.381 142.902 300.502C143.054 300.623 143.29 300.723 143.612 300.804L144.422 301.003C144.91 301.121 145.273 301.302 145.512 301.546C145.751 301.788 145.871 302.099 145.871 302.48C145.871 302.793 145.781 303.072 145.601 303.318C145.423 303.564 145.175 303.759 144.855 303.901C144.536 304.043 144.164 304.114 143.74 304.114C143.184 304.114 142.723 303.993 142.359 303.751C141.994 303.51 141.763 303.157 141.666 302.693L142.462 302.494C142.537 302.788 142.681 303.008 142.891 303.155C143.104 303.302 143.383 303.375 143.726 303.375C144.116 303.375 144.427 303.292 144.656 303.126C144.888 302.958 145.004 302.757 145.004 302.523C145.004 302.333 144.938 302.175 144.805 302.047C144.673 301.917 144.469 301.82 144.195 301.756L143.286 301.543C142.786 301.424 142.419 301.241 142.185 300.992C141.953 300.741 141.837 300.428 141.837 300.051C141.837 299.743 141.923 299.471 142.096 299.234C142.271 298.998 142.509 298.812 142.81 298.677C143.113 298.542 143.456 298.474 143.839 298.474C144.379 298.474 144.803 298.593 145.111 298.83C145.421 299.066 145.641 299.379 145.771 299.767ZM152.232 304.114C151.706 304.114 151.253 303.998 150.872 303.766C150.493 303.531 150.2 303.205 149.994 302.786C149.791 302.364 149.689 301.874 149.689 301.315C149.689 300.757 149.791 300.264 149.994 299.838C150.2 299.41 150.487 299.076 150.854 298.837C151.223 298.595 151.654 298.474 152.146 298.474C152.431 298.474 152.711 298.522 152.988 298.616C153.265 298.711 153.517 298.865 153.744 299.078C153.972 299.289 154.153 299.568 154.288 299.916C154.423 300.264 154.49 300.693 154.49 301.202V301.557H150.286V300.832H153.638C153.638 300.525 153.576 300.25 153.453 300.009C153.333 299.767 153.16 299.576 152.935 299.437C152.712 299.297 152.45 299.227 152.146 299.227C151.813 299.227 151.524 299.31 151.28 299.476C151.039 299.639 150.853 299.852 150.722 300.115C150.592 300.378 150.527 300.66 150.527 300.96V301.443C150.527 301.855 150.598 302.204 150.74 302.491C150.885 302.775 151.085 302.991 151.34 303.141C151.596 303.287 151.893 303.361 152.232 303.361C152.452 303.361 152.651 303.33 152.828 303.268C153.008 303.205 153.163 303.11 153.294 302.984C153.424 302.857 153.524 302.698 153.595 302.509L154.405 302.736C154.32 303.01 154.177 303.252 153.975 303.46C153.774 303.666 153.526 303.827 153.23 303.943C152.934 304.057 152.601 304.114 152.232 304.114ZM156.603 300.719V304H155.765V298.545H156.575V299.398H156.646C156.774 299.121 156.968 298.898 157.228 298.73C157.489 298.56 157.825 298.474 158.237 298.474C158.606 298.474 158.929 298.55 159.206 298.702C159.483 298.851 159.699 299.078 159.852 299.384C160.006 299.687 160.083 300.07 160.083 300.534V304H159.245V300.591C159.245 300.162 159.134 299.829 158.911 299.589C158.689 299.348 158.383 299.227 157.995 299.227C157.728 299.227 157.489 299.285 157.278 299.401C157.07 299.517 156.905 299.687 156.784 299.909C156.664 300.132 156.603 300.402 156.603 300.719ZM166.032 304.128C165.687 304.128 165.373 304.063 165.091 303.933C164.81 303.8 164.586 303.609 164.42 303.361C164.254 303.11 164.172 302.807 164.172 302.452C164.172 302.139 164.233 301.886 164.356 301.692C164.479 301.495 164.644 301.341 164.85 301.23C165.056 301.119 165.283 301.036 165.532 300.982C165.783 300.925 166.035 300.88 166.288 300.847C166.619 300.804 166.888 300.772 167.094 300.751C167.302 300.727 167.454 300.688 167.549 300.634C167.646 300.579 167.694 300.484 167.694 300.349V300.321C167.694 299.971 167.598 299.698 167.407 299.504C167.217 299.31 166.93 299.213 166.544 299.213C166.144 299.213 165.83 299.301 165.603 299.476C165.375 299.651 165.216 299.838 165.123 300.037L164.328 299.753C164.47 299.421 164.659 299.163 164.896 298.979C165.135 298.792 165.395 298.661 165.677 298.588C165.961 298.512 166.241 298.474 166.515 298.474C166.69 298.474 166.892 298.496 167.119 298.538C167.349 298.579 167.57 298.663 167.783 298.79C167.998 298.918 168.177 299.111 168.319 299.369C168.461 299.627 168.532 299.973 168.532 300.406V304H167.694V303.261H167.652C167.595 303.38 167.5 303.506 167.368 303.641C167.235 303.776 167.059 303.891 166.838 303.986C166.618 304.08 166.35 304.128 166.032 304.128ZM166.16 303.375C166.492 303.375 166.771 303.31 166.998 303.18C167.228 303.049 167.401 302.881 167.517 302.675C167.635 302.469 167.694 302.253 167.694 302.026V301.259C167.659 301.301 167.581 301.34 167.46 301.376C167.342 301.409 167.204 301.438 167.048 301.464C166.894 301.488 166.744 301.509 166.597 301.528C166.453 301.545 166.335 301.559 166.245 301.571C166.028 301.599 165.824 301.646 165.635 301.71C165.448 301.771 165.296 301.865 165.18 301.99C165.066 302.113 165.01 302.281 165.01 302.494C165.01 302.786 165.117 303.006 165.333 303.155C165.551 303.302 165.826 303.375 166.16 303.375ZM172.434 298.545V299.256H169.607V298.545H172.434ZM170.431 297.239H171.269V302.438C171.269 302.674 171.304 302.852 171.372 302.97C171.443 303.086 171.533 303.164 171.642 303.205C171.753 303.242 171.871 303.261 171.994 303.261C172.086 303.261 172.162 303.257 172.221 303.247C172.28 303.235 172.328 303.226 172.363 303.219L172.534 303.972C172.477 303.993 172.397 304.014 172.296 304.036C172.194 304.059 172.065 304.071 171.909 304.071C171.672 304.071 171.44 304.02 171.213 303.918C170.988 303.817 170.801 303.661 170.651 303.453C170.505 303.245 170.431 302.982 170.431 302.665V297.239ZM176.067 298.545V299.256H173.24V298.545H176.067ZM174.064 297.239H174.902V302.438C174.902 302.674 174.936 302.852 175.005 302.97C175.076 303.086 175.166 303.164 175.275 303.205C175.386 303.242 175.503 303.261 175.627 303.261C175.719 303.261 175.795 303.257 175.854 303.247C175.913 303.235 175.96 303.226 175.996 303.219L176.166 303.972C176.11 303.993 176.03 304.014 175.928 304.036C175.827 304.059 175.698 304.071 175.541 304.071C175.305 304.071 175.073 304.02 174.845 303.918C174.62 303.817 174.433 303.661 174.284 303.453C174.137 303.245 174.064 302.982 174.064 302.665V297.239ZM179.556 304.114C179.03 304.114 178.577 303.998 178.196 303.766C177.817 303.531 177.525 303.205 177.319 302.786C177.115 302.364 177.013 301.874 177.013 301.315C177.013 300.757 177.115 300.264 177.319 299.838C177.525 299.41 177.811 299.076 178.178 298.837C178.547 298.595 178.978 298.474 179.471 298.474C179.755 298.474 180.035 298.522 180.312 298.616C180.589 298.711 180.841 298.865 181.069 299.078C181.296 299.289 181.477 299.568 181.612 299.916C181.747 300.264 181.814 300.693 181.814 301.202V301.557H177.61V300.832H180.962C180.962 300.525 180.901 300.25 180.778 300.009C180.657 299.767 180.484 299.576 180.259 299.437C180.037 299.297 179.774 299.227 179.471 299.227C179.137 299.227 178.848 299.31 178.604 299.476C178.363 299.639 178.177 299.852 178.047 300.115C177.916 300.378 177.851 300.66 177.851 300.96V301.443C177.851 301.855 177.922 302.204 178.064 302.491C178.209 302.775 178.409 302.991 178.665 303.141C178.92 303.287 179.217 303.361 179.556 303.361C179.776 303.361 179.975 303.33 180.153 303.268C180.332 303.205 180.488 303.11 180.618 302.984C180.748 302.857 180.849 302.698 180.92 302.509L181.729 302.736C181.644 303.01 181.501 303.252 181.3 303.46C181.098 303.666 180.85 303.827 180.554 303.943C180.258 304.057 179.925 304.114 179.556 304.114ZM183.927 300.719V304H183.089V298.545H183.899V299.398H183.97C184.098 299.121 184.292 298.898 184.552 298.73C184.813 298.56 185.149 298.474 185.561 298.474C185.93 298.474 186.253 298.55 186.53 298.702C186.807 298.851 187.023 299.078 187.177 299.384C187.331 299.687 187.407 300.07 187.407 300.534V304H186.569V300.591C186.569 300.162 186.458 299.829 186.236 299.589C186.013 299.348 185.708 299.227 185.319 299.227C185.052 299.227 184.813 299.285 184.602 299.401C184.394 299.517 184.229 299.687 184.108 299.909C183.988 300.132 183.927 300.402 183.927 300.719ZM191.311 298.545V299.256H188.484V298.545H191.311ZM189.308 297.239H190.146V302.438C190.146 302.674 190.181 302.852 190.249 302.97C190.32 303.086 190.41 303.164 190.519 303.205C190.63 303.242 190.748 303.261 190.871 303.261C190.963 303.261 191.039 303.257 191.098 303.247C191.157 303.235 191.205 303.226 191.24 303.219L191.411 303.972C191.354 303.993 191.274 304.014 191.173 304.036C191.071 304.059 190.942 304.071 190.786 304.071C190.549 304.071 190.317 304.02 190.089 303.918C189.865 303.817 189.678 303.661 189.528 303.453C189.382 303.245 189.308 302.982 189.308 302.665V297.239ZM194.8 304.114C194.275 304.114 193.821 303.998 193.44 303.766C193.061 303.531 192.769 303.205 192.563 302.786C192.359 302.364 192.257 301.874 192.257 301.315C192.257 300.757 192.359 300.264 192.563 299.838C192.769 299.41 193.055 299.076 193.422 298.837C193.792 298.595 194.222 298.474 194.715 298.474C194.999 298.474 195.279 298.522 195.556 298.616C195.833 298.711 196.086 298.865 196.313 299.078C196.54 299.289 196.721 299.568 196.856 299.916C196.991 300.264 197.059 300.693 197.059 301.202V301.557H192.854V300.832H196.206C196.206 300.525 196.145 300.25 196.022 300.009C195.901 299.767 195.728 299.576 195.503 299.437C195.281 299.297 195.018 299.227 194.715 299.227C194.381 299.227 194.092 299.31 193.848 299.476C193.607 299.639 193.421 299.852 193.291 300.115C193.161 300.378 193.096 300.66 193.096 300.96V301.443C193.096 301.855 193.167 302.204 193.309 302.491C193.453 302.775 193.653 302.991 193.909 303.141C194.164 303.287 194.462 303.361 194.8 303.361C195.02 303.361 195.219 303.33 195.397 303.268C195.577 303.205 195.732 303.11 195.862 302.984C195.992 302.857 196.093 302.698 196.164 302.509L196.973 302.736C196.888 303.01 196.745 303.252 196.544 303.46C196.342 303.666 196.094 303.827 195.798 303.943C195.502 304.057 195.169 304.114 194.8 304.114Z" fill="black"/>
<path d="M93.733 263H92.8523C92.8002 262.747 92.709 262.524 92.5788 262.332C92.451 262.141 92.2947 261.98 92.1101 261.849C91.9278 261.717 91.7254 261.617 91.5028 261.551C91.2803 261.485 91.0483 261.452 90.8068 261.452C90.3665 261.452 89.9676 261.563 89.6101 261.786C89.255 262.008 88.9721 262.336 88.7614 262.769C88.553 263.202 88.4489 263.734 88.4489 264.364C88.4489 264.993 88.553 265.525 88.7614 265.958C88.9721 266.391 89.255 266.719 89.6101 266.942C89.9676 267.164 90.3665 267.276 90.8068 267.276C91.0483 267.276 91.2803 267.242 91.5028 267.176C91.7254 267.11 91.9278 267.012 92.1101 266.881C92.2947 266.749 92.451 266.587 92.5788 266.395C92.709 266.201 92.8002 265.978 92.8523 265.727H93.733C93.6667 266.099 93.5459 266.432 93.3707 266.725C93.1955 267.019 92.9777 267.268 92.7173 267.474C92.4569 267.678 92.1645 267.833 91.8402 267.94C91.5182 268.046 91.1738 268.099 90.8068 268.099C90.1866 268.099 89.6349 267.948 89.152 267.645C88.669 267.342 88.2891 266.911 88.0121 266.352C87.7351 265.794 87.5966 265.131 87.5966 264.364C87.5966 263.597 87.7351 262.934 88.0121 262.375C88.2891 261.816 88.669 261.385 89.152 261.082C89.6349 260.779 90.1866 260.628 90.8068 260.628C91.1738 260.628 91.5182 260.681 91.8402 260.788C92.1645 260.894 92.4569 261.05 92.7173 261.256C92.9777 261.46 93.1955 261.709 93.3707 262.002C93.5459 262.293 93.6667 262.626 93.733 263ZM97.2583 268.114C96.7659 268.114 96.3339 267.996 95.9622 267.762C95.5929 267.528 95.304 267.2 95.0957 266.778C94.8897 266.357 94.7868 265.865 94.7868 265.301C94.7868 264.733 94.8897 264.237 95.0957 263.813C95.304 263.389 95.5929 263.06 95.9622 262.826C96.3339 262.592 96.7659 262.474 97.2583 262.474C97.7508 262.474 98.1816 262.592 98.551 262.826C98.9226 263.06 99.2115 263.389 99.4174 263.813C99.6258 264.237 99.7299 264.733 99.7299 265.301C99.7299 265.865 99.6258 266.357 99.4174 266.778C99.2115 267.2 98.9226 267.528 98.551 267.762C98.1816 267.996 97.7508 268.114 97.2583 268.114ZM97.2583 267.361C97.6324 267.361 97.9402 267.265 98.1816 267.073C98.4231 266.881 98.6019 266.629 98.7179 266.317C98.8339 266.004 98.8919 265.666 98.8919 265.301C98.8919 264.937 98.8339 264.597 98.7179 264.282C98.6019 263.967 98.4231 263.713 98.1816 263.518C97.9402 263.324 97.6324 263.227 97.2583 263.227C96.8843 263.227 96.5765 263.324 96.335 263.518C96.0936 263.713 95.9148 263.967 95.7988 264.282C95.6828 264.597 95.6248 264.937 95.6248 265.301C95.6248 265.666 95.6828 266.004 95.7988 266.317C95.9148 266.629 96.0936 266.881 96.335 267.073C96.5765 267.265 96.8843 267.361 97.2583 267.361ZM101.009 268V262.545H101.819V263.398H101.89C102.004 263.107 102.187 262.88 102.44 262.719C102.694 262.556 102.998 262.474 103.353 262.474C103.713 262.474 104.012 262.556 104.251 262.719C104.493 262.88 104.681 263.107 104.816 263.398H104.873C105.013 263.116 105.222 262.892 105.501 262.727C105.781 262.558 106.116 262.474 106.506 262.474C106.994 262.474 107.393 262.627 107.703 262.933C108.013 263.236 108.168 263.708 108.168 264.349V268H107.33V264.349C107.33 263.947 107.22 263.659 107 263.487C106.78 263.314 106.521 263.227 106.222 263.227C105.839 263.227 105.542 263.343 105.331 263.575C105.12 263.805 105.015 264.096 105.015 264.449V268H104.163V264.264C104.163 263.954 104.062 263.704 103.861 263.515C103.66 263.323 103.4 263.227 103.083 263.227C102.865 263.227 102.662 263.285 102.472 263.401C102.285 263.517 102.134 263.678 102.018 263.884C101.904 264.088 101.847 264.323 101.847 264.591V268H101.009ZM109.701 268V262.545H110.51V263.398H110.581C110.695 263.107 110.878 262.88 111.132 262.719C111.385 262.556 111.689 262.474 112.044 262.474C112.404 262.474 112.704 262.556 112.943 262.719C113.184 262.88 113.373 263.107 113.507 263.398H113.564C113.704 263.116 113.913 262.892 114.193 262.727C114.472 262.558 114.807 262.474 115.198 262.474C115.685 262.474 116.084 262.627 116.395 262.933C116.705 263.236 116.86 263.708 116.86 264.349V268H116.022V264.349C116.022 263.947 115.912 263.659 115.691 263.487C115.471 263.314 115.212 263.227 114.914 263.227C114.53 263.227 114.233 263.343 114.022 263.575C113.812 263.805 113.706 264.096 113.706 264.449V268H112.854V264.264C112.854 263.954 112.753 263.704 112.552 263.515C112.351 263.323 112.092 263.227 111.775 263.227C111.557 263.227 111.353 263.285 111.164 263.401C110.977 263.517 110.825 263.678 110.709 263.884C110.596 264.088 110.539 264.323 110.539 264.591V268H109.701ZM119.997 268.128C119.652 268.128 119.338 268.063 119.056 267.933C118.774 267.8 118.551 267.609 118.385 267.361C118.219 267.11 118.136 266.807 118.136 266.452C118.136 266.139 118.198 265.886 118.321 265.692C118.444 265.495 118.609 265.341 118.815 265.23C119.021 265.119 119.248 265.036 119.496 264.982C119.747 264.925 120 264.88 120.253 264.847C120.584 264.804 120.853 264.772 121.059 264.751C121.267 264.727 121.419 264.688 121.513 264.634C121.611 264.579 121.659 264.484 121.659 264.349V264.321C121.659 263.971 121.563 263.698 121.371 263.504C121.182 263.31 120.894 263.213 120.509 263.213C120.108 263.213 119.795 263.301 119.567 263.476C119.34 263.651 119.18 263.838 119.088 264.037L118.293 263.753C118.435 263.421 118.624 263.163 118.861 262.979C119.1 262.792 119.36 262.661 119.642 262.588C119.926 262.512 120.205 262.474 120.48 262.474C120.655 262.474 120.857 262.496 121.084 262.538C121.313 262.579 121.535 262.663 121.748 262.79C121.963 262.918 122.142 263.111 122.284 263.369C122.426 263.627 122.497 263.973 122.497 264.406V268H121.659V267.261H121.616C121.56 267.38 121.465 267.506 121.332 267.641C121.2 267.776 121.023 267.891 120.803 267.986C120.583 268.08 120.314 268.128 119.997 268.128ZM120.125 267.375C120.456 267.375 120.736 267.31 120.963 267.18C121.193 267.049 121.366 266.881 121.482 266.675C121.6 266.469 121.659 266.253 121.659 266.026V265.259C121.624 265.301 121.545 265.34 121.425 265.376C121.306 265.409 121.169 265.438 121.013 265.464C120.859 265.488 120.709 265.509 120.562 265.528C120.417 265.545 120.3 265.559 120.21 265.571C119.992 265.599 119.789 265.646 119.599 265.71C119.412 265.771 119.261 265.865 119.145 265.99C119.031 266.113 118.974 266.281 118.974 266.494C118.974 266.786 119.082 267.006 119.298 267.155C119.515 267.302 119.791 267.375 120.125 267.375ZM124.865 264.719V268H124.027V262.545H124.836V263.398H124.907C125.035 263.121 125.229 262.898 125.49 262.73C125.75 262.56 126.086 262.474 126.498 262.474C126.868 262.474 127.191 262.55 127.468 262.702C127.745 262.851 127.96 263.078 128.114 263.384C128.268 263.687 128.345 264.07 128.345 264.534V268H127.507V264.591C127.507 264.162 127.396 263.829 127.173 263.589C126.951 263.348 126.645 263.227 126.257 263.227C125.989 263.227 125.75 263.285 125.54 263.401C125.331 263.517 125.167 263.687 125.046 263.909C124.925 264.132 124.865 264.402 124.865 264.719ZM131.936 268.114C131.482 268.114 131.08 267.999 130.732 267.769C130.384 267.537 130.112 267.21 129.915 266.789C129.719 266.365 129.621 265.865 129.621 265.287C129.621 264.714 129.719 264.217 129.915 263.795C130.112 263.374 130.385 263.049 130.736 262.819C131.086 262.589 131.491 262.474 131.95 262.474C132.305 262.474 132.586 262.534 132.792 262.652C133 262.768 133.159 262.901 133.268 263.05C133.379 263.196 133.465 263.317 133.527 263.412H133.598V260.727H134.436V268H133.626V267.162H133.527C133.465 267.261 133.378 267.387 133.264 267.538C133.151 267.687 132.988 267.821 132.778 267.94C132.567 268.056 132.286 268.114 131.936 268.114ZM132.05 267.361C132.386 267.361 132.67 267.273 132.902 267.098C133.134 266.92 133.31 266.675 133.431 266.363C133.552 266.048 133.612 265.685 133.612 265.273C133.612 264.866 133.553 264.509 133.435 264.204C133.316 263.896 133.141 263.657 132.909 263.487C132.677 263.314 132.391 263.227 132.05 263.227C131.695 263.227 131.399 263.318 131.162 263.501C130.928 263.681 130.751 263.926 130.633 264.236C130.517 264.544 130.459 264.889 130.459 265.273C130.459 265.661 130.518 266.014 130.636 266.331C130.757 266.646 130.935 266.897 131.169 267.084C131.406 267.268 131.699 267.361 132.05 267.361ZM138.374 268.114C137.849 268.114 137.395 267.998 137.014 267.766C136.635 267.531 136.343 267.205 136.137 266.786C135.933 266.364 135.832 265.874 135.832 265.315C135.832 264.757 135.933 264.264 136.137 263.838C136.343 263.41 136.629 263.076 136.996 262.837C137.366 262.595 137.797 262.474 138.289 262.474C138.573 262.474 138.854 262.522 139.131 262.616C139.408 262.711 139.66 262.865 139.887 263.078C140.114 263.289 140.295 263.568 140.43 263.916C140.565 264.264 140.633 264.693 140.633 265.202V265.557H136.428V264.832H139.781C139.781 264.525 139.719 264.25 139.596 264.009C139.475 263.767 139.302 263.576 139.077 263.437C138.855 263.297 138.592 263.227 138.289 263.227C137.955 263.227 137.666 263.31 137.423 263.476C137.181 263.639 136.995 263.852 136.865 264.115C136.735 264.378 136.67 264.66 136.67 264.96V265.443C136.67 265.855 136.741 266.204 136.883 266.491C137.027 266.775 137.227 266.991 137.483 267.141C137.739 267.287 138.036 267.361 138.374 267.361C138.594 267.361 138.793 267.33 138.971 267.268C139.151 267.205 139.306 267.11 139.436 266.984C139.566 266.857 139.667 266.698 139.738 266.509L140.548 266.736C140.462 267.01 140.319 267.252 140.118 267.46C139.917 267.666 139.668 267.827 139.372 267.943C139.076 268.057 138.744 268.114 138.374 268.114ZM145.771 263.767L145.018 263.98C144.971 263.855 144.901 263.733 144.809 263.614C144.719 263.494 144.596 263.394 144.44 263.316C144.283 263.238 144.083 263.199 143.839 263.199C143.506 263.199 143.228 263.276 143.005 263.43C142.785 263.581 142.675 263.774 142.675 264.009C142.675 264.217 142.75 264.381 142.902 264.502C143.054 264.623 143.29 264.723 143.612 264.804L144.422 265.003C144.91 265.121 145.273 265.302 145.512 265.546C145.751 265.788 145.871 266.099 145.871 266.48C145.871 266.793 145.781 267.072 145.601 267.318C145.423 267.564 145.175 267.759 144.855 267.901C144.536 268.043 144.164 268.114 143.74 268.114C143.184 268.114 142.723 267.993 142.359 267.751C141.994 267.51 141.763 267.157 141.666 266.693L142.462 266.494C142.537 266.788 142.681 267.008 142.891 267.155C143.104 267.302 143.383 267.375 143.726 267.375C144.116 267.375 144.427 267.292 144.656 267.126C144.888 266.958 145.004 266.757 145.004 266.523C145.004 266.333 144.938 266.175 144.805 266.047C144.673 265.917 144.469 265.82 144.195 265.756L143.286 265.543C142.786 265.424 142.419 265.241 142.185 264.992C141.953 264.741 141.837 264.428 141.837 264.051C141.837 263.743 141.923 263.471 142.096 263.234C142.271 262.998 142.509 262.812 142.81 262.677C143.113 262.542 143.456 262.474 143.839 262.474C144.379 262.474 144.803 262.593 145.111 262.83C145.421 263.066 145.641 263.379 145.771 263.767ZM150.783 260.727V268H149.945V260.727H150.783ZM152.318 268V262.545H153.156V268H152.318ZM152.744 261.636C152.581 261.636 152.44 261.581 152.321 261.469C152.205 261.358 152.147 261.224 152.147 261.068C152.147 260.912 152.205 260.778 152.321 260.667C152.44 260.556 152.581 260.5 152.744 260.5C152.907 260.5 153.047 260.556 153.163 260.667C153.281 260.778 153.341 260.912 153.341 261.068C153.341 261.224 153.281 261.358 153.163 261.469C153.047 261.581 152.907 261.636 152.744 261.636ZM159.151 262.545L157.134 268H156.282L154.265 262.545H155.174L156.68 266.892H156.736L158.242 262.545H159.151ZM160.257 268V262.545H161.067V263.369H161.124C161.223 263.099 161.403 262.88 161.664 262.712C161.924 262.544 162.218 262.46 162.544 262.46C162.606 262.46 162.683 262.461 162.775 262.464C162.867 262.466 162.937 262.47 162.985 262.474V263.327C162.956 263.32 162.891 263.309 162.789 263.295C162.69 263.278 162.584 263.27 162.473 263.27C162.208 263.27 161.971 263.326 161.763 263.437C161.557 263.546 161.394 263.697 161.273 263.891C161.155 264.083 161.095 264.302 161.095 264.548V268H160.257ZM166.099 268.114C165.573 268.114 165.12 267.998 164.739 267.766C164.36 267.531 164.068 267.205 163.862 266.786C163.658 266.364 163.556 265.874 163.556 265.315C163.556 264.757 163.658 264.264 163.862 263.838C164.068 263.41 164.354 263.076 164.721 262.837C165.09 262.595 165.521 262.474 166.014 262.474C166.298 262.474 166.578 262.522 166.855 262.616C167.132 262.711 167.384 262.865 167.612 263.078C167.839 263.289 168.02 263.568 168.155 263.916C168.29 264.264 168.357 264.693 168.357 265.202V265.557H164.153V264.832H167.505C167.505 264.525 167.444 264.25 167.32 264.009C167.2 263.767 167.027 263.576 166.802 263.437C166.579 263.297 166.317 263.227 166.014 263.227C165.68 263.227 165.391 263.31 165.147 263.476C164.906 263.639 164.72 263.852 164.59 264.115C164.459 264.378 164.394 264.66 164.394 264.96V265.443C164.394 265.855 164.465 266.204 164.607 266.491C164.752 266.775 164.952 266.991 165.208 267.141C165.463 267.287 165.76 267.361 166.099 267.361C166.319 267.361 166.518 267.33 166.695 267.268C166.875 267.205 167.03 267.11 167.161 266.984C167.291 266.857 167.392 266.698 167.463 266.509L168.272 266.736C168.187 267.01 168.044 267.252 167.843 267.46C167.641 267.666 167.393 267.827 167.097 267.943C166.801 268.057 166.468 268.114 166.099 268.114ZM165.588 261.807L166.454 260.159H167.434L166.326 261.807H165.588ZM171.919 268.114C171.394 268.114 170.94 267.998 170.559 267.766C170.18 267.531 169.888 267.205 169.682 266.786C169.478 266.364 169.377 265.874 169.377 265.315C169.377 264.757 169.478 264.264 169.682 263.838C169.888 263.41 170.174 263.076 170.541 262.837C170.911 262.595 171.342 262.474 171.834 262.474C172.118 262.474 172.399 262.522 172.676 262.616C172.953 262.711 173.205 262.865 173.432 263.078C173.659 263.289 173.84 263.568 173.975 263.916C174.11 264.264 174.178 264.693 174.178 265.202V265.557H169.973V264.832H173.325C173.325 264.525 173.264 264.25 173.141 264.009C173.02 263.767 172.847 263.576 172.622 263.437C172.4 263.297 172.137 263.227 171.834 263.227C171.5 263.227 171.211 263.31 170.968 263.476C170.726 263.639 170.54 263.852 170.41 264.115C170.28 264.378 170.215 264.66 170.215 264.96V265.443C170.215 265.855 170.286 266.204 170.428 266.491C170.572 266.775 170.772 266.991 171.028 267.141C171.284 267.287 171.581 267.361 171.919 267.361C172.139 267.361 172.338 267.33 172.516 267.268C172.696 267.205 172.851 267.11 172.981 266.984C173.111 266.857 173.212 266.698 173.283 266.509L174.093 266.736C174.007 267.01 173.864 267.252 173.663 267.46C173.462 267.666 173.213 267.827 172.917 267.943C172.621 268.057 172.289 268.114 171.919 268.114ZM179.316 263.767L178.563 263.98C178.516 263.855 178.446 263.733 178.354 263.614C178.264 263.494 178.141 263.394 177.985 263.316C177.828 263.238 177.628 263.199 177.384 263.199C177.051 263.199 176.772 263.276 176.55 263.43C176.33 263.581 176.22 263.774 176.22 264.009C176.22 264.217 176.295 264.381 176.447 264.502C176.598 264.623 176.835 264.723 177.157 264.804L177.967 265.003C178.454 265.121 178.818 265.302 179.057 265.546C179.296 265.788 179.416 266.099 179.416 266.48C179.416 266.793 179.326 267.072 179.146 267.318C178.968 267.564 178.72 267.759 178.4 267.901C178.08 268.043 177.709 268.114 177.285 268.114C176.729 268.114 176.268 267.993 175.904 267.751C175.539 267.51 175.308 267.157 175.211 266.693L176.007 266.494C176.082 266.788 176.226 267.008 176.436 267.155C176.649 267.302 176.927 267.375 177.271 267.375C177.661 267.375 177.972 267.292 178.201 267.126C178.433 266.958 178.549 266.757 178.549 266.523C178.549 266.333 178.483 266.175 178.35 266.047C178.218 265.917 178.014 265.82 177.74 265.756L176.83 265.543C176.331 265.424 175.964 265.241 175.73 264.992C175.498 264.741 175.382 264.428 175.382 264.051C175.382 263.743 175.468 263.471 175.641 263.234C175.816 262.998 176.054 262.812 176.355 262.677C176.658 262.542 177.001 262.474 177.384 262.474C177.924 262.474 178.348 262.593 178.656 262.83C178.966 263.066 179.186 263.379 179.316 263.767Z" fill="black"/>
<defs>
<filter id="filter0_i_160_1611" x="0" y="0" width="432" height="342" filterUnits="userSpaceOnUse" color-interpolation-filters="sRGB">
<feFlood flood-opacity="0" result="BackgroundImageFix"/>
<feBlend mode="normal" in="SourceGraphic" in2="BackgroundImageFix" result="shape"/>
<feColorMatrix in="SourceAlpha" type="matrix" values="0 0 0 0 0 0 0 0 0 0 0 0 0 0 0 0 0 0 127 0" result="hardAlpha"/>
<feOffset dy="4"/>
<feGaussianBlur stdDeviation="2"/>
<feComposite in2="hardAlpha" operator="arithmetic" k2="-1" k3="1"/>
<feColorMatrix type="matrix" values="0 0 0 0 0 0 0 0 0 0 0 0 0 0 0 0 0 0 0.25 0"/>
<feBlend mode="normal" in2="shape" result="effect1_innerShadow_160_1611"/>
</filter>
</defs>
</svg>
