<svg width="548" height="375" viewBox="0 0 548 375" fill="none" xmlns="http://www.w3.org/2000/svg">
<g filter="url(#filter0_i_628_2561)">
<rect width="548" height="375" rx="10" fill="#FAFAFA"/>
<rect x="22.5" y="90" width="503" height="15" rx="7.5" fill="white"/>
<rect x="22.5" y="91" width="231" height="15" rx="7.5" fill="#FFC300"/>
<rect x="22.5" y="163" width="503" height="15" rx="7.5" fill="white"/>
<rect x="22.5" y="163" width="185" height="15" rx="7.5" fill="#FFC300"/>
<rect x="22.5" y="251" width="503" height="15" rx="7.5" fill="white"/>
<rect x="22.5" y="250" width="66" height="15" rx="7.5" fill="#FFC300"/>
<path d="M30.915 62.68C30.915 63.21 30.79 63.71 30.54 64.18C30.29 64.65 29.89 65.035 29.34 65.335C28.79 65.625 28.085 65.77 27.225 65.77H25.335V70H23.625V59.575H27.225C28.025 59.575 28.7 59.715 29.25 59.995C29.81 60.265 30.225 60.635 30.495 61.105C30.775 61.575 30.915 62.1 30.915 62.68ZM27.225 64.375C27.875 64.375 28.36 64.23 28.68 63.94C29 63.64 29.16 63.22 29.16 62.68C29.16 61.54 28.515 60.97 27.225 60.97H25.335V64.375H27.225ZM34.2559 62.935C34.5059 62.515 34.8359 62.19 35.2459 61.96C35.6659 61.72 36.1609 61.6 36.7309 61.6V63.37H36.2959C35.6259 63.37 35.1159 63.54 34.7659 63.88C34.4259 64.22 34.2559 64.81 34.2559 65.65V70H32.5459V61.735H34.2559V62.935ZM41.8877 70.135C41.1077 70.135 40.4027 69.96 39.7727 69.61C39.1427 69.25 38.6477 68.75 38.2877 68.11C37.9277 67.46 37.7477 66.71 37.7477 65.86C37.7477 65.02 37.9327 64.275 38.3027 63.625C38.6727 62.975 39.1777 62.475 39.8177 62.125C40.4577 61.775 41.1727 61.6 41.9627 61.6C42.7527 61.6 43.4677 61.775 44.1077 62.125C44.7477 62.475 45.2527 62.975 45.6227 63.625C45.9927 64.275 46.1777 65.02 46.1777 65.86C46.1777 66.7 45.9877 67.445 45.6077 68.095C45.2277 68.745 44.7077 69.25 44.0477 69.61C43.3977 69.96 42.6777 70.135 41.8877 70.135ZM41.8877 68.65C42.3277 68.65 42.7377 68.545 43.1177 68.335C43.5077 68.125 43.8227 67.81 44.0627 67.39C44.3027 66.97 44.4227 66.46 44.4227 65.86C44.4227 65.26 44.3077 64.755 44.0777 64.345C43.8477 63.925 43.5427 63.61 43.1627 63.4C42.7827 63.19 42.3727 63.085 41.9327 63.085C41.4927 63.085 41.0827 63.19 40.7027 63.4C40.3327 63.61 40.0377 63.925 39.8177 64.345C39.5977 64.755 39.4877 65.26 39.4877 65.86C39.4877 66.75 39.7127 67.44 40.1627 67.93C40.6227 68.41 41.1977 68.65 41.8877 68.65ZM47.2982 65.83C47.2982 65 47.4682 64.265 47.8082 63.625C48.1582 62.985 48.6282 62.49 49.2182 62.14C49.8182 61.78 50.4832 61.6 51.2132 61.6C51.7532 61.6 52.2832 61.72 52.8032 61.96C53.3332 62.19 53.7532 62.5 54.0632 62.89V58.9H55.7882V70H54.0632V68.755C53.7832 69.155 53.3932 69.485 52.8932 69.745C52.4032 70.005 51.8382 70.135 51.1982 70.135C50.4782 70.135 49.8182 69.955 49.2182 69.595C48.6282 69.225 48.1582 68.715 47.8082 68.065C47.4682 67.405 47.2982 66.66 47.2982 65.83ZM54.0632 65.86C54.0632 65.29 53.9432 64.795 53.7032 64.375C53.4732 63.955 53.1682 63.635 52.7882 63.415C52.4082 63.195 51.9982 63.085 51.5582 63.085C51.1182 63.085 50.7082 63.195 50.3282 63.415C49.9482 63.625 49.6382 63.94 49.3982 64.36C49.1682 64.77 49.0532 65.26 49.0532 65.83C49.0532 66.4 49.1682 66.9 49.3982 67.33C49.6382 67.76 49.9482 68.09 50.3282 68.32C50.7182 68.54 51.1282 68.65 51.5582 68.65C51.9982 68.65 52.4082 68.54 52.7882 68.32C53.1682 68.1 53.4732 67.78 53.7032 67.36C53.9432 66.93 54.0632 66.43 54.0632 65.86ZM65.5192 61.735V70H63.8092V69.025C63.5392 69.365 63.1842 69.635 62.7442 69.835C62.3142 70.025 61.8542 70.12 61.3642 70.12C60.7142 70.12 60.1292 69.985 59.6092 69.715C59.0992 69.445 58.6942 69.045 58.3942 68.515C58.1042 67.985 57.9592 67.345 57.9592 66.595V61.735H59.6542V66.34C59.6542 67.08 59.8392 67.65 60.2092 68.05C60.5792 68.44 61.0842 68.635 61.7242 68.635C62.3642 68.635 62.8692 68.44 63.2392 68.05C63.6192 67.65 63.8092 67.08 63.8092 66.34V61.735H65.5192ZM68.6454 60.64C68.3354 60.64 68.0754 60.535 67.8654 60.325C67.6554 60.115 67.5504 59.855 67.5504 59.545C67.5504 59.235 67.6554 58.975 67.8654 58.765C68.0754 58.555 68.3354 58.45 68.6454 58.45C68.9454 58.45 69.2004 58.555 69.4104 58.765C69.6204 58.975 69.7254 59.235 69.7254 59.545C69.7254 59.855 69.6204 60.115 69.4104 60.325C69.2004 60.535 68.9454 60.64 68.6454 60.64ZM69.4854 61.735V70H67.7754V61.735H69.4854ZM73.7255 63.13V67.705C73.7255 68.015 73.7955 68.24 73.9355 68.38C74.0855 68.51 74.3355 68.575 74.6855 68.575H75.7355V70H74.3855C73.6155 70 73.0255 69.82 72.6155 69.46C72.2055 69.1 72.0005 68.515 72.0005 67.705V63.13H71.0255V61.735H72.0005V59.68H73.7255V61.735H75.7355V63.13H73.7255ZM80.3115 70.135C79.6615 70.135 79.0765 70.02 78.5565 69.79C78.0465 69.55 77.6415 69.23 77.3415 68.83C77.0415 68.42 76.8815 67.965 76.8615 67.465H78.6315C78.6615 67.815 78.8265 68.11 79.1265 68.35C79.4365 68.58 79.8215 68.695 80.2815 68.695C80.7615 68.695 81.1315 68.605 81.3915 68.425C81.6615 68.235 81.7965 67.995 81.7965 67.705C81.7965 67.395 81.6465 67.165 81.3465 67.015C81.0565 66.865 80.5915 66.7 79.9515 66.52C79.3315 66.35 78.8265 66.185 78.4365 66.025C78.0465 65.865 77.7065 65.62 77.4165 65.29C77.1365 64.96 76.9965 64.525 76.9965 63.985C76.9965 63.545 77.1265 63.145 77.3865 62.785C77.6465 62.415 78.0165 62.125 78.4965 61.915C78.9865 61.705 79.5465 61.6 80.1765 61.6C81.1165 61.6 81.8715 61.84 82.4415 62.32C83.0215 62.79 83.3315 63.435 83.3715 64.255H81.6615C81.6315 63.885 81.4815 63.59 81.2115 63.37C80.9415 63.15 80.5765 63.04 80.1165 63.04C79.6665 63.04 79.3215 63.125 79.0815 63.295C78.8415 63.465 78.7215 63.69 78.7215 63.97C78.7215 64.19 78.8015 64.375 78.9615 64.525C79.1215 64.675 79.3165 64.795 79.5465 64.885C79.7765 64.965 80.1165 65.07 80.5665 65.2C81.1665 65.36 81.6565 65.525 82.0365 65.695C82.4265 65.855 82.7615 66.095 83.0415 66.415C83.3215 66.735 83.4665 67.16 83.4765 67.69C83.4765 68.16 83.3465 68.58 83.0865 68.95C82.8265 69.32 82.4565 69.61 81.9765 69.82C81.5065 70.03 80.9515 70.135 80.3115 70.135ZM90.0907 60.64C89.7807 60.64 89.5207 60.535 89.3107 60.325C89.1007 60.115 88.9957 59.855 88.9957 59.545C88.9957 59.235 89.1007 58.975 89.3107 58.765C89.5207 58.555 89.7807 58.45 90.0907 58.45C90.3907 58.45 90.6457 58.555 90.8557 58.765C91.0657 58.975 91.1707 59.235 91.1707 59.545C91.1707 59.855 91.0657 60.115 90.8557 60.325C90.6457 60.535 90.3907 60.64 90.0907 60.64ZM90.9307 61.735V70H89.2207V61.735H90.9307ZM97.3458 61.6C97.9958 61.6 98.5758 61.735 99.0858 62.005C99.6058 62.275 100.011 62.675 100.301 63.205C100.591 63.735 100.736 64.375 100.736 65.125V70H99.0408V65.38C99.0408 64.64 98.8558 64.075 98.4858 63.685C98.1158 63.285 97.6108 63.085 96.9708 63.085C96.3308 63.085 95.8208 63.285 95.4408 63.685C95.0708 64.075 94.8858 64.64 94.8858 65.38V70H93.1758V61.735H94.8858V62.68C95.1658 62.34 95.5208 62.075 95.9508 61.885C96.3908 61.695 96.8558 61.6 97.3458 61.6ZM106.382 63.13H104.852V70H103.127V63.13H102.152V61.735H103.127V61.15C103.127 60.2 103.377 59.51 103.877 59.08C104.387 58.64 105.182 58.42 106.262 58.42V59.845C105.742 59.845 105.377 59.945 105.167 60.145C104.957 60.335 104.852 60.67 104.852 61.15V61.735H106.382V63.13ZM111.482 70.135C110.702 70.135 109.997 69.96 109.367 69.61C108.737 69.25 108.242 68.75 107.882 68.11C107.522 67.46 107.342 66.71 107.342 65.86C107.342 65.02 107.527 64.275 107.897 63.625C108.267 62.975 108.772 62.475 109.412 62.125C110.052 61.775 110.767 61.6 111.557 61.6C112.347 61.6 113.062 61.775 113.702 62.125C114.342 62.475 114.847 62.975 115.217 63.625C115.587 64.275 115.772 65.02 115.772 65.86C115.772 66.7 115.582 67.445 115.202 68.095C114.822 68.745 114.302 69.25 113.642 69.61C112.992 69.96 112.272 70.135 111.482 70.135ZM111.482 68.65C111.922 68.65 112.332 68.545 112.712 68.335C113.102 68.125 113.417 67.81 113.657 67.39C113.897 66.97 114.017 66.46 114.017 65.86C114.017 65.26 113.902 64.755 113.672 64.345C113.442 63.925 113.137 63.61 112.757 63.4C112.377 63.19 111.967 63.085 111.527 63.085C111.087 63.085 110.677 63.19 110.297 63.4C109.927 63.61 109.632 63.925 109.412 64.345C109.192 64.755 109.082 65.26 109.082 65.86C109.082 66.75 109.307 67.44 109.757 67.93C110.217 68.41 110.792 68.65 111.482 68.65ZM119.173 62.935C119.423 62.515 119.753 62.19 120.163 61.96C120.583 61.72 121.078 61.6 121.648 61.6V63.37H121.213C120.543 63.37 120.033 63.54 119.683 63.88C119.343 64.22 119.173 64.81 119.173 65.65V70H117.463V61.735H119.173V62.935ZM133.225 61.6C133.875 61.6 134.455 61.735 134.965 62.005C135.485 62.275 135.89 62.675 136.18 63.205C136.48 63.735 136.63 64.375 136.63 65.125V70H134.935V65.38C134.935 64.64 134.75 64.075 134.38 63.685C134.01 63.285 133.505 63.085 132.865 63.085C132.225 63.085 131.715 63.285 131.335 63.685C130.965 64.075 130.78 64.64 130.78 65.38V70H129.085V65.38C129.085 64.64 128.9 64.075 128.53 63.685C128.16 63.285 127.655 63.085 127.015 63.085C126.375 63.085 125.865 63.285 125.485 63.685C125.115 64.075 124.93 64.64 124.93 65.38V70H123.22V61.735H124.93V62.68C125.21 62.34 125.565 62.075 125.995 61.885C126.425 61.695 126.885 61.6 127.375 61.6C128.035 61.6 128.625 61.74 129.145 62.02C129.665 62.3 130.065 62.705 130.345 63.235C130.595 62.735 130.985 62.34 131.515 62.05C132.045 61.75 132.615 61.6 133.225 61.6ZM138.236 65.83C138.236 65 138.406 64.265 138.746 63.625C139.096 62.985 139.566 62.49 140.156 62.14C140.756 61.78 141.416 61.6 142.136 61.6C142.786 61.6 143.351 61.73 143.831 61.99C144.321 62.24 144.711 62.555 145.001 62.935V61.735H146.726V70H145.001V68.77C144.711 69.16 144.316 69.485 143.816 69.745C143.316 70.005 142.746 70.135 142.106 70.135C141.396 70.135 140.746 69.955 140.156 69.595C139.566 69.225 139.096 68.715 138.746 68.065C138.406 67.405 138.236 66.66 138.236 65.83ZM145.001 65.86C145.001 65.29 144.881 64.795 144.641 64.375C144.411 63.955 144.106 63.635 143.726 63.415C143.346 63.195 142.936 63.085 142.496 63.085C142.056 63.085 141.646 63.195 141.266 63.415C140.886 63.625 140.576 63.94 140.336 64.36C140.106 64.77 139.991 65.26 139.991 65.83C139.991 66.4 140.106 66.9 140.336 67.33C140.576 67.76 140.886 68.09 141.266 68.32C141.656 68.54 142.066 68.65 142.496 68.65C142.936 68.65 143.346 68.54 143.726 68.32C144.106 68.1 144.411 67.78 144.641 67.36C144.881 66.93 145.001 66.43 145.001 65.86ZM150.967 63.13V67.705C150.967 68.015 151.037 68.24 151.177 68.38C151.327 68.51 151.577 68.575 151.927 68.575H152.977V70H151.627C150.857 70 150.267 69.82 149.857 69.46C149.447 69.1 149.242 68.515 149.242 67.705V63.13H148.267V61.735H149.242V59.68H150.967V61.735H152.977V63.13H150.967ZM155.423 60.64C155.113 60.64 154.853 60.535 154.643 60.325C154.433 60.115 154.328 59.855 154.328 59.545C154.328 59.235 154.433 58.975 154.643 58.765C154.853 58.555 155.113 58.45 155.423 58.45C155.723 58.45 155.978 58.555 156.188 58.765C156.398 58.975 156.503 59.235 156.503 59.545C156.503 59.855 156.398 60.115 156.188 60.325C155.978 60.535 155.723 60.64 155.423 60.64ZM156.263 61.735V70H154.553V61.735H156.263ZM157.938 65.83C157.938 65 158.108 64.265 158.448 63.625C158.798 62.985 159.268 62.49 159.858 62.14C160.458 61.78 161.123 61.6 161.853 61.6C162.493 61.6 163.058 61.73 163.548 61.99C164.048 62.25 164.433 62.565 164.703 62.935V61.735H166.428V73.93H164.703V68.8C164.433 69.17 164.043 69.485 163.533 69.745C163.023 70.005 162.443 70.135 161.793 70.135C161.083 70.135 160.433 69.955 159.843 69.595C159.263 69.225 158.798 68.715 158.448 68.065C158.108 67.405 157.938 66.66 157.938 65.83ZM164.703 65.86C164.703 65.29 164.583 64.795 164.343 64.375C164.113 63.955 163.808 63.635 163.428 63.415C163.048 63.195 162.638 63.085 162.198 63.085C161.758 63.085 161.348 63.195 160.968 63.415C160.588 63.625 160.278 63.94 160.038 64.36C159.808 64.77 159.693 65.26 159.693 65.83C159.693 66.4 159.808 66.9 160.038 67.33C160.278 67.76 160.588 68.09 160.968 68.32C161.358 68.54 161.768 68.65 162.198 68.65C162.638 68.65 163.048 68.54 163.428 68.32C163.808 68.1 164.113 67.78 164.343 67.36C164.583 66.93 164.703 66.43 164.703 65.86ZM176.159 61.735V70H174.449V69.025C174.179 69.365 173.824 69.635 173.384 69.835C172.954 70.025 172.494 70.12 172.004 70.12C171.354 70.12 170.769 69.985 170.249 69.715C169.739 69.445 169.334 69.045 169.034 68.515C168.744 67.985 168.599 67.345 168.599 66.595V61.735H170.294V66.34C170.294 67.08 170.479 67.65 170.849 68.05C171.219 68.44 171.724 68.635 172.364 68.635C173.004 68.635 173.509 68.44 173.879 68.05C174.259 67.65 174.449 67.08 174.449 66.34V61.735H176.159ZM185.99 65.665C185.99 65.975 185.97 66.255 185.93 66.505H179.615C179.665 67.165 179.91 67.695 180.35 68.095C180.79 68.495 181.33 68.695 181.97 68.695C182.89 68.695 183.54 68.31 183.92 67.54H185.765C185.515 68.3 185.06 68.925 184.4 69.415C183.75 69.895 182.94 70.135 181.97 70.135C181.18 70.135 180.47 69.96 179.84 69.61C179.22 69.25 178.73 68.75 178.37 68.11C178.02 67.46 177.845 66.71 177.845 65.86C177.845 65.01 178.015 64.265 178.355 63.625C178.705 62.975 179.19 62.475 179.81 62.125C180.44 61.775 181.16 61.6 181.97 61.6C182.75 61.6 183.445 61.77 184.055 62.11C184.665 62.45 185.14 62.93 185.48 63.55C185.82 64.16 185.99 64.865 185.99 65.665ZM184.205 65.125C184.195 64.495 183.97 63.99 183.53 63.61C183.09 63.23 182.545 63.04 181.895 63.04C181.305 63.04 180.8 63.23 180.38 63.61C179.96 63.98 179.71 64.485 179.63 65.125H184.205ZM190.673 70.135C190.023 70.135 189.438 70.02 188.918 69.79C188.408 69.55 188.003 69.23 187.703 68.83C187.403 68.42 187.243 67.965 187.223 67.465H188.993C189.023 67.815 189.188 68.11 189.488 68.35C189.798 68.58 190.183 68.695 190.643 68.695C191.123 68.695 191.493 68.605 191.753 68.425C192.023 68.235 192.158 67.995 192.158 67.705C192.158 67.395 192.008 67.165 191.708 67.015C191.418 66.865 190.953 66.7 190.313 66.52C189.693 66.35 189.188 66.185 188.798 66.025C188.408 65.865 188.068 65.62 187.778 65.29C187.498 64.96 187.358 64.525 187.358 63.985C187.358 63.545 187.488 63.145 187.748 62.785C188.008 62.415 188.378 62.125 188.858 61.915C189.348 61.705 189.908 61.6 190.538 61.6C191.478 61.6 192.233 61.84 192.803 62.32C193.383 62.79 193.693 63.435 193.733 64.255H192.023C191.993 63.885 191.843 63.59 191.573 63.37C191.303 63.15 190.938 63.04 190.478 63.04C190.028 63.04 189.683 63.125 189.443 63.295C189.203 63.465 189.083 63.69 189.083 63.97C189.083 64.19 189.163 64.375 189.323 64.525C189.483 64.675 189.678 64.795 189.908 64.885C190.138 64.965 190.478 65.07 190.928 65.2C191.528 65.36 192.018 65.525 192.398 65.695C192.788 65.855 193.123 66.095 193.403 66.415C193.683 66.735 193.828 67.16 193.838 67.69C193.838 68.16 193.708 68.58 193.448 68.95C193.188 69.32 192.818 69.61 192.338 69.82C191.868 70.03 191.313 70.135 190.673 70.135Z" fill="black"/>
<path d="M27.06 146.105C26.36 146.105 25.73 145.985 25.17 145.745C24.61 145.495 24.17 145.145 23.85 144.695C23.53 144.245 23.37 143.72 23.37 143.12H25.2C25.24 143.57 25.415 143.94 25.725 144.23C26.045 144.52 26.49 144.665 27.06 144.665C27.65 144.665 28.11 144.525 28.44 144.245C28.77 143.955 28.935 143.585 28.935 143.135C28.935 142.785 28.83 142.5 28.62 142.28C28.42 142.06 28.165 141.89 27.855 141.77C27.555 141.65 27.135 141.52 26.595 141.38C25.915 141.2 25.36 141.02 24.93 140.84C24.51 140.65 24.15 140.36 23.85 139.97C23.55 139.58 23.4 139.06 23.4 138.41C23.4 137.81 23.55 137.285 23.85 136.835C24.15 136.385 24.57 136.04 25.11 135.8C25.65 135.56 26.275 135.44 26.985 135.44C27.995 135.44 28.82 135.695 29.46 136.205C30.11 136.705 30.47 137.395 30.54 138.275H28.65C28.62 137.895 28.44 137.57 28.11 137.3C27.78 137.03 27.345 136.895 26.805 136.895C26.315 136.895 25.915 137.02 25.605 137.27C25.295 137.52 25.14 137.88 25.14 138.35C25.14 138.67 25.235 138.935 25.425 139.145C25.625 139.345 25.875 139.505 26.175 139.625C26.475 139.745 26.885 139.875 27.405 140.015C28.095 140.205 28.655 140.395 29.085 140.585C29.525 140.775 29.895 141.07 30.195 141.47C30.505 141.86 30.66 142.385 30.66 143.045C30.66 143.575 30.515 144.075 30.225 144.545C29.945 145.015 29.53 145.395 28.98 145.685C28.44 145.965 27.8 146.105 27.06 146.105ZM40.1627 137.735V146H38.4527V145.025C38.1827 145.365 37.8277 145.635 37.3877 145.835C36.9577 146.025 36.4977 146.12 36.0077 146.12C35.3577 146.12 34.7727 145.985 34.2527 145.715C33.7427 145.445 33.3377 145.045 33.0377 144.515C32.7477 143.985 32.6027 143.345 32.6027 142.595V137.735H34.2977V142.34C34.2977 143.08 34.4827 143.65 34.8527 144.05C35.2227 144.44 35.7277 144.635 36.3677 144.635C37.0077 144.635 37.5127 144.44 37.8827 144.05C38.2627 143.65 38.4527 143.08 38.4527 142.34V137.735H40.1627ZM44.1289 138.95C44.4189 138.57 44.8139 138.25 45.3139 137.99C45.8139 137.73 46.3789 137.6 47.0089 137.6C47.7289 137.6 48.3839 137.78 48.9739 138.14C49.5739 138.49 50.0439 138.985 50.3839 139.625C50.7239 140.265 50.8939 141 50.8939 141.83C50.8939 142.66 50.7239 143.405 50.3839 144.065C50.0439 144.715 49.5739 145.225 48.9739 145.595C48.3839 145.955 47.7289 146.135 47.0089 146.135C46.3789 146.135 45.8189 146.01 45.3289 145.76C44.8389 145.5 44.4389 145.18 44.1289 144.8V149.93H42.4189V137.735H44.1289V138.95ZM49.1539 141.83C49.1539 141.26 49.0339 140.77 48.7939 140.36C48.5639 139.94 48.2539 139.625 47.8639 139.415C47.4839 139.195 47.0739 139.085 46.6339 139.085C46.2039 139.085 45.7939 139.195 45.4039 139.415C45.0239 139.635 44.7139 139.955 44.4739 140.375C44.2439 140.795 44.1289 141.29 44.1289 141.86C44.1289 142.43 44.2439 142.93 44.4739 143.36C44.7139 143.78 45.0239 144.1 45.4039 144.32C45.7939 144.54 46.2039 144.65 46.6339 144.65C47.0739 144.65 47.4839 144.54 47.8639 144.32C48.2539 144.09 48.5639 143.76 48.7939 143.33C49.0339 142.9 49.1539 142.4 49.1539 141.83ZM54.295 138.95C54.585 138.57 54.98 138.25 55.48 137.99C55.98 137.73 56.545 137.6 57.175 137.6C57.895 137.6 58.55 137.78 59.14 138.14C59.74 138.49 60.21 138.985 60.55 139.625C60.89 140.265 61.06 141 61.06 141.83C61.06 142.66 60.89 143.405 60.55 144.065C60.21 144.715 59.74 145.225 59.14 145.595C58.55 145.955 57.895 146.135 57.175 146.135C56.545 146.135 55.985 146.01 55.495 145.76C55.005 145.5 54.605 145.18 54.295 144.8V149.93H52.585V137.735H54.295V138.95ZM59.32 141.83C59.32 141.26 59.2 140.77 58.96 140.36C58.73 139.94 58.42 139.625 58.03 139.415C57.65 139.195 57.24 139.085 56.8 139.085C56.37 139.085 55.96 139.195 55.57 139.415C55.19 139.635 54.88 139.955 54.64 140.375C54.41 140.795 54.295 141.29 54.295 141.86C54.295 142.43 54.41 142.93 54.64 143.36C54.88 143.78 55.19 144.1 55.57 144.32C55.96 144.54 56.37 144.65 56.8 144.65C57.24 144.65 57.65 144.54 58.03 144.32C58.42 144.09 58.73 143.76 58.96 143.33C59.2 142.9 59.32 142.4 59.32 141.83ZM64.461 134.9V146H62.751V134.9H64.461ZM74.2811 141.665C74.2811 141.975 74.2611 142.255 74.2211 142.505H67.9061C67.9561 143.165 68.2011 143.695 68.6411 144.095C69.0811 144.495 69.6211 144.695 70.2611 144.695C71.1811 144.695 71.8311 144.31 72.2111 143.54H74.0561C73.8061 144.3 73.3511 144.925 72.6911 145.415C72.0411 145.895 71.2311 146.135 70.2611 146.135C69.4711 146.135 68.7611 145.96 68.1311 145.61C67.5111 145.25 67.0211 144.75 66.6611 144.11C66.3111 143.46 66.1361 142.71 66.1361 141.86C66.1361 141.01 66.3061 140.265 66.6461 139.625C66.9961 138.975 67.4811 138.475 68.1011 138.125C68.7311 137.775 69.4511 137.6 70.2611 137.6C71.0411 137.6 71.7361 137.77 72.3461 138.11C72.9561 138.45 73.4311 138.93 73.7711 139.55C74.1111 140.16 74.2811 140.865 74.2811 141.665ZM72.4961 141.125C72.4861 140.495 72.2611 139.99 71.8211 139.61C71.3811 139.23 70.8361 139.04 70.1861 139.04C69.5961 139.04 69.0911 139.23 68.6711 139.61C68.2511 139.98 68.0011 140.485 67.9211 141.125H72.4961ZM71.7611 135.515L68.4461 137.15V135.89L71.7611 134.06V135.515ZM85.9689 137.6C86.6189 137.6 87.1989 137.735 87.7089 138.005C88.2289 138.275 88.6339 138.675 88.9239 139.205C89.2239 139.735 89.3739 140.375 89.3739 141.125V146H87.6789V141.38C87.6789 140.64 87.4939 140.075 87.1239 139.685C86.7539 139.285 86.2489 139.085 85.6089 139.085C84.9689 139.085 84.4589 139.285 84.0789 139.685C83.7089 140.075 83.5239 140.64 83.5239 141.38V146H81.8289V141.38C81.8289 140.64 81.6439 140.075 81.2739 139.685C80.9039 139.285 80.3989 139.085 79.7589 139.085C79.1189 139.085 78.6089 139.285 78.2289 139.685C77.8589 140.075 77.6739 140.64 77.6739 141.38V146H75.9639V137.735H77.6739V138.68C77.9539 138.34 78.3089 138.075 78.7389 137.885C79.1689 137.695 79.6289 137.6 80.1189 137.6C80.7789 137.6 81.3689 137.74 81.8889 138.02C82.4089 138.3 82.8089 138.705 83.0889 139.235C83.3389 138.735 83.7289 138.34 84.2589 138.05C84.7889 137.75 85.3589 137.6 85.9689 137.6ZM99.1248 141.665C99.1248 141.975 99.1048 142.255 99.0648 142.505H92.7498C92.7998 143.165 93.0448 143.695 93.4848 144.095C93.9248 144.495 94.4648 144.695 95.1048 144.695C96.0248 144.695 96.6748 144.31 97.0548 143.54H98.8998C98.6498 144.3 98.1948 144.925 97.5348 145.415C96.8848 145.895 96.0748 146.135 95.1048 146.135C94.3148 146.135 93.6048 145.96 92.9748 145.61C92.3548 145.25 91.8648 144.75 91.5048 144.11C91.1548 143.46 90.9798 142.71 90.9798 141.86C90.9798 141.01 91.1498 140.265 91.4898 139.625C91.8398 138.975 92.3248 138.475 92.9448 138.125C93.5748 137.775 94.2948 137.6 95.1048 137.6C95.8848 137.6 96.5798 137.77 97.1898 138.11C97.7998 138.45 98.2748 138.93 98.6148 139.55C98.9548 140.16 99.1248 140.865 99.1248 141.665ZM97.3398 141.125C97.3298 140.495 97.1048 139.99 96.6648 139.61C96.2248 139.23 95.6798 139.04 95.0298 139.04C94.4398 139.04 93.9348 139.23 93.5148 139.61C93.0948 139.98 92.8448 140.485 92.7648 141.125H97.3398ZM104.978 137.6C105.628 137.6 106.208 137.735 106.718 138.005C107.238 138.275 107.643 138.675 107.933 139.205C108.223 139.735 108.368 140.375 108.368 141.125V146H106.673V141.38C106.673 140.64 106.488 140.075 106.118 139.685C105.748 139.285 105.243 139.085 104.603 139.085C103.963 139.085 103.453 139.285 103.073 139.685C102.703 140.075 102.518 140.64 102.518 141.38V146H100.808V137.735H102.518V138.68C102.798 138.34 103.153 138.075 103.583 137.885C104.023 137.695 104.488 137.6 104.978 137.6ZM112.544 139.13V143.705C112.544 144.015 112.614 144.24 112.754 144.38C112.904 144.51 113.154 144.575 113.504 144.575H114.554V146H113.204C112.434 146 111.844 145.82 111.434 145.46C111.024 145.1 110.819 144.515 110.819 143.705V139.13H109.844V137.735H110.819V135.68H112.544V137.735H114.554V139.13H112.544ZM119.13 146.135C118.48 146.135 117.895 146.02 117.375 145.79C116.865 145.55 116.46 145.23 116.16 144.83C115.86 144.42 115.7 143.965 115.68 143.465H117.45C117.48 143.815 117.645 144.11 117.945 144.35C118.255 144.58 118.64 144.695 119.1 144.695C119.58 144.695 119.95 144.605 120.21 144.425C120.48 144.235 120.615 143.995 120.615 143.705C120.615 143.395 120.465 143.165 120.165 143.015C119.875 142.865 119.41 142.7 118.77 142.52C118.15 142.35 117.645 142.185 117.255 142.025C116.865 141.865 116.525 141.62 116.235 141.29C115.955 140.96 115.815 140.525 115.815 139.985C115.815 139.545 115.945 139.145 116.205 138.785C116.465 138.415 116.835 138.125 117.315 137.915C117.805 137.705 118.365 137.6 118.995 137.6C119.935 137.6 120.69 137.84 121.26 138.32C121.84 138.79 122.15 139.435 122.19 140.255H120.48C120.45 139.885 120.3 139.59 120.03 139.37C119.76 139.15 119.395 139.04 118.935 139.04C118.485 139.04 118.14 139.125 117.9 139.295C117.66 139.465 117.54 139.69 117.54 139.97C117.54 140.19 117.62 140.375 117.78 140.525C117.94 140.675 118.135 140.795 118.365 140.885C118.595 140.965 118.935 141.07 119.385 141.2C119.985 141.36 120.475 141.525 120.855 141.695C121.245 141.855 121.58 142.095 121.86 142.415C122.14 142.735 122.285 143.16 122.295 143.69C122.295 144.16 122.165 144.58 121.905 144.95C121.645 145.32 121.275 145.61 120.795 145.82C120.325 146.03 119.77 146.135 119.13 146.135ZM130.633 146.14C130.22 146.14 129.873 146 129.593 145.72C129.313 145.44 129.173 145.093 129.173 144.68C129.173 144.267 129.313 143.92 129.593 143.64C129.873 143.36 130.22 143.22 130.633 143.22C131.033 143.22 131.373 143.36 131.653 143.64C131.933 143.92 132.073 144.267 132.073 144.68C132.073 145.093 131.933 145.44 131.653 145.72C131.373 146 131.033 146.14 130.633 146.14ZM130.633 137.74C130.22 137.74 129.873 137.6 129.593 137.32C129.313 137.04 129.173 136.693 129.173 136.28C129.173 135.867 129.313 135.52 129.593 135.24C129.873 134.96 130.22 134.82 130.633 134.82C131.033 134.82 131.373 134.96 131.653 135.24C131.933 135.52 132.073 135.867 132.073 136.28C132.073 136.693 131.933 137.04 131.653 137.32C131.373 137.6 131.033 137.74 130.633 137.74Z" fill="black"/>
<path d="M30.915 217.68C30.915 218.21 30.79 218.71 30.54 219.18C30.29 219.65 29.89 220.035 29.34 220.335C28.79 220.625 28.085 220.77 27.225 220.77H25.335V225H23.625V214.575H27.225C28.025 214.575 28.7 214.715 29.25 214.995C29.81 215.265 30.225 215.635 30.495 216.105C30.775 216.575 30.915 217.1 30.915 217.68ZM27.225 219.375C27.875 219.375 28.36 219.23 28.68 218.94C29 218.64 29.16 218.22 29.16 217.68C29.16 216.54 28.515 215.97 27.225 215.97H25.335V219.375H27.225ZM34.2559 217.935C34.5059 217.515 34.8359 217.19 35.2459 216.96C35.6659 216.72 36.1609 216.6 36.7309 216.6V218.37H36.2959C35.6259 218.37 35.1159 218.54 34.7659 218.88C34.4259 219.22 34.2559 219.81 34.2559 220.65V225H32.5459V216.735H34.2559V217.935ZM41.8877 225.135C41.1077 225.135 40.4027 224.96 39.7727 224.61C39.1427 224.25 38.6477 223.75 38.2877 223.11C37.9277 222.46 37.7477 221.71 37.7477 220.86C37.7477 220.02 37.9327 219.275 38.3027 218.625C38.6727 217.975 39.1777 217.475 39.8177 217.125C40.4577 216.775 41.1727 216.6 41.9627 216.6C42.7527 216.6 43.4677 216.775 44.1077 217.125C44.7477 217.475 45.2527 217.975 45.6227 218.625C45.9927 219.275 46.1777 220.02 46.1777 220.86C46.1777 221.7 45.9877 222.445 45.6077 223.095C45.2277 223.745 44.7077 224.25 44.0477 224.61C43.3977 224.96 42.6777 225.135 41.8877 225.135ZM41.8877 223.65C42.3277 223.65 42.7377 223.545 43.1177 223.335C43.5077 223.125 43.8227 222.81 44.0627 222.39C44.3027 221.97 44.4227 221.46 44.4227 220.86C44.4227 220.26 44.3077 219.755 44.0777 219.345C43.8477 218.925 43.5427 218.61 43.1627 218.4C42.7827 218.19 42.3727 218.085 41.9327 218.085C41.4927 218.085 41.0827 218.19 40.7027 218.4C40.3327 218.61 40.0377 218.925 39.8177 219.345C39.5977 219.755 39.4877 220.26 39.4877 220.86C39.4877 221.75 39.7127 222.44 40.1627 222.93C40.6227 223.41 41.1977 223.65 41.8877 223.65ZM47.2982 220.83C47.2982 220 47.4682 219.265 47.8082 218.625C48.1582 217.985 48.6282 217.49 49.2182 217.14C49.8182 216.78 50.4832 216.6 51.2132 216.6C51.7532 216.6 52.2832 216.72 52.8032 216.96C53.3332 217.19 53.7532 217.5 54.0632 217.89V213.9H55.7882V225H54.0632V223.755C53.7832 224.155 53.3932 224.485 52.8932 224.745C52.4032 225.005 51.8382 225.135 51.1982 225.135C50.4782 225.135 49.8182 224.955 49.2182 224.595C48.6282 224.225 48.1582 223.715 47.8082 223.065C47.4682 222.405 47.2982 221.66 47.2982 220.83ZM54.0632 220.86C54.0632 220.29 53.9432 219.795 53.7032 219.375C53.4732 218.955 53.1682 218.635 52.7882 218.415C52.4082 218.195 51.9982 218.085 51.5582 218.085C51.1182 218.085 50.7082 218.195 50.3282 218.415C49.9482 218.625 49.6382 218.94 49.3982 219.36C49.1682 219.77 49.0532 220.26 49.0532 220.83C49.0532 221.4 49.1682 221.9 49.3982 222.33C49.6382 222.76 49.9482 223.09 50.3282 223.32C50.7182 223.54 51.1282 223.65 51.5582 223.65C51.9982 223.65 52.4082 223.54 52.7882 223.32C53.1682 223.1 53.4732 222.78 53.7032 222.36C53.9432 221.93 54.0632 221.43 54.0632 220.86ZM65.5192 216.735V225H63.8092V224.025C63.5392 224.365 63.1842 224.635 62.7442 224.835C62.3142 225.025 61.8542 225.12 61.3642 225.12C60.7142 225.12 60.1292 224.985 59.6092 224.715C59.0992 224.445 58.6942 224.045 58.3942 223.515C58.1042 222.985 57.9592 222.345 57.9592 221.595V216.735H59.6542V221.34C59.6542 222.08 59.8392 222.65 60.2092 223.05C60.5792 223.44 61.0842 223.635 61.7242 223.635C62.3642 223.635 62.8692 223.44 63.2392 223.05C63.6192 222.65 63.8092 222.08 63.8092 221.34V216.735H65.5192ZM68.6454 215.64C68.3354 215.64 68.0754 215.535 67.8654 215.325C67.6554 215.115 67.5504 214.855 67.5504 214.545C67.5504 214.235 67.6554 213.975 67.8654 213.765C68.0754 213.555 68.3354 213.45 68.6454 213.45C68.9454 213.45 69.2004 213.555 69.4104 213.765C69.6204 213.975 69.7254 214.235 69.7254 214.545C69.7254 214.855 69.6204 215.115 69.4104 215.325C69.2004 215.535 68.9454 215.64 68.6454 215.64ZM69.4854 216.735V225H67.7754V216.735H69.4854ZM73.7255 218.13V222.705C73.7255 223.015 73.7955 223.24 73.9355 223.38C74.0855 223.51 74.3355 223.575 74.6855 223.575H75.7355V225H74.3855C73.6155 225 73.0255 224.82 72.6155 224.46C72.2055 224.1 72.0005 223.515 72.0005 222.705V218.13H71.0255V216.735H72.0005V214.68H73.7255V216.735H75.7355V218.13H73.7255ZM80.3115 225.135C79.6615 225.135 79.0765 225.02 78.5565 224.79C78.0465 224.55 77.6415 224.23 77.3415 223.83C77.0415 223.42 76.8815 222.965 76.8615 222.465H78.6315C78.6615 222.815 78.8265 223.11 79.1265 223.35C79.4365 223.58 79.8215 223.695 80.2815 223.695C80.7615 223.695 81.1315 223.605 81.3915 223.425C81.6615 223.235 81.7965 222.995 81.7965 222.705C81.7965 222.395 81.6465 222.165 81.3465 222.015C81.0565 221.865 80.5915 221.7 79.9515 221.52C79.3315 221.35 78.8265 221.185 78.4365 221.025C78.0465 220.865 77.7065 220.62 77.4165 220.29C77.1365 219.96 76.9965 219.525 76.9965 218.985C76.9965 218.545 77.1265 218.145 77.3865 217.785C77.6465 217.415 78.0165 217.125 78.4965 216.915C78.9865 216.705 79.5465 216.6 80.1765 216.6C81.1165 216.6 81.8715 216.84 82.4415 217.32C83.0215 217.79 83.3315 218.435 83.3715 219.255H81.6615C81.6315 218.885 81.4815 218.59 81.2115 218.37C80.9415 218.15 80.5765 218.04 80.1165 218.04C79.6665 218.04 79.3215 218.125 79.0815 218.295C78.8415 218.465 78.7215 218.69 78.7215 218.97C78.7215 219.19 78.8015 219.375 78.9615 219.525C79.1215 219.675 79.3165 219.795 79.5465 219.885C79.7765 219.965 80.1165 220.07 80.5665 220.2C81.1665 220.36 81.6565 220.525 82.0365 220.695C82.4265 220.855 82.7615 221.095 83.0415 221.415C83.3215 221.735 83.4665 222.16 83.4765 222.69C83.4765 223.16 83.3465 223.58 83.0865 223.95C82.8265 224.32 82.4565 224.61 81.9765 224.82C81.5065 225.03 80.9515 225.135 80.3115 225.135ZM90.9307 217.95C91.2207 217.57 91.6157 217.25 92.1157 216.99C92.6157 216.73 93.1807 216.6 93.8107 216.6C94.5307 216.6 95.1857 216.78 95.7757 217.14C96.3757 217.49 96.8457 217.985 97.1857 218.625C97.5257 219.265 97.6957 220 97.6957 220.83C97.6957 221.66 97.5257 222.405 97.1857 223.065C96.8457 223.715 96.3757 224.225 95.7757 224.595C95.1857 224.955 94.5307 225.135 93.8107 225.135C93.1807 225.135 92.6207 225.01 92.1307 224.76C91.6407 224.5 91.2407 224.18 90.9307 223.8V228.93H89.2207V216.735H90.9307V217.95ZM95.9557 220.83C95.9557 220.26 95.8357 219.77 95.5957 219.36C95.3657 218.94 95.0557 218.625 94.6657 218.415C94.2857 218.195 93.8757 218.085 93.4357 218.085C93.0057 218.085 92.5957 218.195 92.2057 218.415C91.8257 218.635 91.5157 218.955 91.2757 219.375C91.0457 219.795 90.9307 220.29 90.9307 220.86C90.9307 221.43 91.0457 221.93 91.2757 222.36C91.5157 222.78 91.8257 223.1 92.2057 223.32C92.5957 223.54 93.0057 223.65 93.4357 223.65C93.8757 223.65 94.2857 223.54 94.6657 223.32C95.0557 223.09 95.3657 222.76 95.5957 222.33C95.8357 221.9 95.9557 221.4 95.9557 220.83ZM103.662 216.6C104.292 216.6 104.852 216.735 105.342 217.005C105.842 217.275 106.232 217.675 106.512 218.205C106.802 218.735 106.947 219.375 106.947 220.125V225H105.252V220.38C105.252 219.64 105.067 219.075 104.697 218.685C104.327 218.285 103.822 218.085 103.182 218.085C102.542 218.085 102.032 218.285 101.652 218.685C101.282 219.075 101.097 219.64 101.097 220.38V225H99.3867V213.9H101.097V217.695C101.387 217.345 101.752 217.075 102.192 216.885C102.642 216.695 103.132 216.6 103.662 216.6ZM108.558 220.83C108.558 220 108.728 219.265 109.068 218.625C109.418 217.985 109.888 217.49 110.478 217.14C111.078 216.78 111.738 216.6 112.458 216.6C113.108 216.6 113.673 216.73 114.153 216.99C114.643 217.24 115.033 217.555 115.323 217.935V216.735H117.048V225H115.323V223.77C115.033 224.16 114.638 224.485 114.138 224.745C113.638 225.005 113.068 225.135 112.428 225.135C111.718 225.135 111.068 224.955 110.478 224.595C109.888 224.225 109.418 223.715 109.068 223.065C108.728 222.405 108.558 221.66 108.558 220.83ZM115.323 220.86C115.323 220.29 115.203 219.795 114.963 219.375C114.733 218.955 114.428 218.635 114.048 218.415C113.668 218.195 113.258 218.085 112.818 218.085C112.378 218.085 111.968 218.195 111.588 218.415C111.208 218.625 110.898 218.94 110.658 219.36C110.428 219.77 110.313 220.26 110.313 220.83C110.313 221.4 110.428 221.9 110.658 222.33C110.898 222.76 111.208 223.09 111.588 223.32C111.978 223.54 112.388 223.65 112.818 223.65C113.258 223.65 113.668 223.54 114.048 223.32C114.428 223.1 114.733 222.78 114.963 222.36C115.203 221.93 115.323 221.43 115.323 220.86ZM121.004 217.935C121.254 217.515 121.584 217.19 121.994 216.96C122.414 216.72 122.909 216.6 123.479 216.6V218.37H123.044C122.374 218.37 121.864 218.54 121.514 218.88C121.174 219.22 121.004 219.81 121.004 220.65V225H119.294V216.735H121.004V217.935ZM135.056 216.6C135.706 216.6 136.286 216.735 136.796 217.005C137.316 217.275 137.721 217.675 138.011 218.205C138.311 218.735 138.461 219.375 138.461 220.125V225H136.766V220.38C136.766 219.64 136.581 219.075 136.211 218.685C135.841 218.285 135.336 218.085 134.696 218.085C134.056 218.085 133.546 218.285 133.166 218.685C132.796 219.075 132.611 219.64 132.611 220.38V225H130.916V220.38C130.916 219.64 130.731 219.075 130.361 218.685C129.991 218.285 129.486 218.085 128.846 218.085C128.206 218.085 127.696 218.285 127.316 218.685C126.946 219.075 126.761 219.64 126.761 220.38V225H125.051V216.735H126.761V217.68C127.041 217.34 127.396 217.075 127.826 216.885C128.256 216.695 128.716 216.6 129.206 216.6C129.866 216.6 130.456 216.74 130.976 217.02C131.496 217.3 131.896 217.705 132.176 218.235C132.426 217.735 132.816 217.34 133.346 217.05C133.876 216.75 134.446 216.6 135.056 216.6ZM140.067 220.83C140.067 220 140.237 219.265 140.577 218.625C140.927 217.985 141.397 217.49 141.987 217.14C142.587 216.78 143.247 216.6 143.967 216.6C144.617 216.6 145.182 216.73 145.662 216.99C146.152 217.24 146.542 217.555 146.832 217.935V216.735H148.557V225H146.832V223.77C146.542 224.16 146.147 224.485 145.647 224.745C145.147 225.005 144.577 225.135 143.937 225.135C143.227 225.135 142.577 224.955 141.987 224.595C141.397 224.225 140.927 223.715 140.577 223.065C140.237 222.405 140.067 221.66 140.067 220.83ZM146.832 220.86C146.832 220.29 146.712 219.795 146.472 219.375C146.242 218.955 145.937 218.635 145.557 218.415C145.177 218.195 144.767 218.085 144.327 218.085C143.887 218.085 143.477 218.195 143.097 218.415C142.717 218.625 142.407 218.94 142.167 219.36C141.937 219.77 141.822 220.26 141.822 220.83C141.822 221.4 141.937 221.9 142.167 222.33C142.407 222.76 142.717 223.09 143.097 223.32C143.487 223.54 143.897 223.65 144.327 223.65C144.767 223.65 145.177 223.54 145.557 223.32C145.937 223.1 146.242 222.78 146.472 222.36C146.712 221.93 146.832 221.43 146.832 220.86ZM150.233 220.86C150.233 220.01 150.403 219.265 150.743 218.625C151.093 217.975 151.573 217.475 152.183 217.125C152.793 216.775 153.493 216.6 154.283 216.6C155.283 216.6 156.108 216.84 156.758 217.32C157.418 217.79 157.863 218.465 158.093 219.345H156.248C156.098 218.935 155.858 218.615 155.528 218.385C155.198 218.155 154.783 218.04 154.283 218.04C153.583 218.04 153.023 218.29 152.603 218.79C152.193 219.28 151.988 219.97 151.988 220.86C151.988 221.75 152.193 222.445 152.603 222.945C153.023 223.445 153.583 223.695 154.283 223.695C155.273 223.695 155.928 223.26 156.248 222.39H158.093C157.853 223.23 157.403 223.9 156.743 224.4C156.083 224.89 155.263 225.135 154.283 225.135C153.493 225.135 152.793 224.96 152.183 224.61C151.573 224.25 151.093 223.75 150.743 223.11C150.403 222.46 150.233 221.71 150.233 220.86ZM167.372 220.665C167.372 220.975 167.352 221.255 167.312 221.505H160.997C161.047 222.165 161.292 222.695 161.732 223.095C162.172 223.495 162.712 223.695 163.352 223.695C164.272 223.695 164.922 223.31 165.302 222.54H167.147C166.897 223.3 166.442 223.925 165.782 224.415C165.132 224.895 164.322 225.135 163.352 225.135C162.562 225.135 161.852 224.96 161.222 224.61C160.602 224.25 160.112 223.75 159.752 223.11C159.402 222.46 159.227 221.71 159.227 220.86C159.227 220.01 159.397 219.265 159.737 218.625C160.087 217.975 160.572 217.475 161.192 217.125C161.822 216.775 162.542 216.6 163.352 216.6C164.132 216.6 164.827 216.77 165.437 217.11C166.047 217.45 166.522 217.93 166.862 218.55C167.202 219.16 167.372 219.865 167.372 220.665ZM165.587 220.125C165.577 219.495 165.352 218.99 164.912 218.61C164.472 218.23 163.927 218.04 163.277 218.04C162.687 218.04 162.182 218.23 161.762 218.61C161.342 218.98 161.092 219.485 161.012 220.125H165.587ZM176.54 216.735V225H174.83V224.025C174.56 224.365 174.205 224.635 173.765 224.835C173.335 225.025 172.875 225.12 172.385 225.12C171.735 225.12 171.15 224.985 170.63 224.715C170.12 224.445 169.715 224.045 169.415 223.515C169.125 222.985 168.98 222.345 168.98 221.595V216.735H170.675V221.34C170.675 222.08 170.86 222.65 171.23 223.05C171.6 223.44 172.105 223.635 172.745 223.635C173.385 223.635 173.89 223.44 174.26 223.05C174.64 222.65 174.83 222.08 174.83 221.34V216.735H176.54ZM180.791 218.13V222.705C180.791 223.015 180.861 223.24 181.001 223.38C181.151 223.51 181.401 223.575 181.751 223.575H182.801V225H181.451C180.681 225 180.091 224.82 179.681 224.46C179.271 224.1 179.066 223.515 179.066 222.705V218.13H178.091V216.735H179.066V214.68H180.791V216.735H182.801V218.13H180.791ZM185.247 215.64C184.937 215.64 184.677 215.535 184.467 215.325C184.257 215.115 184.152 214.855 184.152 214.545C184.152 214.235 184.257 213.975 184.467 213.765C184.677 213.555 184.937 213.45 185.247 213.45C185.547 213.45 185.802 213.555 186.012 213.765C186.222 213.975 186.327 214.235 186.327 214.545C186.327 214.855 186.222 215.115 186.012 215.325C185.802 215.535 185.547 215.64 185.247 215.64ZM186.087 216.735V225H184.377V216.735H186.087ZM187.762 220.83C187.762 220 187.932 219.265 188.272 218.625C188.622 217.985 189.092 217.49 189.682 217.14C190.282 216.78 190.947 216.6 191.677 216.6C192.317 216.6 192.882 216.73 193.372 216.99C193.872 217.25 194.257 217.565 194.527 217.935V216.735H196.252V228.93H194.527V223.8C194.257 224.17 193.867 224.485 193.357 224.745C192.847 225.005 192.267 225.135 191.617 225.135C190.907 225.135 190.257 224.955 189.667 224.595C189.087 224.225 188.622 223.715 188.272 223.065C187.932 222.405 187.762 221.66 187.762 220.83ZM194.527 220.86C194.527 220.29 194.407 219.795 194.167 219.375C193.937 218.955 193.632 218.635 193.252 218.415C192.872 218.195 192.462 218.085 192.022 218.085C191.582 218.085 191.172 218.195 190.792 218.415C190.412 218.625 190.102 218.94 189.862 219.36C189.632 219.77 189.517 220.26 189.517 220.83C189.517 221.4 189.632 221.9 189.862 222.33C190.102 222.76 190.412 223.09 190.792 223.32C191.182 223.54 191.592 223.65 192.022 223.65C192.462 223.65 192.872 223.54 193.252 223.32C193.632 223.1 193.937 222.78 194.167 222.36C194.407 221.93 194.527 221.43 194.527 220.86ZM205.983 216.735V225H204.273V224.025C204.003 224.365 203.648 224.635 203.208 224.835C202.778 225.025 202.318 225.12 201.828 225.12C201.178 225.12 200.593 224.985 200.073 224.715C199.563 224.445 199.158 224.045 198.858 223.515C198.568 222.985 198.423 222.345 198.423 221.595V216.735H200.118V221.34C200.118 222.08 200.303 222.65 200.673 223.05C201.043 223.44 201.548 223.635 202.188 223.635C202.828 223.635 203.333 223.44 203.703 223.05C204.083 222.65 204.273 222.08 204.273 221.34V216.735H205.983ZM215.814 220.665C215.814 220.975 215.794 221.255 215.754 221.505H209.439C209.489 222.165 209.734 222.695 210.174 223.095C210.614 223.495 211.154 223.695 211.794 223.695C212.714 223.695 213.364 223.31 213.744 222.54H215.589C215.339 223.3 214.884 223.925 214.224 224.415C213.574 224.895 212.764 225.135 211.794 225.135C211.004 225.135 210.294 224.96 209.664 224.61C209.044 224.25 208.554 223.75 208.194 223.11C207.844 222.46 207.669 221.71 207.669 220.86C207.669 220.01 207.839 219.265 208.179 218.625C208.529 217.975 209.014 217.475 209.634 217.125C210.264 216.775 210.984 216.6 211.794 216.6C212.574 216.6 213.269 216.77 213.879 217.11C214.489 217.45 214.964 217.93 215.304 218.55C215.644 219.16 215.814 219.865 215.814 220.665ZM214.029 220.125C214.019 219.495 213.794 218.99 213.354 218.61C212.914 218.23 212.369 218.04 211.719 218.04C211.129 218.04 210.624 218.23 210.204 218.61C209.784 218.98 209.534 219.485 209.454 220.125H214.029Z" fill="black"/>
<path d="M123.608 296.454V297.786H120.188V309H118.55V297.786H115.112V296.454H123.608ZM125.012 304.032C125.012 303.024 125.216 302.142 125.624 301.386C126.032 300.618 126.59 300.024 127.298 299.604C128.018 299.184 128.816 298.974 129.692 298.974C130.556 298.974 131.306 299.16 131.942 299.532C132.578 299.904 133.052 300.372 133.364 300.936V299.136H135.02V309H133.364V307.164C133.04 307.74 132.554 308.22 131.906 308.604C131.27 308.976 130.526 309.162 129.674 309.162C128.798 309.162 128.006 308.946 127.298 308.514C126.59 308.082 126.032 307.476 125.624 306.696C125.216 305.916 125.012 305.028 125.012 304.032ZM133.364 304.05C133.364 303.306 133.214 302.658 132.914 302.106C132.614 301.554 132.206 301.134 131.69 300.846C131.186 300.546 130.628 300.396 130.016 300.396C129.404 300.396 128.846 300.54 128.342 300.828C127.838 301.116 127.436 301.536 127.136 302.088C126.836 302.64 126.686 303.288 126.686 304.032C126.686 304.788 126.836 305.448 127.136 306.012C127.436 306.564 127.838 306.99 128.342 307.29C128.846 307.578 129.404 307.722 130.016 307.722C130.628 307.722 131.186 307.578 131.69 307.29C132.206 306.99 132.614 306.564 132.914 306.012C133.214 305.448 133.364 304.794 133.364 304.05ZM146.536 299.136V309H144.898V307.542C144.586 308.046 144.148 308.442 143.584 308.73C143.032 309.006 142.42 309.144 141.748 309.144C140.98 309.144 140.29 308.988 139.678 308.676C139.066 308.352 138.58 307.872 138.22 307.236C137.872 306.6 137.698 305.826 137.698 304.914V299.136H139.318V304.698C139.318 305.67 139.564 306.42 140.056 306.948C140.548 307.464 141.22 307.722 142.072 307.722C142.948 307.722 143.638 307.452 144.142 306.912C144.646 306.372 144.898 305.586 144.898 304.554V299.136H146.536ZM154.45 309L152.11 305.328L149.86 309H148.15L151.336 304.104L148.15 299.136H150.004L152.344 302.79L154.576 299.136H156.286L153.118 304.014L156.304 309H154.45ZM162.102 304.032C162.102 303.024 162.306 302.142 162.714 301.386C163.122 300.618 163.68 300.024 164.388 299.604C165.108 299.184 165.912 298.974 166.8 298.974C167.568 298.974 168.282 299.154 168.942 299.514C169.602 299.862 170.106 300.324 170.454 300.9V295.68H172.11V309H170.454V307.146C170.13 307.734 169.65 308.22 169.014 308.604C168.378 308.976 167.634 309.162 166.782 309.162C165.906 309.162 165.108 308.946 164.388 308.514C163.68 308.082 163.122 307.476 162.714 306.696C162.306 305.916 162.102 305.028 162.102 304.032ZM170.454 304.05C170.454 303.306 170.304 302.658 170.004 302.106C169.704 301.554 169.296 301.134 168.78 300.846C168.276 300.546 167.718 300.396 167.106 300.396C166.494 300.396 165.936 300.54 165.432 300.828C164.928 301.116 164.526 301.536 164.226 302.088C163.926 302.64 163.776 303.288 163.776 304.032C163.776 304.788 163.926 305.448 164.226 306.012C164.526 306.564 164.928 306.99 165.432 307.29C165.936 307.578 166.494 307.722 167.106 307.722C167.718 307.722 168.276 307.578 168.78 307.29C169.296 306.99 169.704 306.564 170.004 306.012C170.304 305.448 170.454 304.794 170.454 304.05ZM183.878 303.69C183.878 304.002 183.86 304.332 183.824 304.68H175.94C176 305.652 176.33 306.414 176.93 306.966C177.542 307.506 178.28 307.776 179.144 307.776C179.852 307.776 180.44 307.614 180.908 307.29C181.388 306.954 181.724 306.51 181.916 305.958H183.68C183.416 306.906 182.888 307.68 182.096 308.28C181.304 308.868 180.32 309.162 179.144 309.162C178.208 309.162 177.368 308.952 176.624 308.532C175.892 308.112 175.316 307.518 174.896 306.75C174.476 305.97 174.266 305.07 174.266 304.05C174.266 303.03 174.47 302.136 174.878 301.368C175.286 300.6 175.856 300.012 176.588 299.604C177.332 299.184 178.184 298.974 179.144 298.974C180.08 298.974 180.908 299.178 181.628 299.586C182.348 299.994 182.9 300.558 183.284 301.278C183.68 301.986 183.878 302.79 183.878 303.69ZM182.186 303.348C182.186 302.724 182.048 302.19 181.772 301.746C181.496 301.29 181.118 300.948 180.638 300.72C180.17 300.48 179.648 300.36 179.072 300.36C178.244 300.36 177.536 300.624 176.948 301.152C176.372 301.68 176.042 302.412 175.958 303.348H182.186ZM194.511 307.488L197.571 299.136H199.317L195.447 309H193.539L189.669 299.136H191.433L194.511 307.488ZM209.929 303.69C209.929 304.002 209.911 304.332 209.875 304.68H201.991C202.051 305.652 202.381 306.414 202.981 306.966C203.593 307.506 204.331 307.776 205.195 307.776C205.903 307.776 206.491 307.614 206.959 307.29C207.439 306.954 207.775 306.51 207.967 305.958H209.731C209.467 306.906 208.939 307.68 208.147 308.28C207.355 308.868 206.371 309.162 205.195 309.162C204.259 309.162 203.419 308.952 202.675 308.532C201.943 308.112 201.367 307.518 200.947 306.75C200.527 305.97 200.317 305.07 200.317 304.05C200.317 303.03 200.521 302.136 200.929 301.368C201.337 300.6 201.907 300.012 202.639 299.604C203.383 299.184 204.235 298.974 205.195 298.974C206.131 298.974 206.959 299.178 207.679 299.586C208.399 299.994 208.951 300.558 209.335 301.278C209.731 301.986 209.929 302.79 209.929 303.69ZM208.237 303.348C208.237 302.724 208.099 302.19 207.823 301.746C207.547 301.29 207.169 300.948 206.689 300.72C206.221 300.48 205.699 300.36 205.123 300.36C204.295 300.36 203.587 300.624 202.999 301.152C202.423 301.68 202.093 302.412 202.009 303.348H208.237ZM216.897 298.956C218.097 298.956 219.069 299.322 219.813 300.054C220.557 300.774 220.929 301.818 220.929 303.186V309H219.309V303.42C219.309 302.436 219.063 301.686 218.571 301.17C218.079 300.642 217.407 300.378 216.555 300.378C215.691 300.378 215.001 300.648 214.485 301.188C213.981 301.728 213.729 302.514 213.729 303.546V309H212.091V299.136H213.729V300.54C214.053 300.036 214.491 299.646 215.043 299.37C215.607 299.094 216.225 298.956 216.897 298.956ZM225.603 300.486V306.3C225.603 306.78 225.705 307.122 225.909 307.326C226.113 307.518 226.467 307.614 226.971 307.614H228.177V309H226.701C225.789 309 225.105 308.79 224.649 308.37C224.193 307.95 223.965 307.26 223.965 306.3V300.486H222.687V299.136H223.965V296.652H225.603V299.136H228.177V300.486H225.603ZM239.161 303.69C239.161 304.002 239.143 304.332 239.107 304.68H231.223C231.283 305.652 231.613 306.414 232.213 306.966C232.825 307.506 233.563 307.776 234.427 307.776C235.135 307.776 235.723 307.614 236.191 307.29C236.671 306.954 237.007 306.51 237.199 305.958H238.963C238.699 306.906 238.171 307.68 237.379 308.28C236.587 308.868 235.603 309.162 234.427 309.162C233.491 309.162 232.651 308.952 231.907 308.532C231.175 308.112 230.599 307.518 230.179 306.75C229.759 305.97 229.549 305.07 229.549 304.05C229.549 303.03 229.753 302.136 230.161 301.368C230.569 300.6 231.139 300.012 231.871 299.604C232.615 299.184 233.467 298.974 234.427 298.974C235.363 298.974 236.191 299.178 236.911 299.586C237.631 299.994 238.183 300.558 238.567 301.278C238.963 301.986 239.161 302.79 239.161 303.69ZM237.469 303.348C237.469 302.724 237.331 302.19 237.055 301.746C236.779 301.29 236.401 300.948 235.921 300.72C235.453 300.48 234.931 300.36 234.355 300.36C233.527 300.36 232.819 300.624 232.231 301.152C231.655 301.68 231.325 302.412 231.241 303.348H237.469ZM247.76 300.954C248.084 300.39 248.564 299.922 249.2 299.55C249.848 299.166 250.598 298.974 251.45 298.974C252.326 298.974 253.118 299.184 253.826 299.604C254.546 300.024 255.11 300.618 255.518 301.386C255.926 302.142 256.13 303.024 256.13 304.032C256.13 305.028 255.926 305.916 255.518 306.696C255.11 307.476 254.546 308.082 253.826 308.514C253.118 308.946 252.326 309.162 251.45 309.162C250.61 309.162 249.866 308.976 249.218 308.604C248.582 308.22 248.096 307.746 247.76 307.182V313.68H246.122V299.136H247.76V300.954ZM254.456 304.032C254.456 303.288 254.306 302.64 254.006 302.088C253.706 301.536 253.298 301.116 252.782 300.828C252.278 300.54 251.72 300.396 251.108 300.396C250.508 300.396 249.95 300.546 249.434 300.846C248.93 301.134 248.522 301.56 248.21 302.124C247.91 302.676 247.76 303.318 247.76 304.05C247.76 304.794 247.91 305.448 248.21 306.012C248.522 306.564 248.93 306.99 249.434 307.29C249.95 307.578 250.508 307.722 251.108 307.722C251.72 307.722 252.278 307.578 252.782 307.29C253.298 306.99 253.706 306.564 254.006 306.012C254.306 305.448 254.456 304.788 254.456 304.032ZM257.674 304.032C257.674 303.024 257.878 302.142 258.286 301.386C258.694 300.618 259.252 300.024 259.96 299.604C260.68 299.184 261.478 298.974 262.354 298.974C263.218 298.974 263.968 299.16 264.604 299.532C265.24 299.904 265.714 300.372 266.026 300.936V299.136H267.682V309H266.026V307.164C265.702 307.74 265.216 308.22 264.568 308.604C263.932 308.976 263.188 309.162 262.336 309.162C261.46 309.162 260.668 308.946 259.96 308.514C259.252 308.082 258.694 307.476 258.286 306.696C257.878 305.916 257.674 305.028 257.674 304.032ZM266.026 304.05C266.026 303.306 265.876 302.658 265.576 302.106C265.276 301.554 264.868 301.134 264.352 300.846C263.848 300.546 263.29 300.396 262.678 300.396C262.066 300.396 261.508 300.54 261.004 300.828C260.5 301.116 260.098 301.536 259.798 302.088C259.498 302.64 259.348 303.288 259.348 304.032C259.348 304.788 259.498 305.448 259.798 306.012C260.098 306.564 260.5 306.99 261.004 307.29C261.508 307.578 262.066 307.722 262.678 307.722C263.29 307.722 263.848 307.578 264.352 307.29C264.868 306.99 265.276 306.564 265.576 306.012C265.876 305.448 266.026 304.794 266.026 304.05ZM272.088 300.738C272.376 300.174 272.784 299.736 273.312 299.424C273.852 299.112 274.506 298.956 275.274 298.956V300.648H274.842C273.006 300.648 272.088 301.644 272.088 303.636V309H270.45V299.136H272.088V300.738ZM281.352 304.05C281.352 303.03 281.556 302.142 281.964 301.386C282.372 300.618 282.936 300.024 283.656 299.604C284.388 299.184 285.222 298.974 286.158 298.974C287.37 298.974 288.366 299.268 289.146 299.856C289.938 300.444 290.46 301.26 290.712 302.304H288.948C288.78 301.704 288.45 301.23 287.958 300.882C287.478 300.534 286.878 300.36 286.158 300.36C285.222 300.36 284.466 300.684 283.89 301.332C283.314 301.968 283.026 302.874 283.026 304.05C283.026 305.238 283.314 306.156 283.89 306.804C284.466 307.452 285.222 307.776 286.158 307.776C286.878 307.776 287.478 307.608 287.958 307.272C288.438 306.936 288.768 306.456 288.948 305.832H290.712C290.448 306.84 289.92 307.65 289.128 308.262C288.336 308.862 287.346 309.162 286.158 309.162C285.222 309.162 284.388 308.952 283.656 308.532C282.936 308.112 282.372 307.518 281.964 306.75C281.556 305.982 281.352 305.082 281.352 304.05ZM292.286 304.032C292.286 303.024 292.49 302.142 292.898 301.386C293.306 300.618 293.864 300.024 294.572 299.604C295.292 299.184 296.09 298.974 296.966 298.974C297.83 298.974 298.58 299.16 299.216 299.532C299.852 299.904 300.326 300.372 300.638 300.936V299.136H302.294V309H300.638V307.164C300.314 307.74 299.828 308.22 299.18 308.604C298.544 308.976 297.8 309.162 296.948 309.162C296.072 309.162 295.28 308.946 294.572 308.514C293.864 308.082 293.306 307.476 292.898 306.696C292.49 305.916 292.286 305.028 292.286 304.032ZM300.638 304.05C300.638 303.306 300.488 302.658 300.188 302.106C299.888 301.554 299.48 301.134 298.964 300.846C298.46 300.546 297.902 300.396 297.29 300.396C296.678 300.396 296.12 300.54 295.616 300.828C295.112 301.116 294.71 301.536 294.41 302.088C294.11 302.64 293.96 303.288 293.96 304.032C293.96 304.788 294.11 305.448 294.41 306.012C294.71 306.564 295.112 306.99 295.616 307.29C296.12 307.578 296.678 307.722 297.29 307.722C297.902 307.722 298.46 307.578 298.964 307.29C299.48 306.99 299.888 306.564 300.188 306.012C300.488 305.448 300.638 304.794 300.638 304.05ZM307.06 300.486V306.3C307.06 306.78 307.162 307.122 307.366 307.326C307.57 307.518 307.924 307.614 308.428 307.614H309.634V309H308.158C307.246 309 306.562 308.79 306.106 308.37C305.65 307.95 305.422 307.26 305.422 306.3V300.486H304.144V299.136H305.422V296.652H307.06V299.136H309.634V300.486H307.06ZM320.618 303.69C320.618 304.002 320.6 304.332 320.564 304.68H312.68C312.74 305.652 313.07 306.414 313.67 306.966C314.282 307.506 315.02 307.776 315.884 307.776C316.592 307.776 317.18 307.614 317.648 307.29C318.128 306.954 318.464 306.51 318.656 305.958H320.42C320.156 306.906 319.628 307.68 318.836 308.28C318.044 308.868 317.06 309.162 315.884 309.162C314.948 309.162 314.108 308.952 313.364 308.532C312.632 308.112 312.056 307.518 311.636 306.75C311.216 305.97 311.006 305.07 311.006 304.05C311.006 303.03 311.21 302.136 311.618 301.368C312.026 300.6 312.596 300.012 313.328 299.604C314.072 299.184 314.924 298.974 315.884 298.974C316.82 298.974 317.648 299.178 318.368 299.586C319.088 299.994 319.64 300.558 320.024 301.278C320.42 301.986 320.618 302.79 320.618 303.69ZM318.926 303.348C318.926 302.724 318.788 302.19 318.512 301.746C318.236 301.29 317.858 300.948 317.378 300.72C316.91 300.48 316.388 300.36 315.812 300.36C314.984 300.36 314.276 300.624 313.688 301.152C313.112 301.68 312.782 302.412 312.698 303.348H318.926ZM317.576 296.346L313.742 298.398V297.174L317.576 294.924V296.346ZM326.849 298.974C327.701 298.974 328.445 299.16 329.081 299.532C329.729 299.904 330.209 300.372 330.521 300.936V299.136H332.177V309.216C332.177 310.116 331.985 310.914 331.601 311.61C331.217 312.318 330.665 312.87 329.945 313.266C329.237 313.662 328.409 313.86 327.461 313.86C326.165 313.86 325.085 313.554 324.221 312.942C323.357 312.33 322.847 311.496 322.691 310.44H324.311C324.491 311.04 324.863 311.52 325.427 311.88C325.991 312.252 326.669 312.438 327.461 312.438C328.361 312.438 329.093 312.156 329.657 311.592C330.233 311.028 330.521 310.236 330.521 309.216V307.146C330.197 307.722 329.717 308.202 329.081 308.586C328.445 308.97 327.701 309.162 326.849 309.162C325.973 309.162 325.175 308.946 324.455 308.514C323.747 308.082 323.189 307.476 322.781 306.696C322.373 305.916 322.169 305.028 322.169 304.032C322.169 303.024 322.373 302.142 322.781 301.386C323.189 300.618 323.747 300.024 324.455 299.604C325.175 299.184 325.973 298.974 326.849 298.974ZM330.521 304.05C330.521 303.306 330.371 302.658 330.071 302.106C329.771 301.554 329.363 301.134 328.847 300.846C328.343 300.546 327.785 300.396 327.173 300.396C326.561 300.396 326.003 300.54 325.499 300.828C324.995 301.116 324.593 301.536 324.293 302.088C323.993 302.64 323.843 303.288 323.843 304.032C323.843 304.788 323.993 305.448 324.293 306.012C324.593 306.564 324.995 306.99 325.499 307.29C326.003 307.578 326.561 307.722 327.173 307.722C327.785 307.722 328.343 307.578 328.847 307.29C329.363 306.99 329.771 306.564 330.071 306.012C330.371 305.448 330.521 304.794 330.521 304.05ZM339.247 309.162C338.323 309.162 337.483 308.952 336.727 308.532C335.983 308.112 335.395 307.518 334.963 306.75C334.543 305.97 334.333 305.07 334.333 304.05C334.333 303.042 334.549 302.154 334.981 301.386C335.425 300.606 336.025 300.012 336.781 299.604C337.537 299.184 338.383 298.974 339.319 298.974C340.255 298.974 341.101 299.184 341.857 299.604C342.613 300.012 343.207 300.6 343.639 301.368C344.083 302.136 344.305 303.03 344.305 304.05C344.305 305.07 344.077 305.97 343.621 306.75C343.177 307.518 342.571 308.112 341.803 308.532C341.035 308.952 340.183 309.162 339.247 309.162ZM339.247 307.722C339.835 307.722 340.387 307.584 340.903 307.308C341.419 307.032 341.833 306.618 342.145 306.066C342.469 305.514 342.631 304.842 342.631 304.05C342.631 303.258 342.475 302.586 342.163 302.034C341.851 301.482 341.443 301.074 340.939 300.81C340.435 300.534 339.889 300.396 339.301 300.396C338.701 300.396 338.149 300.534 337.645 300.81C337.153 301.074 336.757 301.482 336.457 302.034C336.157 302.586 336.007 303.258 336.007 304.05C336.007 304.854 336.151 305.532 336.439 306.084C336.739 306.636 337.135 307.05 337.627 307.326C338.119 307.59 338.659 307.722 339.247 307.722ZM348.096 300.738C348.384 300.174 348.792 299.736 349.32 299.424C349.86 299.112 350.514 298.956 351.282 298.956V300.648H350.85C349.014 300.648 348.096 301.644 348.096 303.636V309H346.458V299.136H348.096V300.738ZM354.019 297.534C353.707 297.534 353.443 297.426 353.227 297.21C353.011 296.994 352.903 296.73 352.903 296.418C352.903 296.106 353.011 295.842 353.227 295.626C353.443 295.41 353.707 295.302 354.019 295.302C354.319 295.302 354.571 295.41 354.775 295.626C354.991 295.842 355.099 296.106 355.099 296.418C355.099 296.73 354.991 296.994 354.775 297.21C354.571 297.426 354.319 297.534 354.019 297.534ZM354.811 299.136V309H353.173V299.136H354.811ZM366.603 303.69C366.603 304.002 366.585 304.332 366.549 304.68H358.665C358.725 305.652 359.055 306.414 359.655 306.966C360.267 307.506 361.005 307.776 361.869 307.776C362.577 307.776 363.165 307.614 363.633 307.29C364.113 306.954 364.449 306.51 364.641 305.958H366.405C366.141 306.906 365.613 307.68 364.821 308.28C364.029 308.868 363.045 309.162 361.869 309.162C360.933 309.162 360.093 308.952 359.349 308.532C358.617 308.112 358.041 307.518 357.621 306.75C357.201 305.97 356.991 305.07 356.991 304.05C356.991 303.03 357.195 302.136 357.603 301.368C358.011 300.6 358.581 300.012 359.313 299.604C360.057 299.184 360.909 298.974 361.869 298.974C362.805 298.974 363.633 299.178 364.353 299.586C365.073 299.994 365.625 300.558 366.009 301.278C366.405 301.986 366.603 302.79 366.603 303.69ZM364.911 303.348C364.911 302.724 364.773 302.19 364.497 301.746C364.221 301.29 363.843 300.948 363.363 300.72C362.895 300.48 362.373 300.36 361.797 300.36C360.969 300.36 360.261 300.624 359.673 301.152C359.097 301.68 358.767 302.412 358.683 303.348H364.911Z" fill="black" fill-opacity="0.7"/>
</g>
<defs>
<filter id="filter0_i_628_2561" x="0" y="0" width="548" height="379" filterUnits="userSpaceOnUse" color-interpolation-filters="sRGB">
<feFlood flood-opacity="0" result="BackgroundImageFix"/>
<feBlend mode="normal" in="SourceGraphic" in2="BackgroundImageFix" result="shape"/>
<feColorMatrix in="SourceAlpha" type="matrix" values="0 0 0 0 0 0 0 0 0 0 0 0 0 0 0 0 0 0 127 0" result="hardAlpha"/>
<feOffset dy="4"/>
<feGaussianBlur stdDeviation="2"/>
<feComposite in2="hardAlpha" operator="arithmetic" k2="-1" k3="1"/>
<feColorMatrix type="matrix" values="0 0 0 0 0 0 0 0 0 0 0 0 0 0 0 0 0 0 0.25 0"/>
<feBlend mode="normal" in2="shape" result="effect1_innerShadow_628_2561"/>
</filter>
</defs>
</svg>
