<svg width="193" height="27" viewBox="0 0 193 27" fill="none" xmlns="http://www.w3.org/2000/svg">
<path d="M23.2417 8.63672C22.8771 7.8278 22.5182 7.12142 22.165 6.51758C21.8118 5.90234 21.3504 5.26432 20.7808 4.60352C20.2111 3.94271 19.6016 3.40153 18.9521 2.97998C18.3027 2.55843 17.5052 2.21094 16.5596 1.9375C15.6139 1.66406 14.5715 1.52734 13.4321 1.52734C12.2017 1.52734 11.0851 1.77799 10.0825 2.2793C9.07992 2.7806 8.25391 3.43571 7.60449 4.24463C6.96647 5.05355 6.42529 5.99349 5.98096 7.06445C5.54801 8.12402 5.2404 9.19499 5.05811 10.2773C4.87581 11.3483 4.78467 12.4364 4.78467 13.5415C4.78467 14.6353 4.88151 15.7233 5.0752 16.8057C5.26888 17.8766 5.58789 18.9419 6.03223 20.0015C6.48796 21.061 7.04622 21.9896 7.70703 22.7871C8.36784 23.5846 9.19954 24.234 10.2021 24.7354C11.2161 25.2253 12.3384 25.4702 13.5688 25.4702C16.0754 25.4702 17.8185 24.9119 18.7983 23.7954V16.8569C18.7983 16.6177 18.7015 16.4069 18.5078 16.2246C18.3141 16.0309 18.092 15.8828 17.8413 15.7803C17.5907 15.6777 17.2546 15.5866 16.833 15.5068C16.4229 15.4157 16.0868 15.353 15.8247 15.3188C15.5627 15.2847 15.2323 15.2505 14.8335 15.2163C14.7879 15.034 14.7651 14.8973 14.7651 14.8062C14.7651 14.7264 14.7879 14.5954 14.8335 14.4131C17.4084 14.5042 19.3908 14.5498 20.7808 14.5498C22.1935 14.5498 24.1759 14.5042 26.728 14.4131C26.785 14.641 26.8135 14.772 26.8135 14.8062C26.8135 14.8517 26.785 14.9884 26.728 15.2163C26.3293 15.2505 25.9989 15.2847 25.7368 15.3188C25.4748 15.353 25.133 15.4157 24.7114 15.5068C24.3013 15.5866 23.9709 15.6777 23.7202 15.7803C23.481 15.8828 23.2645 16.0309 23.0708 16.2246C22.8771 16.4069 22.7803 16.6177 22.7803 16.8569V19.3862C22.7803 21.5509 23.0366 23.3226 23.5493 24.7012C21.6694 25.3962 20.0003 25.9032 18.542 26.2222C17.0837 26.5412 15.4259 26.7007 13.5688 26.7007C12.4637 26.7007 11.3529 26.5868 10.2363 26.3589C9.11979 26.131 7.94629 25.7038 6.71582 25.0771C5.49674 24.4505 4.42008 23.6644 3.48584 22.7188C2.56299 21.7731 1.79395 20.5085 1.17871 18.9248C0.57487 17.3411 0.272949 15.5467 0.272949 13.5415C0.272949 12.0946 0.426758 10.7559 0.734375 9.52539C1.05339 8.28353 1.47493 7.21826 1.99902 6.32959C2.52311 5.44092 3.14404 4.64339 3.86182 3.93701C4.59098 3.23063 5.34863 2.65527 6.13477 2.21094C6.9209 1.7666 7.74691 1.40202 8.61279 1.11719C9.49007 0.820964 10.3218 0.615885 11.1079 0.501953C11.894 0.376628 12.6688 0.313965 13.4321 0.313965C14.7082 0.313965 15.9215 0.393717 17.0723 0.553223C18.2344 0.701335 19.3908 0.889323 20.5415 1.11719C21.6922 1.33366 22.6037 1.48177 23.2759 1.56152C23.105 2.07422 23.0195 2.79769 23.0195 3.73193C23.0195 5.28141 23.2987 6.79102 23.8569 8.26074C23.7886 8.46582 23.5835 8.59115 23.2417 8.63672ZM29.001 11.9351C31.2113 11.7072 33.1367 11.2401 34.7773 10.5337C35.0622 10.6476 35.2616 10.7957 35.3755 10.978V13.9175C35.797 13.12 36.4237 12.3452 37.2554 11.5933C38.0985 10.8413 38.9757 10.4653 39.8872 10.4653C40.5708 10.4653 41.1234 10.6704 41.5449 11.0806C41.9779 11.4793 42.1943 12.0319 42.1943 12.7383C42.1943 13.4105 41.995 13.9346 41.5962 14.3105C41.1974 14.6865 40.6961 14.8745 40.0923 14.8745C39.534 14.8745 39.0726 14.6979 38.708 14.3447C38.3548 13.9801 38.1611 13.5016 38.127 12.9092C37.6484 13.1143 37.1016 13.57 36.4863 14.2764C35.8825 14.9827 35.5122 15.6834 35.3755 16.3784C35.3755 18.9191 35.4211 21.3459 35.5122 23.6587C35.5236 23.9549 35.6318 24.2113 35.8369 24.4277C36.042 24.6328 36.3439 24.7923 36.7427 24.9062C37.1414 25.0202 37.4718 25.1056 37.7339 25.1626C37.9959 25.2082 38.3377 25.2537 38.7593 25.2993C38.8276 25.436 38.8618 25.5785 38.8618 25.7266C38.8618 25.8405 38.8276 25.9658 38.7593 26.1025C37.0503 26.0342 35.3584 26 33.6836 26C32.2936 26 30.8467 26.0342 29.3428 26.1025C29.2972 25.9202 29.2744 25.7949 29.2744 25.7266C29.2744 25.6696 29.2972 25.5272 29.3428 25.2993C29.7188 25.2537 30.0264 25.2082 30.2656 25.1626C30.5049 25.1056 30.8011 25.0202 31.1543 24.9062C31.5075 24.7923 31.7752 24.6328 31.9575 24.4277C32.1398 24.2113 32.2367 23.9549 32.248 23.6587C32.2936 22.5308 32.3164 21.1636 32.3164 19.5571C32.3164 19.0216 32.3107 18.1102 32.2993 16.8228C32.2879 15.5353 32.2822 14.4074 32.2822 13.439C31.6328 13.0402 30.5391 12.8066 29.001 12.7383C28.9554 12.556 28.9326 12.4136 28.9326 12.311C28.9326 12.2427 28.9554 12.1174 29.001 11.9351ZM52.5337 10.4653C53.6616 10.4653 54.6756 10.6647 55.5757 11.0635C56.4871 11.4622 57.2619 12.0148 57.8999 12.7212C58.5379 13.4276 59.0278 14.2764 59.3696 15.2676C59.7114 16.2474 59.8823 17.3184 59.8823 18.4805C59.8823 20.8503 59.2158 22.7757 57.8828 24.2568C56.5612 25.7493 54.7782 26.4956 52.5337 26.4956C51.4172 26.4956 50.4032 26.3019 49.4917 25.9146C48.5916 25.5158 47.8226 24.9632 47.1846 24.2568C46.5465 23.5391 46.0509 22.6903 45.6978 21.7104C45.356 20.7306 45.1851 19.654 45.1851 18.4805C45.1851 17.3184 45.356 16.2474 45.6978 15.2676C46.0396 14.2764 46.5238 13.4276 47.1504 12.7212C47.7884 12.0148 48.5632 11.4622 49.4746 11.0635C50.3861 10.6647 51.4058 10.4653 52.5337 10.4653ZM52.5337 11.5762C51.3716 11.5762 50.443 12.1401 49.748 13.2681C49.0645 14.396 48.7227 16.1335 48.7227 18.4805C48.7227 20.8275 49.0645 22.5649 49.748 23.6929C50.443 24.8094 51.3716 25.3677 52.5337 25.3677C53.6958 25.3677 54.6187 24.8037 55.3022 23.6758C55.9972 22.5479 56.3447 20.8161 56.3447 18.4805C56.3447 17.307 56.2536 16.2873 56.0713 15.4214C55.889 14.5555 55.6326 13.8377 55.3022 13.2681C54.9718 12.6984 54.5731 12.2769 54.106 12.0034C53.6388 11.7186 53.1147 11.5762 52.5337 11.5762ZM69.897 26.4956C69.3387 26.4956 68.8317 26.45 68.376 26.3589C67.9316 26.2677 67.5841 26.1709 67.3335 26.0684C67.0942 25.9658 66.7695 25.812 66.3594 25.6069C65.915 25.6069 65.2599 25.7721 64.394 26.1025C64.2459 26.0114 64.1434 25.9089 64.0864 25.7949C64.1434 25.6126 64.2118 24.9917 64.2915 23.9321C64.3826 22.8726 64.4282 21.9269 64.4282 21.0952C64.5763 21.0269 64.8441 20.9927 65.2314 20.9927C65.4365 21.6535 65.6473 22.2174 65.8638 22.6846C66.0916 23.1517 66.3765 23.6074 66.7183 24.0518C67.0715 24.4847 67.493 24.8151 67.9829 25.043C68.4842 25.2594 69.0539 25.3677 69.6919 25.3677C70.6831 25.3677 71.4578 25.1113 72.0161 24.5986C72.5858 24.0859 72.8706 23.5049 72.8706 22.8555C72.8706 22.3656 72.7909 21.9497 72.6313 21.6079C72.4718 21.2661 72.113 20.9072 71.5547 20.5312C71.0078 20.1439 70.2217 19.7622 69.1963 19.3862C68.5583 19.1584 68.0171 18.9476 67.5728 18.7539C67.1284 18.5602 66.667 18.321 66.1885 18.0361C65.7214 17.7513 65.3454 17.4608 65.0605 17.1646C64.7757 16.8569 64.5422 16.4924 64.3599 16.0708C64.1776 15.6493 64.0864 15.1878 64.0864 14.6865C64.0864 14.3219 64.1263 13.9631 64.2061 13.6099C64.2972 13.2453 64.4624 12.8693 64.7017 12.4819C64.9523 12.0946 65.2599 11.7585 65.6245 11.4736C66.0005 11.1774 66.4961 10.9382 67.1113 10.7559C67.738 10.5622 68.4443 10.4653 69.2305 10.4653C69.5495 10.4653 69.8286 10.4824 70.0679 10.5166C70.3185 10.5508 70.6147 10.6134 70.9565 10.7046C71.3097 10.7843 71.5034 10.8299 71.5376 10.8413C71.7882 10.7843 72.0446 10.7103 72.3066 10.6191C72.5801 10.528 72.7339 10.4767 72.7681 10.4653H73.2124C73.4858 12.106 73.839 13.5016 74.272 14.6523C74.1353 14.8005 73.9131 14.8745 73.6055 14.8745C72.6598 13.7352 71.8509 12.9035 71.1787 12.3794C70.5179 11.8439 69.766 11.5762 68.9229 11.5762C68.262 11.5762 67.681 11.7243 67.1797 12.0205C66.6784 12.3167 66.4277 12.7668 66.4277 13.3706C66.4277 14.134 66.7297 14.7321 67.3335 15.165C67.9487 15.598 69.0824 16.1506 70.7344 16.8228C71.4977 17.1304 72.0959 17.3867 72.5288 17.5918C72.9731 17.7969 73.4175 18.0418 73.8618 18.3267C74.3062 18.6115 74.6309 18.9077 74.8359 19.2153C75.0524 19.5116 75.229 19.8704 75.3657 20.292C75.5024 20.7135 75.5708 21.2035 75.5708 21.7617C75.5708 22.9694 75.0125 24.0632 73.896 25.043C72.7909 26.0114 71.4578 26.4956 69.897 26.4956Z" fill="white"/>
<path d="M79.0059 0.87793C81.1478 0.969076 83.8423 1.01465 87.0894 1.01465L93.7031 18.9248H93.7886L100.676 1.01465H102.641C104.054 1.01465 106.048 0.969076 108.623 0.87793C108.668 1.06022 108.691 1.18555 108.691 1.25391C108.691 1.33366 108.668 1.47607 108.623 1.68115C108.212 1.71533 107.882 1.74951 107.631 1.78369C107.381 1.81787 107.045 1.87484 106.623 1.95459C106.213 2.03434 105.882 2.13118 105.632 2.24512C105.381 2.34766 105.159 2.49577 104.965 2.68945C104.772 2.87174 104.669 3.08252 104.658 3.32178C104.544 5.99919 104.487 9.18359 104.487 12.875C104.487 16.6234 104.561 20.2179 104.709 23.6587C104.72 23.9549 104.851 24.2113 105.102 24.4277C105.353 24.6328 105.712 24.7923 106.179 24.9062C106.657 25.0202 107.056 25.1056 107.375 25.1626C107.705 25.2082 108.133 25.2537 108.657 25.2993C108.702 25.4816 108.725 25.6354 108.725 25.7607C108.725 25.8519 108.702 25.9658 108.657 26.1025C106.731 26.0342 104.749 26 102.709 26C100.659 26 98.6763 26.0342 96.7622 26.1025C96.7166 25.9658 96.6938 25.8519 96.6938 25.7607C96.6938 25.5671 96.7166 25.4132 96.7622 25.2993C97.2863 25.2537 97.7078 25.2082 98.0269 25.1626C98.3573 25.1056 98.756 25.0202 99.2231 24.9062C99.7017 24.7923 100.066 24.6328 100.317 24.4277C100.568 24.2113 100.699 23.9549 100.71 23.6587C100.824 20.104 100.881 16.931 100.881 14.1396C100.881 11.4622 100.824 8.41455 100.71 4.99658H100.573L92.7632 25.5728H92.5923L84.2695 4.58643H84.0815C83.9904 7.35498 83.9448 10.5394 83.9448 14.1396C83.9448 16.7829 84.0018 19.8704 84.1157 23.4023C84.1385 24.4391 85.3975 25.0715 87.8926 25.2993C87.9495 25.493 87.978 25.6468 87.978 25.7607C87.978 25.8747 87.9495 25.9886 87.8926 26.1025C86.0811 26.0342 84.4632 26 83.0391 26C82.1276 26 80.6009 26.0342 78.459 26.1025C78.402 25.9886 78.3735 25.8747 78.3735 25.7607C78.3735 25.5671 78.402 25.4132 78.459 25.2993C80.9769 25.0601 82.2358 24.4277 82.2358 23.4023C82.3726 19.8477 82.4409 16.3385 82.4409 12.875C82.4409 10.3799 82.4067 7.73096 82.3384 4.92822C82.327 4.44971 82.2985 4.05094 82.2529 3.73193C82.2074 3.40153 82.1219 3.1167 81.9966 2.87744C81.8713 2.63818 81.7402 2.4502 81.6035 2.31348C81.4668 2.17676 81.256 2.05713 80.9712 1.95459C80.6864 1.84066 80.4072 1.7609 80.1338 1.71533C79.8717 1.65837 79.4958 1.5957 79.0059 1.52734C78.9603 1.4362 78.9375 1.33366 78.9375 1.21973C78.9375 1.08301 78.9603 0.969076 79.0059 0.87793ZM112.878 14.772C112.878 13.5187 113.448 12.4876 114.587 11.6787C115.738 10.8698 117.093 10.4653 118.654 10.4653C120.568 10.4653 121.913 10.847 122.688 11.6104C123.474 12.3737 123.867 13.6611 123.867 15.4727V22.5649C123.867 23.203 124.1 23.522 124.567 23.522C124.943 23.522 125.422 23.0662 126.003 22.1548C126.413 22.189 126.692 22.3713 126.84 22.7017C126.761 22.8156 126.624 23.0207 126.43 23.3169C126.236 23.6131 126.094 23.8239 126.003 23.9492C125.912 24.0745 125.769 24.2682 125.576 24.5303C125.382 24.7809 125.222 24.9689 125.097 25.0942C124.983 25.2196 124.824 25.3677 124.619 25.5386C124.425 25.7095 124.243 25.8405 124.072 25.9316C123.912 26.0114 123.724 26.0798 123.508 26.1367C123.291 26.2051 123.075 26.2393 122.858 26.2393C122.289 26.2393 121.816 26.0342 121.44 25.624C121.075 25.2139 120.859 24.5815 120.791 23.7271C120.779 23.7384 120.603 23.9036 120.261 24.2227C119.919 24.5417 119.68 24.7581 119.543 24.8721C119.418 24.9746 119.173 25.1626 118.808 25.436C118.455 25.6981 118.153 25.8861 117.902 26C117.652 26.1139 117.338 26.2222 116.962 26.3247C116.586 26.4386 116.216 26.4956 115.852 26.4956C115.271 26.4956 114.752 26.4159 114.296 26.2563C113.852 26.0968 113.505 25.9032 113.254 25.6753C113.003 25.4474 112.798 25.1854 112.639 24.8892C112.479 24.5815 112.371 24.3024 112.314 24.0518C112.268 23.8011 112.246 23.5505 112.246 23.2998C112.246 22.5365 112.371 21.8927 112.622 21.3687C112.884 20.8446 113.362 20.3547 114.057 19.8989C114.764 19.4432 115.629 19.0387 116.655 18.6855C117.68 18.3324 119.059 17.9336 120.791 17.4893V15.1138C120.791 13.9631 120.534 13.1029 120.021 12.5332C119.52 11.9635 118.842 11.6787 117.988 11.6787C117.224 11.6787 116.581 11.8325 116.057 12.1401C115.544 12.4364 115.231 12.7839 115.117 13.1826C116.233 13.3535 116.792 13.9631 116.792 15.0112C116.792 15.4897 116.621 15.9113 116.279 16.2759C115.937 16.6405 115.458 16.8228 114.843 16.8228C114.331 16.8228 113.875 16.6462 113.476 16.293C113.077 15.9284 112.878 15.4214 112.878 14.772ZM120.791 22.1548V18.583C119.742 18.8223 118.876 19.0843 118.193 19.3691C117.509 19.6426 116.985 19.9445 116.621 20.2749C116.267 20.6053 116.022 20.9471 115.886 21.3003C115.749 21.6421 115.681 22.0409 115.681 22.4966C115.681 23.0662 115.846 23.5163 116.176 23.8467C116.518 24.1657 116.934 24.3252 117.424 24.3252C118.563 24.3252 119.685 23.6017 120.791 22.1548ZM129.011 11.9351C131.221 11.7072 133.146 11.2401 134.787 10.5337C135.072 10.6476 135.271 10.7957 135.385 10.978V13.9175C135.807 13.12 136.433 12.3452 137.265 11.5933C138.108 10.8413 138.986 10.4653 139.897 10.4653C140.581 10.4653 141.133 10.6704 141.555 11.0806C141.988 11.4793 142.204 12.0319 142.204 12.7383C142.204 13.4105 142.005 13.9346 141.606 14.3105C141.207 14.6865 140.706 14.8745 140.102 14.8745C139.544 14.8745 139.082 14.6979 138.718 14.3447C138.365 13.9801 138.171 13.5016 138.137 12.9092C137.658 13.1143 137.111 13.57 136.496 14.2764C135.892 14.9827 135.522 15.6834 135.385 16.3784C135.385 18.9191 135.431 21.3459 135.522 23.6587C135.533 23.9549 135.642 24.2113 135.847 24.4277C136.052 24.6328 136.354 24.7923 136.752 24.9062C137.151 25.0202 137.482 25.1056 137.744 25.1626C138.006 25.2082 138.347 25.2537 138.769 25.2993C138.837 25.436 138.872 25.5785 138.872 25.7266C138.872 25.8405 138.837 25.9658 138.769 26.1025C137.06 26.0342 135.368 26 133.693 26C132.303 26 130.856 26.0342 129.353 26.1025C129.307 25.9202 129.284 25.7949 129.284 25.7266C129.284 25.6696 129.307 25.5272 129.353 25.2993C129.729 25.2537 130.036 25.2082 130.275 25.1626C130.515 25.1056 130.811 25.0202 131.164 24.9062C131.517 24.7923 131.785 24.6328 131.967 24.4277C132.15 24.2113 132.246 23.9549 132.258 23.6587C132.303 22.5308 132.326 21.1636 132.326 19.5571C132.326 19.0216 132.32 18.1102 132.309 16.8228C132.298 15.5353 132.292 14.4074 132.292 13.439C131.643 13.0402 130.549 12.8066 129.011 12.7383C128.965 12.556 128.942 12.4136 128.942 12.311C128.942 12.2427 128.965 12.1174 129.011 11.9351ZM154.987 25.2993C155.99 25.1968 156.491 24.929 156.491 24.4961C156.491 24.2454 156.366 23.9663 156.115 23.6587L151.45 17.6772H150.612C150.612 20.4002 150.646 22.394 150.715 23.6587C150.715 23.9549 150.789 24.2113 150.937 24.4277C151.097 24.6328 151.324 24.7923 151.621 24.9062C151.928 25.0202 152.179 25.1056 152.373 25.1626C152.578 25.2082 152.845 25.2537 153.176 25.2993C153.244 25.436 153.278 25.5785 153.278 25.7266C153.278 25.8747 153.244 26 153.176 26.1025C151.672 26.0342 150.248 26 148.903 26C147.513 26 146.066 26.0342 144.562 26.1025C144.517 25.9202 144.494 25.7949 144.494 25.7266C144.494 25.6696 144.517 25.5272 144.562 25.2993C144.938 25.2537 145.24 25.2082 145.468 25.1626C145.708 25.1056 146.004 25.0202 146.357 24.9062C146.722 24.7923 146.995 24.6328 147.177 24.4277C147.36 24.2113 147.456 23.9549 147.468 23.6587C147.513 22.5308 147.53 18.9761 147.519 12.9946C147.508 7.00179 147.502 3.64648 147.502 2.92871C146.853 2.55273 145.759 2.31917 144.221 2.22803C144.164 2.07992 144.135 1.9432 144.135 1.81787C144.135 1.70394 144.164 1.57292 144.221 1.4248C146.385 1.21973 148.305 0.752604 149.98 0.0234375C150.288 0.148763 150.487 0.302572 150.578 0.484863L150.612 16.5835H151.501L154.953 13.3022C155.17 13.0516 155.278 12.7952 155.278 12.5332C155.278 12.0547 154.737 11.7585 153.654 11.6445C153.609 11.4622 153.586 11.3369 153.586 11.2686C153.586 11.166 153.609 11.0236 153.654 10.8413C155.135 10.9097 156.315 10.9438 157.192 10.9438C158.149 10.9438 159.362 10.9097 160.832 10.8413C160.878 10.978 160.9 11.0977 160.9 11.2002C160.9 11.2686 160.878 11.4167 160.832 11.6445C159.818 11.7585 158.981 11.9294 158.32 12.1572C157.659 12.3737 157.061 12.7554 156.525 13.3022L153.808 16.0537L159.824 23.6587C160.507 24.5474 161.533 25.0942 162.9 25.2993C162.945 25.5272 162.968 25.681 162.968 25.7607C162.968 25.8519 162.945 25.9658 162.9 26.1025C161.43 26.0342 160.103 26 158.918 26C157.767 26 156.457 26.0342 154.987 26.1025C154.942 25.9202 154.919 25.7835 154.919 25.6924C154.919 25.6126 154.942 25.4816 154.987 25.2993ZM176.896 16.9424H167.583C167.537 17.626 167.514 18.2298 167.514 18.7539C167.548 20.4515 168.044 21.813 169.001 22.8384C169.958 23.8524 171.24 24.3594 172.846 24.3594C173.279 24.3594 173.684 24.3138 174.06 24.2227C174.436 24.1201 174.743 24.0062 174.982 23.8809C175.233 23.7555 175.489 23.5732 175.751 23.334C176.014 23.0947 176.201 22.9067 176.315 22.77C176.441 22.6219 176.606 22.4054 176.811 22.1206C177.016 21.8244 177.153 21.6364 177.221 21.5566C177.495 21.6136 177.717 21.7389 177.888 21.9326C177.318 23.4593 176.435 24.6043 175.239 25.3677C174.042 26.1196 172.744 26.4956 171.342 26.4956C170.647 26.4956 169.969 26.4045 169.309 26.2222C168.659 26.0513 168.027 25.7664 167.412 25.3677C166.796 24.9689 166.261 24.479 165.805 23.8979C165.349 23.3055 164.985 22.5706 164.711 21.6934C164.438 20.8047 164.301 19.8249 164.301 18.7539C164.301 16.3499 165.036 14.3675 166.506 12.8066C167.976 11.2458 169.781 10.4653 171.923 10.4653C172.869 10.4653 173.689 10.6021 174.384 10.8755C175.091 11.1375 175.638 11.4964 176.025 11.9521C176.424 12.4079 176.714 12.9092 176.896 13.4561C177.09 13.9915 177.187 14.5669 177.187 15.1821C177.187 15.7518 177.09 16.3385 176.896 16.9424ZM171.513 11.5762C170.727 11.5762 169.981 11.9237 169.274 12.6187C168.579 13.3136 168.078 14.3675 167.771 15.7803H173.923C174.037 15.3473 174.094 14.9714 174.094 14.6523C174.094 13.7637 173.889 13.0288 173.479 12.4478C173.068 11.8667 172.413 11.5762 171.513 11.5762ZM185.441 7.56006C185.555 7.51449 185.686 7.4917 185.834 7.4917C185.983 7.4917 186.136 7.51449 186.296 7.56006V11.3027H191.474C191.542 11.4736 191.577 11.6844 191.577 11.9351C191.577 12.1515 191.542 12.3509 191.474 12.5332H186.296V21.6592C186.296 23.4593 187.122 24.3594 188.774 24.3594C189.401 24.3594 189.936 24.2397 190.38 24.0005C190.836 23.7612 191.337 23.4023 191.884 22.9238C192.169 22.958 192.357 23.0947 192.448 23.334C191.947 24.234 191.206 24.986 190.227 25.5898C189.247 26.1937 188.17 26.4956 186.997 26.4956C184.239 26.4956 182.861 24.8265 182.861 21.4883V12.5332H180.759C180.713 12.3281 180.69 12.1971 180.69 12.1401C180.69 12.1287 180.713 11.9977 180.759 11.7471C181.306 11.4736 181.722 11.2515 182.006 11.0806C182.303 10.8983 182.673 10.6419 183.117 10.3115C183.573 9.98112 183.983 9.59375 184.348 9.14941C184.724 8.69368 185.088 8.1639 185.441 7.56006Z" fill="#FFC300"/>
</svg>
