<svg width="193" height="27" viewBox="0 0 193 27" fill="none" xmlns="http://www.w3.org/2000/svg">
<path d="M23.7417 8.63672C23.3771 7.8278 23.0182 7.12142 22.665 6.51758C22.3118 5.90234 21.8504 5.26432 21.2808 4.60352C20.7111 3.94271 20.1016 3.40153 19.4521 2.97998C18.8027 2.55843 18.0052 2.21094 17.0596 1.9375C16.1139 1.66406 15.0715 1.52734 13.9321 1.52734C12.7017 1.52734 11.5851 1.77799 10.5825 2.2793C9.57992 2.7806 8.75391 3.43571 8.10449 4.24463C7.46647 5.05355 6.92529 5.99349 6.48096 7.06445C6.04801 8.12402 5.7404 9.19499 5.55811 10.2773C5.37581 11.3483 5.28467 12.4364 5.28467 13.5415C5.28467 14.6353 5.38151 15.7233 5.5752 16.8057C5.76888 17.8766 6.08789 18.9419 6.53223 20.0015C6.98796 21.061 7.54622 21.9896 8.20703 22.7871C8.86784 23.5846 9.69954 24.234 10.7021 24.7354C11.7161 25.2253 12.8384 25.4702 14.0688 25.4702C16.5754 25.4702 18.3185 24.9119 19.2983 23.7954V16.8569C19.2983 16.6177 19.2015 16.4069 19.0078 16.2246C18.8141 16.0309 18.592 15.8828 18.3413 15.7803C18.0907 15.6777 17.7546 15.5866 17.333 15.5068C16.9229 15.4157 16.5868 15.353 16.3247 15.3188C16.0627 15.2847 15.7323 15.2505 15.3335 15.2163C15.2879 15.034 15.2651 14.8973 15.2651 14.8062C15.2651 14.7264 15.2879 14.5954 15.3335 14.4131C17.9084 14.5042 19.8908 14.5498 21.2808 14.5498C22.6935 14.5498 24.6759 14.5042 27.228 14.4131C27.285 14.641 27.3135 14.772 27.3135 14.8062C27.3135 14.8517 27.285 14.9884 27.228 15.2163C26.8293 15.2505 26.4989 15.2847 26.2368 15.3188C25.9748 15.353 25.633 15.4157 25.2114 15.5068C24.8013 15.5866 24.4709 15.6777 24.2202 15.7803C23.981 15.8828 23.7645 16.0309 23.5708 16.2246C23.3771 16.4069 23.2803 16.6177 23.2803 16.8569V19.3862C23.2803 21.5509 23.5366 23.3226 24.0493 24.7012C22.1694 25.3962 20.5003 25.9032 19.042 26.2222C17.5837 26.5412 15.9259 26.7007 14.0688 26.7007C12.9637 26.7007 11.8529 26.5868 10.7363 26.3589C9.61979 26.131 8.44629 25.7038 7.21582 25.0771C5.99674 24.4505 4.92008 23.6644 3.98584 22.7188C3.06299 21.7731 2.29395 20.5085 1.67871 18.9248C1.07487 17.3411 0.772949 15.5467 0.772949 13.5415C0.772949 12.0946 0.926758 10.7559 1.23438 9.52539C1.55339 8.28353 1.97493 7.21826 2.49902 6.32959C3.02311 5.44092 3.64404 4.64339 4.36182 3.93701C5.09098 3.23063 5.84863 2.65527 6.63477 2.21094C7.4209 1.7666 8.24691 1.40202 9.11279 1.11719C9.99007 0.820964 10.8218 0.615885 11.6079 0.501953C12.394 0.376628 13.1688 0.313965 13.9321 0.313965C15.2082 0.313965 16.4215 0.393717 17.5723 0.553223C18.7344 0.701335 19.8908 0.889323 21.0415 1.11719C22.1922 1.33366 23.1037 1.48177 23.7759 1.56152C23.605 2.07422 23.5195 2.79769 23.5195 3.73193C23.5195 5.28141 23.7987 6.79102 24.3569 8.26074C24.2886 8.46582 24.0835 8.59115 23.7417 8.63672ZM29.501 11.9351C31.7113 11.7072 33.6367 11.2401 35.2773 10.5337C35.5622 10.6476 35.7616 10.7957 35.8755 10.978V13.9175C36.297 13.12 36.9237 12.3452 37.7554 11.5933C38.5985 10.8413 39.4757 10.4653 40.3872 10.4653C41.0708 10.4653 41.6234 10.6704 42.0449 11.0806C42.4779 11.4793 42.6943 12.0319 42.6943 12.7383C42.6943 13.4105 42.495 13.9346 42.0962 14.3105C41.6974 14.6865 41.1961 14.8745 40.5923 14.8745C40.034 14.8745 39.5726 14.6979 39.208 14.3447C38.8548 13.9801 38.6611 13.5016 38.627 12.9092C38.1484 13.1143 37.6016 13.57 36.9863 14.2764C36.3825 14.9827 36.0122 15.6834 35.8755 16.3784C35.8755 18.9191 35.9211 21.3459 36.0122 23.6587C36.0236 23.9549 36.1318 24.2113 36.3369 24.4277C36.542 24.6328 36.8439 24.7923 37.2427 24.9062C37.6414 25.0202 37.9718 25.1056 38.2339 25.1626C38.4959 25.2082 38.8377 25.2537 39.2593 25.2993C39.3276 25.436 39.3618 25.5785 39.3618 25.7266C39.3618 25.8405 39.3276 25.9658 39.2593 26.1025C37.5503 26.0342 35.8584 26 34.1836 26C32.7936 26 31.3467 26.0342 29.8428 26.1025C29.7972 25.9202 29.7744 25.7949 29.7744 25.7266C29.7744 25.6696 29.7972 25.5272 29.8428 25.2993C30.2188 25.2537 30.5264 25.2082 30.7656 25.1626C31.0049 25.1056 31.3011 25.0202 31.6543 24.9062C32.0075 24.7923 32.2752 24.6328 32.4575 24.4277C32.6398 24.2113 32.7367 23.9549 32.748 23.6587C32.7936 22.5308 32.8164 21.1636 32.8164 19.5571C32.8164 19.0216 32.8107 18.1102 32.7993 16.8228C32.7879 15.5353 32.7822 14.4074 32.7822 13.439C32.1328 13.0402 31.0391 12.8066 29.501 12.7383C29.4554 12.556 29.4326 12.4136 29.4326 12.311C29.4326 12.2427 29.4554 12.1174 29.501 11.9351ZM53.0337 10.4653C54.1616 10.4653 55.1756 10.6647 56.0757 11.0635C56.9871 11.4622 57.7619 12.0148 58.3999 12.7212C59.0379 13.4276 59.5278 14.2764 59.8696 15.2676C60.2114 16.2474 60.3823 17.3184 60.3823 18.4805C60.3823 20.8503 59.7158 22.7757 58.3828 24.2568C57.0612 25.7493 55.2782 26.4956 53.0337 26.4956C51.9172 26.4956 50.9032 26.3019 49.9917 25.9146C49.0916 25.5158 48.3226 24.9632 47.6846 24.2568C47.0465 23.5391 46.5509 22.6903 46.1978 21.7104C45.856 20.7306 45.6851 19.654 45.6851 18.4805C45.6851 17.3184 45.856 16.2474 46.1978 15.2676C46.5396 14.2764 47.0238 13.4276 47.6504 12.7212C48.2884 12.0148 49.0632 11.4622 49.9746 11.0635C50.8861 10.6647 51.9058 10.4653 53.0337 10.4653ZM53.0337 11.5762C51.8716 11.5762 50.943 12.1401 50.248 13.2681C49.5645 14.396 49.2227 16.1335 49.2227 18.4805C49.2227 20.8275 49.5645 22.5649 50.248 23.6929C50.943 24.8094 51.8716 25.3677 53.0337 25.3677C54.1958 25.3677 55.1187 24.8037 55.8022 23.6758C56.4972 22.5479 56.8447 20.8161 56.8447 18.4805C56.8447 17.307 56.7536 16.2873 56.5713 15.4214C56.389 14.5555 56.1326 13.8377 55.8022 13.2681C55.4718 12.6984 55.0731 12.2769 54.606 12.0034C54.1388 11.7186 53.6147 11.5762 53.0337 11.5762ZM70.397 26.4956C69.8387 26.4956 69.3317 26.45 68.876 26.3589C68.4316 26.2677 68.0841 26.1709 67.8335 26.0684C67.5942 25.9658 67.2695 25.812 66.8594 25.6069C66.415 25.6069 65.7599 25.7721 64.894 26.1025C64.7459 26.0114 64.6434 25.9089 64.5864 25.7949C64.6434 25.6126 64.7118 24.9917 64.7915 23.9321C64.8826 22.8726 64.9282 21.9269 64.9282 21.0952C65.0763 21.0269 65.3441 20.9927 65.7314 20.9927C65.9365 21.6535 66.1473 22.2174 66.3638 22.6846C66.5916 23.1517 66.8765 23.6074 67.2183 24.0518C67.5715 24.4847 67.993 24.8151 68.4829 25.043C68.9842 25.2594 69.5539 25.3677 70.1919 25.3677C71.1831 25.3677 71.9578 25.1113 72.5161 24.5986C73.0858 24.0859 73.3706 23.5049 73.3706 22.8555C73.3706 22.3656 73.2909 21.9497 73.1313 21.6079C72.9718 21.2661 72.613 20.9072 72.0547 20.5312C71.5078 20.1439 70.7217 19.7622 69.6963 19.3862C69.0583 19.1584 68.5171 18.9476 68.0728 18.7539C67.6284 18.5602 67.167 18.321 66.6885 18.0361C66.2214 17.7513 65.8454 17.4608 65.5605 17.1646C65.2757 16.8569 65.0422 16.4924 64.8599 16.0708C64.6776 15.6493 64.5864 15.1878 64.5864 14.6865C64.5864 14.3219 64.6263 13.9631 64.7061 13.6099C64.7972 13.2453 64.9624 12.8693 65.2017 12.4819C65.4523 12.0946 65.7599 11.7585 66.1245 11.4736C66.5005 11.1774 66.9961 10.9382 67.6113 10.7559C68.238 10.5622 68.9443 10.4653 69.7305 10.4653C70.0495 10.4653 70.3286 10.4824 70.5679 10.5166C70.8185 10.5508 71.1147 10.6134 71.4565 10.7046C71.8097 10.7843 72.0034 10.8299 72.0376 10.8413C72.2882 10.7843 72.5446 10.7103 72.8066 10.6191C73.0801 10.528 73.2339 10.4767 73.2681 10.4653H73.7124C73.9858 12.106 74.339 13.5016 74.772 14.6523C74.6353 14.8005 74.4131 14.8745 74.1055 14.8745C73.1598 13.7352 72.3509 12.9035 71.6787 12.3794C71.0179 11.8439 70.266 11.5762 69.4229 11.5762C68.762 11.5762 68.181 11.7243 67.6797 12.0205C67.1784 12.3167 66.9277 12.7668 66.9277 13.3706C66.9277 14.134 67.2297 14.7321 67.8335 15.165C68.4487 15.598 69.5824 16.1506 71.2344 16.8228C71.9977 17.1304 72.5959 17.3867 73.0288 17.5918C73.4731 17.7969 73.9175 18.0418 74.3618 18.3267C74.8062 18.6115 75.1309 18.9077 75.3359 19.2153C75.5524 19.5116 75.729 19.8704 75.8657 20.292C76.0024 20.7135 76.0708 21.2035 76.0708 21.7617C76.0708 22.9694 75.5125 24.0632 74.396 25.043C73.2909 26.0114 71.9578 26.4956 70.397 26.4956Z" fill="#243645"/>
<path d="M79.5059 0.87793C81.6478 0.969076 84.3423 1.01465 87.5894 1.01465L94.2031 18.9248H94.2886L101.176 1.01465H103.141C104.554 1.01465 106.548 0.969076 109.123 0.87793C109.168 1.06022 109.191 1.18555 109.191 1.25391C109.191 1.33366 109.168 1.47607 109.123 1.68115C108.712 1.71533 108.382 1.74951 108.131 1.78369C107.881 1.81787 107.545 1.87484 107.123 1.95459C106.713 2.03434 106.382 2.13118 106.132 2.24512C105.881 2.34766 105.659 2.49577 105.465 2.68945C105.272 2.87174 105.169 3.08252 105.158 3.32178C105.044 5.99919 104.987 9.18359 104.987 12.875C104.987 16.6234 105.061 20.2179 105.209 23.6587C105.22 23.9549 105.351 24.2113 105.602 24.4277C105.853 24.6328 106.212 24.7923 106.679 24.9062C107.157 25.0202 107.556 25.1056 107.875 25.1626C108.205 25.2082 108.633 25.2537 109.157 25.2993C109.202 25.4816 109.225 25.6354 109.225 25.7607C109.225 25.8519 109.202 25.9658 109.157 26.1025C107.231 26.0342 105.249 26 103.209 26C101.159 26 99.1763 26.0342 97.2622 26.1025C97.2166 25.9658 97.1938 25.8519 97.1938 25.7607C97.1938 25.5671 97.2166 25.4132 97.2622 25.2993C97.7863 25.2537 98.2078 25.2082 98.5269 25.1626C98.8573 25.1056 99.256 25.0202 99.7231 24.9062C100.202 24.7923 100.566 24.6328 100.817 24.4277C101.068 24.2113 101.199 23.9549 101.21 23.6587C101.324 20.104 101.381 16.931 101.381 14.1396C101.381 11.4622 101.324 8.41455 101.21 4.99658H101.073L93.2632 25.5728H93.0923L84.7695 4.58643H84.5815C84.4904 7.35498 84.4448 10.5394 84.4448 14.1396C84.4448 16.7829 84.5018 19.8704 84.6157 23.4023C84.6385 24.4391 85.8975 25.0715 88.3926 25.2993C88.4495 25.493 88.478 25.6468 88.478 25.7607C88.478 25.8747 88.4495 25.9886 88.3926 26.1025C86.5811 26.0342 84.9632 26 83.5391 26C82.6276 26 81.1009 26.0342 78.959 26.1025C78.902 25.9886 78.8735 25.8747 78.8735 25.7607C78.8735 25.5671 78.902 25.4132 78.959 25.2993C81.4769 25.0601 82.7358 24.4277 82.7358 23.4023C82.8726 19.8477 82.9409 16.3385 82.9409 12.875C82.9409 10.3799 82.9067 7.73096 82.8384 4.92822C82.827 4.44971 82.7985 4.05094 82.7529 3.73193C82.7074 3.40153 82.6219 3.1167 82.4966 2.87744C82.3713 2.63818 82.2402 2.4502 82.1035 2.31348C81.9668 2.17676 81.756 2.05713 81.4712 1.95459C81.1864 1.84066 80.9072 1.7609 80.6338 1.71533C80.3717 1.65837 79.9958 1.5957 79.5059 1.52734C79.4603 1.4362 79.4375 1.33366 79.4375 1.21973C79.4375 1.08301 79.4603 0.969076 79.5059 0.87793ZM113.378 14.772C113.378 13.5187 113.948 12.4876 115.087 11.6787C116.238 10.8698 117.593 10.4653 119.154 10.4653C121.068 10.4653 122.413 10.847 123.188 11.6104C123.974 12.3737 124.367 13.6611 124.367 15.4727V22.5649C124.367 23.203 124.6 23.522 125.067 23.522C125.443 23.522 125.922 23.0662 126.503 22.1548C126.913 22.189 127.192 22.3713 127.34 22.7017C127.261 22.8156 127.124 23.0207 126.93 23.3169C126.736 23.6131 126.594 23.8239 126.503 23.9492C126.412 24.0745 126.269 24.2682 126.076 24.5303C125.882 24.7809 125.722 24.9689 125.597 25.0942C125.483 25.2196 125.324 25.3677 125.119 25.5386C124.925 25.7095 124.743 25.8405 124.572 25.9316C124.412 26.0114 124.224 26.0798 124.008 26.1367C123.791 26.2051 123.575 26.2393 123.358 26.2393C122.789 26.2393 122.316 26.0342 121.94 25.624C121.575 25.2139 121.359 24.5815 121.291 23.7271C121.279 23.7384 121.103 23.9036 120.761 24.2227C120.419 24.5417 120.18 24.7581 120.043 24.8721C119.918 24.9746 119.673 25.1626 119.308 25.436C118.955 25.6981 118.653 25.8861 118.402 26C118.152 26.1139 117.838 26.2222 117.462 26.3247C117.086 26.4386 116.716 26.4956 116.352 26.4956C115.771 26.4956 115.252 26.4159 114.796 26.2563C114.352 26.0968 114.005 25.9032 113.754 25.6753C113.503 25.4474 113.298 25.1854 113.139 24.8892C112.979 24.5815 112.871 24.3024 112.814 24.0518C112.768 23.8011 112.746 23.5505 112.746 23.2998C112.746 22.5365 112.871 21.8927 113.122 21.3687C113.384 20.8446 113.862 20.3547 114.557 19.8989C115.264 19.4432 116.129 19.0387 117.155 18.6855C118.18 18.3324 119.559 17.9336 121.291 17.4893V15.1138C121.291 13.9631 121.034 13.1029 120.521 12.5332C120.02 11.9635 119.342 11.6787 118.488 11.6787C117.724 11.6787 117.081 11.8325 116.557 12.1401C116.044 12.4364 115.731 12.7839 115.617 13.1826C116.733 13.3535 117.292 13.9631 117.292 15.0112C117.292 15.4897 117.121 15.9113 116.779 16.2759C116.437 16.6405 115.958 16.8228 115.343 16.8228C114.831 16.8228 114.375 16.6462 113.976 16.293C113.577 15.9284 113.378 15.4214 113.378 14.772ZM121.291 22.1548V18.583C120.242 18.8223 119.376 19.0843 118.693 19.3691C118.009 19.6426 117.485 19.9445 117.121 20.2749C116.767 20.6053 116.522 20.9471 116.386 21.3003C116.249 21.6421 116.181 22.0409 116.181 22.4966C116.181 23.0662 116.346 23.5163 116.676 23.8467C117.018 24.1657 117.434 24.3252 117.924 24.3252C119.063 24.3252 120.185 23.6017 121.291 22.1548ZM129.511 11.9351C131.721 11.7072 133.646 11.2401 135.287 10.5337C135.572 10.6476 135.771 10.7957 135.885 10.978V13.9175C136.307 13.12 136.933 12.3452 137.765 11.5933C138.608 10.8413 139.486 10.4653 140.397 10.4653C141.081 10.4653 141.633 10.6704 142.055 11.0806C142.488 11.4793 142.704 12.0319 142.704 12.7383C142.704 13.4105 142.505 13.9346 142.106 14.3105C141.707 14.6865 141.206 14.8745 140.602 14.8745C140.044 14.8745 139.582 14.6979 139.218 14.3447C138.865 13.9801 138.671 13.5016 138.637 12.9092C138.158 13.1143 137.611 13.57 136.996 14.2764C136.392 14.9827 136.022 15.6834 135.885 16.3784C135.885 18.9191 135.931 21.3459 136.022 23.6587C136.033 23.9549 136.142 24.2113 136.347 24.4277C136.552 24.6328 136.854 24.7923 137.252 24.9062C137.651 25.0202 137.982 25.1056 138.244 25.1626C138.506 25.2082 138.847 25.2537 139.269 25.2993C139.337 25.436 139.372 25.5785 139.372 25.7266C139.372 25.8405 139.337 25.9658 139.269 26.1025C137.56 26.0342 135.868 26 134.193 26C132.803 26 131.356 26.0342 129.853 26.1025C129.807 25.9202 129.784 25.7949 129.784 25.7266C129.784 25.6696 129.807 25.5272 129.853 25.2993C130.229 25.2537 130.536 25.2082 130.775 25.1626C131.015 25.1056 131.311 25.0202 131.664 24.9062C132.017 24.7923 132.285 24.6328 132.467 24.4277C132.65 24.2113 132.746 23.9549 132.758 23.6587C132.803 22.5308 132.826 21.1636 132.826 19.5571C132.826 19.0216 132.82 18.1102 132.809 16.8228C132.798 15.5353 132.792 14.4074 132.792 13.439C132.143 13.0402 131.049 12.8066 129.511 12.7383C129.465 12.556 129.442 12.4136 129.442 12.311C129.442 12.2427 129.465 12.1174 129.511 11.9351ZM155.487 25.2993C156.49 25.1968 156.991 24.929 156.991 24.4961C156.991 24.2454 156.866 23.9663 156.615 23.6587L151.95 17.6772H151.112C151.112 20.4002 151.146 22.394 151.215 23.6587C151.215 23.9549 151.289 24.2113 151.437 24.4277C151.597 24.6328 151.824 24.7923 152.121 24.9062C152.428 25.0202 152.679 25.1056 152.873 25.1626C153.078 25.2082 153.345 25.2537 153.676 25.2993C153.744 25.436 153.778 25.5785 153.778 25.7266C153.778 25.8747 153.744 26 153.676 26.1025C152.172 26.0342 150.748 26 149.403 26C148.013 26 146.566 26.0342 145.062 26.1025C145.017 25.9202 144.994 25.7949 144.994 25.7266C144.994 25.6696 145.017 25.5272 145.062 25.2993C145.438 25.2537 145.74 25.2082 145.968 25.1626C146.208 25.1056 146.504 25.0202 146.857 24.9062C147.222 24.7923 147.495 24.6328 147.677 24.4277C147.86 24.2113 147.956 23.9549 147.968 23.6587C148.013 22.5308 148.03 18.9761 148.019 12.9946C148.008 7.00179 148.002 3.64648 148.002 2.92871C147.353 2.55273 146.259 2.31917 144.721 2.22803C144.664 2.07992 144.635 1.9432 144.635 1.81787C144.635 1.70394 144.664 1.57292 144.721 1.4248C146.885 1.21973 148.805 0.752604 150.48 0.0234375C150.788 0.148763 150.987 0.302572 151.078 0.484863L151.112 16.5835H152.001L155.453 13.3022C155.67 13.0516 155.778 12.7952 155.778 12.5332C155.778 12.0547 155.237 11.7585 154.154 11.6445C154.109 11.4622 154.086 11.3369 154.086 11.2686C154.086 11.166 154.109 11.0236 154.154 10.8413C155.635 10.9097 156.815 10.9438 157.692 10.9438C158.649 10.9438 159.862 10.9097 161.332 10.8413C161.378 10.978 161.4 11.0977 161.4 11.2002C161.4 11.2686 161.378 11.4167 161.332 11.6445C160.318 11.7585 159.481 11.9294 158.82 12.1572C158.159 12.3737 157.561 12.7554 157.025 13.3022L154.308 16.0537L160.324 23.6587C161.007 24.5474 162.033 25.0942 163.4 25.2993C163.445 25.5272 163.468 25.681 163.468 25.7607C163.468 25.8519 163.445 25.9658 163.4 26.1025C161.93 26.0342 160.603 26 159.418 26C158.267 26 156.957 26.0342 155.487 26.1025C155.442 25.9202 155.419 25.7835 155.419 25.6924C155.419 25.6126 155.442 25.4816 155.487 25.2993ZM177.396 16.9424H168.083C168.037 17.626 168.014 18.2298 168.014 18.7539C168.048 20.4515 168.544 21.813 169.501 22.8384C170.458 23.8524 171.74 24.3594 173.346 24.3594C173.779 24.3594 174.184 24.3138 174.56 24.2227C174.936 24.1201 175.243 24.0062 175.482 23.8809C175.733 23.7555 175.989 23.5732 176.251 23.334C176.514 23.0947 176.701 22.9067 176.815 22.77C176.941 22.6219 177.106 22.4054 177.311 22.1206C177.516 21.8244 177.653 21.6364 177.721 21.5566C177.995 21.6136 178.217 21.7389 178.388 21.9326C177.818 23.4593 176.935 24.6043 175.739 25.3677C174.542 26.1196 173.244 26.4956 171.842 26.4956C171.147 26.4956 170.469 26.4045 169.809 26.2222C169.159 26.0513 168.527 25.7664 167.912 25.3677C167.296 24.9689 166.761 24.479 166.305 23.8979C165.849 23.3055 165.485 22.5706 165.211 21.6934C164.938 20.8047 164.801 19.8249 164.801 18.7539C164.801 16.3499 165.536 14.3675 167.006 12.8066C168.476 11.2458 170.281 10.4653 172.423 10.4653C173.369 10.4653 174.189 10.6021 174.884 10.8755C175.591 11.1375 176.138 11.4964 176.525 11.9521C176.924 12.4079 177.214 12.9092 177.396 13.4561C177.59 13.9915 177.687 14.5669 177.687 15.1821C177.687 15.7518 177.59 16.3385 177.396 16.9424ZM172.013 11.5762C171.227 11.5762 170.481 11.9237 169.774 12.6187C169.079 13.3136 168.578 14.3675 168.271 15.7803H174.423C174.537 15.3473 174.594 14.9714 174.594 14.6523C174.594 13.7637 174.389 13.0288 173.979 12.4478C173.568 11.8667 172.913 11.5762 172.013 11.5762ZM185.941 7.56006C186.055 7.51449 186.186 7.4917 186.334 7.4917C186.483 7.4917 186.636 7.51449 186.796 7.56006V11.3027H191.974C192.042 11.4736 192.077 11.6844 192.077 11.9351C192.077 12.1515 192.042 12.3509 191.974 12.5332H186.796V21.6592C186.796 23.4593 187.622 24.3594 189.274 24.3594C189.901 24.3594 190.436 24.2397 190.88 24.0005C191.336 23.7612 191.837 23.4023 192.384 22.9238C192.669 22.958 192.857 23.0947 192.948 23.334C192.447 24.234 191.706 24.986 190.727 25.5898C189.747 26.1937 188.67 26.4956 187.497 26.4956C184.739 26.4956 183.361 24.8265 183.361 21.4883V12.5332H181.259C181.213 12.3281 181.19 12.1971 181.19 12.1401C181.19 12.1287 181.213 11.9977 181.259 11.7471C181.806 11.4736 182.222 11.2515 182.506 11.0806C182.803 10.8983 183.173 10.6419 183.617 10.3115C184.073 9.98112 184.483 9.59375 184.848 9.14941C185.224 8.69368 185.588 8.1639 185.941 7.56006Z" fill="#FFC300"/>
</svg>
