<svg width="31" height="41" viewBox="0 0 31 41" fill="none" xmlns="http://www.w3.org/2000/svg">
<path d="M30.6605 26.0817L27.5244 22.3545V17.417C27.5208 14.0049 26.4527 10.7156 24.5268 8.18506C22.6008 5.65455 19.9538 4.06263 17.0975 3.71713V0.894531H14.7804V3.71713C11.9241 4.06263 9.27707 5.65455 7.35112 8.18506C5.42518 10.7156 4.35714 14.0049 4.35355 17.417V22.3545L1.21738 26.0817C1.0001 26.3399 0.877995 26.69 0.87793 27.0552V31.1858C0.87793 31.551 0.99999 31.9012 1.21726 32.1594C1.43453 32.4176 1.72921 32.5627 2.03647 32.5627H10.1463V33.6325C10.1205 35.3794 10.6384 37.0761 11.6005 38.3972C12.5627 39.7182 13.9013 40.5706 15.3597 40.7909C16.1651 40.8858 16.9783 40.7793 17.747 40.4783C18.5157 40.1773 19.2228 39.6884 19.823 39.0431C20.4232 38.3978 20.903 37.6103 21.2318 36.7314C21.5605 35.8524 21.7308 34.9014 21.7317 33.9396V32.5627H29.8414C30.1487 32.5627 30.4434 32.4176 30.6607 32.1594C30.8779 31.9012 31 31.551 31 31.1858V27.0552C30.9999 26.69 30.8778 26.3399 30.6605 26.0817ZM19.4146 33.9396C19.4146 35.0351 19.0484 36.0857 18.3966 36.8603C17.7448 37.635 16.8607 38.0702 15.939 38.0702C15.0172 38.0702 14.1331 37.635 13.4813 36.8603C12.8295 36.0857 12.4633 35.0351 12.4633 33.9396V32.5627H19.4146V33.9396ZM28.6829 29.8089H3.19501V27.6252L6.33118 23.898C6.54846 23.6398 6.67057 23.2897 6.67063 22.9245V17.417C6.67063 14.4957 7.64711 11.694 9.38526 9.62826C11.1234 7.56254 13.4808 6.40203 15.939 6.40203C18.3971 6.40203 20.7545 7.56254 22.4927 9.62826C24.2308 11.694 25.2073 14.4957 25.2073 17.417V22.9245C25.2073 23.2897 25.3295 23.6398 25.5467 23.898L28.6829 27.6252V29.8089Z" fill="#FFC300"/>
<path d="M30.6605 26.0817L27.5244 22.3545V17.417C27.5208 14.0049 26.4527 10.7156 24.5268 8.18506C22.6008 5.65455 19.9538 4.06263 17.0975 3.71713V0.894531H14.7804V3.71713C11.9241 4.06263 9.27707 5.65455 7.35112 8.18506C5.42518 10.7156 4.35714 14.0049 4.35355 17.417V22.3545L1.21738 26.0817C1.0001 26.3399 0.877995 26.69 0.87793 27.0552V31.1858C0.87793 31.551 0.99999 31.9012 1.21726 32.1594C1.43453 32.4176 1.72921 32.5627 2.03647 32.5627H10.1463V33.6325C10.1205 35.3794 10.6384 37.0761 11.6005 38.3972C12.5627 39.7182 13.9013 40.5706 15.3597 40.7909C16.1651 40.8858 16.9783 40.7793 17.747 40.4783C18.5157 40.1773 19.2228 39.6884 19.823 39.0431C20.4232 38.3978 20.903 37.6103 21.2318 36.7314C21.5605 35.8524 21.7308 34.9014 21.7317 33.9396V32.5627H29.8414C30.1487 32.5627 30.4434 32.4176 30.6607 32.1594C30.8779 31.9012 31 31.551 31 31.1858V27.0552C30.9999 26.69 30.8778 26.3399 30.6605 26.0817ZM19.4146 33.9396C19.4146 35.0351 19.0484 36.0857 18.3966 36.8603C17.7448 37.635 16.8607 38.0702 15.939 38.0702C15.0172 38.0702 14.1331 37.635 13.4813 36.8603C12.8295 36.0857 12.4633 35.0351 12.4633 33.9396V32.5627H19.4146V33.9396ZM28.6829 29.8089H3.19501V27.6252L6.33118 23.898C6.54846 23.6398 6.67057 23.2897 6.67063 22.9245V17.417C6.67063 14.4957 7.64711 11.694 9.38526 9.62826C11.1234 7.56254 13.4808 6.40203 15.939 6.40203C18.3971 6.40203 20.7545 7.56254 22.4927 9.62826C24.2308 11.694 25.2073 14.4957 25.2073 17.417V22.9245C25.2073 23.2897 25.3295 23.6398 25.5467 23.898L28.6829 27.6252V29.8089Z" stroke="#FFC300"/>
</svg>
