<svg width="31" height="34" viewBox="0 0 31 34" fill="none" xmlns="http://www.w3.org/2000/svg">
<path d="M30.6605 21.6689L27.5244 18.5947V14.5223C27.5208 11.708 26.4527 8.99491 24.5268 6.90775C22.6008 4.82059 19.9538 3.50757 17.0975 3.2226V0.894531H14.7804V3.2226C11.9241 3.50757 9.27707 4.82059 7.35112 6.90775C5.42518 8.99491 4.35714 11.708 4.35355 14.5223V18.5947L1.21738 21.6689C1.0001 21.8818 0.877995 22.1706 0.87793 22.4718V25.8787C0.87793 26.1799 0.99999 26.4688 1.21726 26.6817C1.43453 26.8947 1.72921 27.0144 2.03647 27.0144H10.1463V27.8968C10.1205 29.3376 10.6384 30.737 11.6005 31.8267C12.5627 32.9163 13.9013 33.6193 15.3597 33.801C16.1651 33.8793 16.9783 33.7915 17.747 33.5432C18.5157 33.2949 19.2228 32.8917 19.823 32.3594C20.4232 31.8272 20.903 31.1777 21.2318 30.4527C21.5605 29.7277 21.7308 28.9434 21.7317 28.15V27.0144H29.8414C30.1487 27.0144 30.4434 26.8947 30.6607 26.6817C30.8779 26.4688 31 26.1799 31 25.8787V22.4718C30.9999 22.1706 30.8778 21.8818 30.6605 21.6689ZM19.4146 28.15C19.4146 29.0536 19.0484 29.9202 18.3966 30.5591C17.7448 31.198 16.8607 31.5569 15.939 31.5569C15.0172 31.5569 14.1331 31.198 13.4813 30.5591C12.8295 29.9202 12.4633 29.0536 12.4633 28.15V27.0144H19.4146V28.15ZM3.19501 24.7431V22.9419L6.33118 19.8678C6.54846 19.6548 6.67057 19.366 6.67063 19.0648V14.5223C6.67063 12.1127 7.64711 9.80189 9.38526 8.09809C11.1234 6.39429 13.4808 5.43711 15.939 5.43711C18.3971 5.43711 20.7545 6.39429 22.4927 8.09809C24.2308 9.80189 25.2073 12.1127 25.2073 14.5223V19.0648C25.2073 19.366 25.3295 19.6548 25.5467 19.8678L28.6829 22.9419V24.7431H3.19501Z" fill="#FFC300"/>
<path d="M30.6605 21.6689L27.5244 18.5947V14.5223C27.5208 11.708 26.4527 8.99491 24.5268 6.90775C22.6008 4.82059 19.9538 3.50757 17.0975 3.2226V0.894531H14.7804V3.2226C11.9241 3.50757 9.27707 4.82059 7.35112 6.90775C5.42518 8.99491 4.35714 11.708 4.35355 14.5223V18.5947L1.21738 21.6689C1.0001 21.8818 0.877995 22.1706 0.87793 22.4718V25.8787C0.87793 26.1799 0.99999 26.4688 1.21726 26.6817C1.43453 26.8947 1.72921 27.0144 2.03647 27.0144H10.1463V27.8968C10.1205 29.3376 10.6384 30.737 11.6005 31.8267C12.5627 32.9163 13.9013 33.6193 15.3597 33.801C16.1651 33.8793 16.9783 33.7915 17.747 33.5432C18.5157 33.2949 19.2228 32.8917 19.823 32.3594C20.4232 31.8272 20.903 31.1777 21.2318 30.4527C21.5605 29.7277 21.7308 28.9434 21.7317 28.15V27.0144H29.8414C30.1487 27.0144 30.4434 26.8947 30.6607 26.6817C30.8779 26.4688 31 26.1799 31 25.8787V22.4718C30.9999 22.1706 30.8778 21.8818 30.6605 21.6689ZM19.4146 28.15C19.4146 29.0536 19.0484 29.9202 18.3966 30.5591C17.7448 31.198 16.8607 31.5569 15.939 31.5569C15.0172 31.5569 14.1331 31.198 13.4813 30.5591C12.8295 29.9202 12.4633 29.0536 12.4633 28.15V27.0144H19.4146V28.15ZM3.19501 24.7431V22.9419L6.33118 19.8678C6.54846 19.6548 6.67057 19.366 6.67063 19.0648V14.5223C6.67063 12.1127 7.64711 9.80189 9.38526 8.09809C11.1234 6.39429 13.4808 5.43711 15.939 5.43711C18.3971 5.43711 20.7545 6.39429 22.4927 8.09809C24.2308 9.80189 25.2073 12.1127 25.2073 14.5223V19.0648C25.2073 19.366 25.3295 19.6548 25.5467 19.8678L28.6829 22.9419V24.7431H3.19501Z" stroke="#FFC300"/>
</svg>
