<svg width="18" height="18" viewBox="0 0 18 18" fill="none" xmlns="http://www.w3.org/2000/svg">
<path fill-rule="evenodd" clip-rule="evenodd" d="M11.2975 1.1839C12.0292 0.452123 13.0217 0.0410156 14.0566 0.0410156C15.0915 0.0410156 16.084 0.452123 16.8158 1.1839C17.5476 1.91568 17.9587 2.90818 17.9587 3.94307C17.9587 4.97795 17.5476 5.97046 16.8158 6.70223L8.91079 14.6072C8.45912 15.0589 8.19412 15.3239 7.89745 15.5547C7.54912 15.8272 7.17245 16.0606 6.77245 16.2506C6.43412 16.4114 6.07745 16.5306 5.47245 16.7322L2.69579 17.6572L2.02745 17.8806C1.76164 17.9693 1.47637 17.9822 1.20362 17.9179C0.930873 17.8536 0.681437 17.7146 0.483285 17.5164C0.285132 17.3182 0.146099 17.0688 0.0817761 16.7961C0.0174534 16.5233 0.0303847 16.238 0.11912 15.9722L1.26745 12.5281C1.46912 11.9222 1.58829 11.5656 1.74912 11.2264C1.93995 10.8272 2.17245 10.4506 2.44495 10.1014C2.67495 9.8064 2.94079 9.54057 3.39245 9.0889L11.2975 1.1839ZM2.66662 16.3506L5.03412 15.5606C5.69329 15.3406 5.97329 15.2464 6.23412 15.1222C6.55079 14.9706 6.85079 14.7856 7.12829 14.5697C7.35579 14.3914 7.56579 14.1839 8.05745 13.6922L14.3658 7.3839C13.5009 7.07742 12.7158 6.58077 12.0683 5.93057C11.4186 5.28296 10.9226 4.49784 10.6166 3.63307L4.30829 9.9414C3.81662 10.4322 3.60829 10.6414 3.43079 10.8697C3.21499 11.147 3.02975 11.4468 2.87829 11.7639C2.75412 12.0247 2.65995 12.3047 2.43995 12.9639L1.64995 15.3331L2.66662 16.3506ZM11.6291 2.6189C11.6583 2.76473 11.7058 2.96307 11.7866 3.1939C12.0303 3.89148 12.4292 4.52461 12.9533 5.04557C13.474 5.5695 14.1068 5.96841 14.8041 6.21223C15.0358 6.29307 15.2341 6.34057 15.38 6.36973L15.9316 5.81807C16.426 5.32019 16.7029 4.64665 16.7017 3.94499C16.7005 3.24333 16.4212 2.57076 15.9251 2.07462C15.4289 1.57847 14.7564 1.29919 14.0547 1.29797C13.353 1.29674 12.6795 1.57366 12.1816 2.06807L11.6291 2.6189Z" fill="#A2DEA1"/>
</svg>
