<svg width="464" height="380" viewBox="0 0 464 380" fill="none" xmlns="http://www.w3.org/2000/svg">
<g filter="url(#filter0_i_160_1754)">
<rect width="464" height="379" fill="white"/>
<rect x="168.669" width="295.331" height="377.461" fill="#243645" fill-opacity="0.05"/>
<rect width="33.8071" height="31.2508" transform="matrix(0.93075 0.365656 -0.517704 0.85556 187.936 272.86)" fill="#0E60FF"/>
<rect width="58.8148" height="50.751" rx="25.3755" transform="matrix(0.987973 0.154629 -0.234354 0.972151 178.154 218.108)" fill="#FFC300"/>
<path d="M19.4917 365.696C25.3103 374.399 37.6594 378.135 37.6594 378.135C37.6594 378.135 40.5747 367.76 34.7561 359.057C28.9376 350.354 16.5885 346.617 16.5885 346.617C16.5885 346.617 13.6731 356.992 19.4917 365.696Z" fill="#243645"/>
<path d="M23.491 362.832C33.9959 367.93 38.0417 378.055 38.0417 378.055C38.0417 378.055 25.0556 379.915 14.5507 374.818C4.04578 369.72 0 359.595 0 359.595C0 359.595 12.9861 357.735 23.491 362.832Z" fill="#FFC300"/>
<path d="M259.012 110.123H193.469V110.878H259.012V110.123Z" fill="#FFC300"/>
<path d="M241.222 110.69H240.286V117.675H241.222V110.69Z" fill="#FFC300"/>
<path d="M212.664 110.69H211.727V117.675H212.664V110.69Z" fill="#FFC300"/>
<path d="M292.252 146.373H226.709V147.128H292.252V146.373Z" fill="#FFC300"/>
<path d="M245.435 139.576H244.499V146.562H245.435V139.576Z" fill="#FFC300"/>
<path d="M273.994 139.576H273.057V146.562H273.994V139.576Z" fill="#FFC300"/>
<path d="M379.331 163.365H313.788V164.12H379.331V163.365Z" fill="#FFC300"/>
<path d="M332.514 156.568H331.578V163.554H332.514V156.568Z" fill="#FFC300"/>
<path d="M361.072 156.568H360.136V163.554H361.072V156.568Z" fill="#FFC300"/>
<path d="M372.777 338.573H307.234V339.328H372.777V338.573Z" fill="#FFC300"/>
<path d="M325.961 331.776H325.024V338.761H325.961V331.776Z" fill="#FFC300"/>
<path d="M354.518 331.776H353.582V338.761H354.518V331.776Z" fill="#FFC300"/>
<path d="M260.885 217.362H195.342V218.117H260.885V217.362Z" fill="#FFC300"/>
<path d="M214.069 210.565H213.132V217.551H214.069V210.565Z" fill="#FFC300"/>
<path d="M242.627 210.565H241.69V217.551H242.627V210.565Z" fill="#FFC300"/>
<path d="M281.484 308.364H215.941V309.119H281.484V308.364Z" fill="#FFC300"/>
<path d="M234.668 301.567H233.732V308.553H234.668V301.567Z" fill="#FFC300"/>
<path d="M263.226 301.567H262.29V308.553H263.226V301.567Z" fill="#FFC300"/>
<path d="M386.354 280.799H320.811V281.554H386.354V280.799Z" fill="#FFC300"/>
<path d="M339.537 274.002H338.601V280.988H339.537V274.002Z" fill="#FFC300"/>
<path d="M368.095 274.002H367.159V280.988H368.095V274.002Z" fill="#FFC300"/>
<path d="M180.571 364.92L71.7498 347.888L71.902 347.257L179.94 364.166L187.323 333.541L88.433 318.063L85.575 309.239L86.3468 309.077L89.078 317.509L188.258 333.032L180.571 364.92Z" fill="#243645"/>
<path d="M82.5041 365.625C87.0441 366.336 91.44 363.943 92.3227 360.282C93.2055 356.62 90.2407 353.075 85.7007 352.365C81.1608 351.654 76.7648 354.047 75.8821 357.708C74.9994 361.37 77.9641 364.915 82.5041 365.625Z" fill="#3F3D56"/>
<path d="M163.533 378.307C168.073 379.018 172.469 376.625 173.352 372.964C174.234 369.302 171.27 365.757 166.73 365.047C162.19 364.336 157.794 366.729 156.911 370.39C156.028 374.052 158.993 377.597 163.533 378.307Z" fill="#3F3D56"/>
<path d="M293.599 249.918C296.41 250.358 299.131 248.877 299.677 246.611C300.224 244.344 298.389 242.15 295.578 241.71C292.768 241.27 290.046 242.751 289.5 245.018C288.953 247.284 290.789 249.479 293.599 249.918Z" fill="#3F3D56"/>
<path d="M202.257 325.066L79.9411 305.922L70.2952 232.006L246.333 259.558L246.074 259.943L202.257 325.066ZM80.6725 305.382L201.835 324.345L245.114 260.022L71.2011 232.803L80.6725 305.382Z" fill="#243645"/>
<path d="M161.449 304.494L94.6785 303.584L81.0376 264.929L177.134 266.238L177.041 266.463L161.449 304.494Z" fill="#00FFC2"/>
<path d="M250.029 253.668L249.311 253.387L258.263 238.491L288.315 243.194L288.162 243.826L258.714 239.216L250.029 253.668Z" fill="#243645"/>
<path d="M232.437 279.334L73.7486 254.498L73.5963 255.129L232.285 279.966L232.437 279.334Z" fill="#243645"/>
<path d="M217.742 301.175L76.9647 279.142L76.8125 279.774L217.589 301.807L217.742 301.175Z" fill="#243645"/>
<path d="M158.627 246.158L157.845 246.036L141.176 315.179L141.959 315.301L158.627 246.158Z" fill="#243645"/>
<path d="M193.683 251.624L171.396 319.886L172.167 320.05L194.455 251.788L193.683 251.624Z" fill="#243645"/>
<path d="M122.815 240.532L122.023 240.451L110.942 310.468L111.734 310.549L122.815 240.532Z" fill="#243645"/>
<path d="M278.751 119.929C278.751 119.929 285.595 135.639 281.384 138.056C277.172 140.473 295.598 160.212 295.598 160.212L317.709 155.378L305.6 138.862C305.6 138.862 304.021 122.346 304.021 119.929C304.021 117.512 278.751 119.929 278.751 119.929Z" fill="#FFD6BA"/>
<path opacity="0.1" d="M278.751 119.929C278.751 119.929 285.595 135.639 281.384 138.056C277.172 140.473 295.598 160.212 295.598 160.212L317.709 155.378L305.6 138.862C305.6 138.862 304.021 122.346 304.021 119.929C304.021 117.512 278.751 119.929 278.751 119.929Z" fill="black"/>
<path d="M267.264 231.917C267.264 231.917 265.266 252.059 267.264 262.533C269.262 273.007 272.258 302.011 272.258 302.011C272.258 302.011 272.258 356.797 283.246 357.602C294.234 358.408 302.226 359.214 303.224 355.991C304.223 352.768 298.23 351.157 301.227 349.546C304.223 347.934 305.222 342.295 301.227 335.849C297.231 329.404 301.227 264.144 301.227 264.144L320.206 305.234C320.206 305.234 322.204 339.072 324.202 343.906C326.199 348.74 322.204 357.602 329.196 358.408C336.188 359.214 344.18 354.38 348.175 352.768C352.171 351.157 342.182 351.157 344.18 350.351C346.177 349.546 352.171 347.129 350.173 346.323C348.175 345.517 346.177 306.845 346.177 306.845C346.177 306.845 340.683 224.264 333.691 221.041C326.699 217.818 322.204 223.369 322.204 223.369L267.264 231.917Z" fill="#243645"/>
<path d="M285.244 354.38V360.825C285.244 360.825 276.254 378.346 285.244 378.346C294.234 378.346 301.226 380.161 301.226 377.744V355.991L285.244 354.38Z" fill="#243645"/>
<path d="M341.592 353.743L342.905 360.101C342.905 360.101 355.34 376.196 346.472 377.384C337.603 378.572 331.075 381.288 330.583 378.903L326.154 357.445L341.592 353.743Z" fill="#243645"/>
<path d="M284.383 130.847C293.954 132.979 303.861 128.449 306.509 120.73C309.158 113.01 303.546 105.024 293.975 102.892C284.403 100.76 274.497 105.289 271.849 113.009C269.2 120.729 274.812 128.715 284.383 130.847Z" fill="#FFD6BA"/>
<path d="M287.242 144.099C287.242 144.099 292.237 156.184 300.228 153.767L308.219 151.35L322.204 228.695C322.204 228.695 311.216 241.585 295.233 233.529C279.251 225.472 287.242 144.099 287.242 144.099Z" fill="white"/>
<path d="M301.227 141.682L305.722 134.028C305.722 134.028 332.193 144.099 336.188 147.322C340.184 150.544 340.184 155.378 340.184 155.378L333.192 175.52C333.192 175.52 335.19 219.832 335.19 221.443C335.19 223.055 342.182 231.917 337.187 228.695C332.193 225.472 331.194 222.249 327.198 227.083C323.203 231.917 314.213 237.557 314.213 237.557L301.227 141.682Z" fill="#FFC300"/>
<path d="M336.188 199.69L333.192 222.249C333.192 222.249 315.211 235.14 319.207 235.946C323.203 236.751 325.2 233.529 325.2 233.529C325.2 233.529 332.193 239.168 336.188 235.946C340.184 232.723 350.173 202.107 350.173 202.107L336.188 199.69Z" fill="#FFD6BA"/>
<path d="M296.326 97.1971C292.522 96.2305 288.43 95.2599 284.618 96.2082C282.84 96.7143 281.178 97.4552 279.701 98.4007C275.443 100.915 271.328 104.355 271.131 108.607L272.639 108.482C272.273 109.547 271.619 110.534 270.723 111.371C271.068 110.964 271.461 111.833 271.133 112.25L268.273 115.883C270.987 115.703 273.547 117.862 273.203 120.041C274.956 115.471 277.361 110.319 282.922 108.653C285.726 107.813 288.826 108.057 291.799 108.322C294.541 108.566 297.405 108.855 299.68 110.112C301.956 111.37 303.385 113.921 302.097 115.889C303.367 115.825 304.44 116.766 304.713 117.768C304.986 118.77 304.662 119.808 304.34 120.801C305.334 121.781 307.221 120.695 308.12 119.656C310.229 117.218 312.267 114.575 312.597 111.615C312.927 108.654 311.003 105.325 307.454 104.524C308.016 104.238 308.419 103.787 308.576 103.266L305.716 102.415C306.489 102.495 307.272 102.357 307.933 102.023C306.399 102.805 298.209 97.6754 296.326 97.1971Z" fill="#243645"/>
<path d="M292.237 139.265C292.237 139.265 284.105 132.838 281.179 133.232C278.252 133.625 274.256 139.265 274.256 139.265C274.256 139.265 250.283 145.71 251.282 152.156C252.281 158.601 263.268 190.022 263.268 190.022C263.268 190.022 272.259 227.889 264.267 231.917C256.276 235.946 302.226 246.419 303.225 241.585C304.224 236.751 306.221 188.411 303.225 181.16C300.228 173.909 292.237 139.265 292.237 139.265Z" fill="#FFC300"/>
<path d="M327.199 152.156H339.55C339.55 152.156 348.176 182.771 349.174 185.994C350.173 189.217 352.171 204.524 351.172 204.524C350.173 204.524 330.195 201.302 330.195 203.719L327.199 152.156Z" fill="#FFC300"/>
<path d="M326.78 233.098H279.495C274.881 215.978 274.495 199.436 279.495 183.632H326.78C319.149 199.152 318.672 215.58 326.78 233.098Z" fill="#FFC300"/>
<path d="M260.272 209.506L274.256 214.34C274.256 214.34 301.227 217.562 301.227 208.7C301.227 199.838 274.256 204.672 274.256 204.672L265.265 202.353L260.272 209.506Z" fill="#FFD6BA"/>
<path d="M263.268 147.322L251.281 149.739L242.291 192.439C242.291 192.439 239.294 203.719 244.289 204.524C249.283 205.33 263.268 211.776 263.268 211.776C263.268 211.776 265.266 199.69 269.261 199.69L259.272 193.245L265.266 165.046L263.268 147.322Z" fill="#FFC300"/>
<path d="M93.7496 229.823H28.2063V230.578H93.7496V229.823Z" fill="#FFC300"/>
<path d="M46.9332 223.026H45.9969V230.012H46.9332V223.026Z" fill="#FFC300"/>
<path d="M75.4912 223.026H74.5549V230.012H75.4912V223.026Z" fill="#FFC300"/>
<path d="M116.69 118.053H51.1466V118.808H116.69V118.053Z" fill="#FFC300"/>
<path d="M98.8996 118.619H97.9633V125.605H98.8996V118.619Z" fill="#FFC300"/>
<path d="M70.3415 118.619H69.4052V125.605H70.3415V118.619Z" fill="#FFC300"/>
<path d="M195.431 192.44H129.888V193.196H195.431V192.44Z" fill="#FFC300"/>
<path d="M177.641 193.007H176.704V199.992H177.641V193.007Z" fill="#FFC300"/>
<path d="M149.083 193.007H148.146V199.992H149.083V193.007Z" fill="#FFC300"/>
<path d="M71.2779 192.063H5.7346V192.818H71.2779V192.063Z" fill="#FFC300"/>
<path d="M53.4877 192.629H52.5513V199.615H53.4877V192.629Z" fill="#FFC300"/>
<path d="M24.929 192.629H23.9926V199.615H24.929V192.629Z" fill="#FFC300"/>
<path d="M149.93 154.303H84.3863V155.058H149.93V154.303Z" fill="#FFC300"/>
<path d="M103.113 147.506H102.177V154.491H103.113V147.506Z" fill="#FFC300"/>
<path d="M131.671 147.506H130.735V154.491H131.671V147.506Z" fill="#FFC300"/>
</g>
<defs>
<filter id="filter0_i_160_1754" x="0" y="0" width="464" height="383.853" filterUnits="userSpaceOnUse" color-interpolation-filters="sRGB">
<feFlood flood-opacity="0" result="BackgroundImageFix"/>
<feBlend mode="normal" in="SourceGraphic" in2="BackgroundImageFix" result="shape"/>
<feColorMatrix in="SourceAlpha" type="matrix" values="0 0 0 0 0 0 0 0 0 0 0 0 0 0 0 0 0 0 127 0" result="hardAlpha"/>
<feOffset dy="4"/>
<feGaussianBlur stdDeviation="2"/>
<feComposite in2="hardAlpha" operator="arithmetic" k2="-1" k3="1"/>
<feColorMatrix type="matrix" values="0 0 0 0 0 0 0 0 0 0 0 0 0 0 0 0 0 0 0.25 0"/>
<feBlend mode="normal" in2="shape" result="effect1_innerShadow_160_1754"/>
</filter>
</defs>
</svg>
