<svg width="22" height="22" viewBox="0 0 22 22" fill="none" xmlns="http://www.w3.org/2000/svg">
<path d="M11 1.60217C5.477 1.60217 1 5.96841 1 11.3548C1 16.7411 5.477 21.1074 11 21.1074C16.523 21.1074 21 16.7411 21 11.3548C21 5.96841 16.523 1.60217 11 1.60217Z" stroke="#F8F8F8" stroke-width="1.5" stroke-linecap="round" stroke-linejoin="round"/>
<path d="M3.271 17.5438C3.271 17.5438 5.5 14.7682 11 14.7682C16.5 14.7682 18.73 17.5438 18.73 17.5438M11 11.3548C11.7956 11.3548 12.5587 11.0465 13.1213 10.4979C13.6839 9.94916 14 9.20498 14 8.42901C14 7.65305 13.6839 6.90887 13.1213 6.36018C12.5587 5.81149 11.7956 5.50323 11 5.50323C10.2043 5.50323 9.44128 5.81149 8.87868 6.36018C8.31607 6.90887 8 7.65305 8 8.42901C8 9.20498 8.31607 9.94916 8.87868 10.4979C9.44128 11.0465 10.2043 11.3548 11 11.3548Z" stroke="#F8F8F8" stroke-width="1.5" stroke-linecap="round" stroke-linejoin="round"/>
</svg>
