<svg width="23" height="21" viewBox="0 0 23 21" fill="none" xmlns="http://www.w3.org/2000/svg">
<mask id="path-1-inside-1_155_1595" fill="white">
<path d="M21.8543 20.8365L13.3259 13.2082C12.6449 13.7271 11.8618 14.1287 10.9765 14.413C10.0912 14.6972 9.20145 14.8393 8.30711 14.8393C6.12619 14.8393 4.28031 14.164 2.76947 12.8135C1.25863 11.4629 0.503204 9.81224 0.503204 7.8615C0.503204 5.91077 1.25772 4.2593 2.76675 2.90711C4.27577 1.55491 6.12075 0.878 8.30166 0.876376C10.4826 0.874752 12.3294 1.55044 13.842 2.90345C15.3547 4.25646 16.111 5.90793 16.111 7.85785C16.111 8.70409 15.9435 9.52312 15.6085 10.3149C15.2734 11.1068 14.8331 11.7841 14.2874 12.3469L22.8158 19.974L21.8543 20.8365ZM8.30847 13.6199C10.1153 13.6199 11.6407 13.0636 12.8846 11.951C14.1285 10.8384 14.7504 9.47358 14.7504 7.85663C14.7504 6.23968 14.1285 4.8753 12.8846 3.7635C11.6407 2.65169 10.1153 2.09538 8.30847 2.09457C6.50163 2.09376 4.97581 2.65007 3.731 3.7635C2.48619 4.87693 1.86423 6.2413 1.86514 7.85663C1.86605 9.47196 2.488 10.8363 3.731 11.9498C4.97399 13.0632 6.49936 13.6195 8.30711 13.6187"/>
</mask>
<path d="M21.8543 20.8365L13.3259 13.2082C12.6449 13.7271 11.8618 14.1287 10.9765 14.413C10.0912 14.6972 9.20145 14.8393 8.30711 14.8393C6.12619 14.8393 4.28031 14.164 2.76947 12.8135C1.25863 11.4629 0.503204 9.81224 0.503204 7.8615C0.503204 5.91077 1.25772 4.2593 2.76675 2.90711C4.27577 1.55491 6.12075 0.878 8.30166 0.876376C10.4826 0.874752 12.3294 1.55044 13.842 2.90345C15.3547 4.25646 16.111 5.90793 16.111 7.85785C16.111 8.70409 15.9435 9.52312 15.6085 10.3149C15.2734 11.1068 14.8331 11.7841 14.2874 12.3469L22.8158 19.974L21.8543 20.8365ZM8.30847 13.6199C10.1153 13.6199 11.6407 13.0636 12.8846 11.951C14.1285 10.8384 14.7504 9.47358 14.7504 7.85663C14.7504 6.23968 14.1285 4.8753 12.8846 3.7635C11.6407 2.65169 10.1153 2.09538 8.30847 2.09457C6.50163 2.09376 4.97581 2.65007 3.731 3.7635C2.48619 4.87693 1.86423 6.2413 1.86514 7.85663C1.86605 9.47196 2.488 10.8363 3.731 11.9498C4.97399 13.0632 6.49936 13.6195 8.30711 13.6187" fill="black"/>
<path d="M21.8543 20.8365L3.85398 40.9608L21.8798 57.0841L39.8829 40.9355L21.8543 20.8365ZM13.3259 13.2082L31.3262 -6.91616L14.7011 -21.7865L-3.03966 -8.26671L13.3259 13.2082ZM8.30711 14.8393V-12.1607V14.8393ZM14.2874 12.3469L-5.0971 -6.44783L-24.6647 13.7338L-3.71135 32.4726L14.2874 12.3469ZM22.8158 19.974L40.8445 40.073L63.2851 19.9439L40.8146 -0.151734L22.8158 19.974ZM39.8546 0.712174L31.3262 -6.91616L-4.67447 33.3325L3.85398 40.9608L39.8546 0.712174ZM-3.03966 -8.26671C-1.07575 -9.76336 0.934138 -10.7202 2.72222 -11.2944L19.2308 40.1203C22.7894 38.9777 26.3655 37.2176 29.6914 34.683L-3.03966 -8.26671ZM2.72222 -11.2944C4.39807 -11.8325 6.28983 -12.1607 8.30711 -12.1607V41.8393C12.1131 41.8393 15.7844 41.2269 19.2308 40.1203L2.72222 -11.2944ZM8.30711 -12.1607C10.0359 -12.1607 12.2065 -11.8858 14.5633 -11.0236C16.9511 -10.1501 19.0509 -8.84738 20.7638 -7.31623L-15.2248 32.9432C-8.36936 39.0714 0.0372664 41.8393 8.30711 41.8393V-12.1607ZM20.7638 -7.31623C22.46 -5.79999 24.2784 -3.6066 25.6209 -0.673266C26.9748 2.28524 27.5032 5.25318 27.5032 7.8615H-26.4968C-26.4968 17.831 -22.2129 26.6964 -15.2248 32.9432L20.7638 -7.31623ZM27.5032 7.8615C27.5032 10.4653 26.9764 13.4271 25.6274 16.3799C24.2897 19.3077 22.4773 21.499 20.7851 23.0153L-15.2516 -17.2011C-22.225 -10.9525 -26.4968 -2.09494 -26.4968 7.8615H27.5032ZM20.7851 23.0153C19.0723 24.5501 16.9717 25.8564 14.5822 26.7331C12.2239 27.5983 10.0516 27.8751 8.32177 27.8764L8.28155 -26.1236C0.00896466 -26.1175 -8.39952 -23.341 -15.2516 -17.2011L20.7851 23.0153ZM8.32177 27.8764C6.58495 27.8777 4.40743 27.6023 2.04529 26.7381C-0.347458 25.8626 -2.44785 24.5577 -4.1583 23.0278L31.8424 -17.2209C24.9863 -23.3533 16.5713 -26.1298 8.28155 -26.1236L8.32177 27.8764ZM-4.1583 23.0278C-5.84698 21.5173 -7.66244 19.3292 -9.00432 16.3992C-10.3583 13.4428 -10.889 10.4731 -10.889 7.85785H43.111C43.111 -2.1241 38.8161 -10.9831 31.8424 -17.2209L-4.1583 23.0278ZM-10.889 7.85785C-10.889 5.03059 -10.3076 2.27609 -9.25728 -0.206219L40.4742 20.8361C42.1946 16.7702 43.111 12.3776 43.111 7.85785H-10.889ZM-9.25728 -0.206219C-8.41816 -2.18939 -7.08899 -4.39344 -5.0971 -6.44783L33.6719 31.1416C36.7551 27.9616 38.965 24.4029 40.4742 20.8361L-9.25728 -0.206219ZM-3.71135 32.4726L4.81711 40.0998L40.8146 -0.151734L32.2861 -7.77885L-3.71135 32.4726ZM4.78722 -0.124969L3.8257 0.737513L39.8829 40.9355L40.8445 40.073L4.78722 -0.124969ZM8.30847 40.6199C16.1611 40.6199 24.264 37.9974 30.8849 32.0753L-5.11574 -8.17333C-3.25343 -9.83909 -0.994018 -11.2328 1.55665 -12.163C4.07377 -13.081 6.41049 -13.3801 8.30847 -13.3801V40.6199ZM30.8849 32.0753C37.6459 26.0279 41.7504 17.4332 41.7504 7.85663H-12.2496C-12.2496 5.10823 -11.6984 1.9977 -10.2851 -1.10355C-8.88133 -4.18389 -6.96226 -6.52171 -5.11574 -8.17333L30.8849 32.0753ZM41.7504 7.85663C41.7504 -1.72071 37.645 -10.3187 30.8776 -16.3673L-5.10844 23.8943C-6.95748 22.2417 -8.87871 19.9023 -10.2838 16.8199C-11.6984 13.7167 -12.2496 10.6049 -12.2496 7.85663H41.7504ZM30.8776 -16.3673C24.2595 -22.2826 16.164 -24.9019 8.32061 -24.9054L8.29634 29.0946C6.40195 29.0937 4.06951 28.7946 1.55665 27.8781C-0.989773 26.9494 -3.24684 25.5582 -5.10844 23.8943L30.8776 -16.3673ZM8.32061 -24.9054C0.458644 -24.909 -7.64793 -22.2834 -14.2693 -16.3608L21.7313 23.8878C19.8701 25.5526 17.6105 26.947 15.0575 27.8778C12.5379 28.7964 10.198 29.0954 8.29634 29.0946L8.32061 -24.9054ZM-14.2693 -16.3608C-21.0234 -10.3196 -25.1402 -1.72373 -25.1349 7.87181L28.8651 7.84145C28.8667 10.5994 28.314 13.7164 26.8987 16.8211C25.4936 19.9036 23.5738 22.2398 21.7313 23.8878L-14.2693 -16.3608ZM-25.1349 7.87181C-25.1295 17.4421 -21.0257 26.022 -14.2839 32.061L21.7459 -8.16149C23.5858 -6.51339 25.4992 -4.181 26.9001 -1.10782C28.3108 1.98676 28.8636 5.09286 28.8651 7.84145L-25.1349 7.87181ZM-14.2839 32.061C-7.65537 37.9986 0.460393 40.6222 8.31924 40.6187L8.29498 -13.3813C10.1944 -13.3822 12.5354 -13.0837 15.0582 -12.1636C17.615 -11.2312 19.8798 -9.8331 21.7459 -8.16149L-14.2839 32.061Z" fill="black" mask="url(#path-1-inside-1_155_1595)"/>
</svg>
