<svg width="136" height="24" viewBox="0 0 136 24" fill="none" xmlns="http://www.w3.org/2000/svg">
<path d="M8.24301 7.34004L1.86301 8.26505L1.75001 8.28804C1.57895 8.33346 1.423 8.42345 1.2981 8.54885C1.1732 8.67424 1.08381 8.83053 1.03907 9.00177C0.994331 9.17301 0.995837 9.35305 1.04344 9.52352C1.09104 9.69398 1.18303 9.84876 1.31001 9.97204L5.93201 14.471L4.84201 20.826L4.82901 20.936C4.81854 21.113 4.85528 21.2895 4.93546 21.4475C5.01564 21.6056 5.13639 21.7395 5.28534 21.8356C5.4343 21.9316 5.6061 21.9863 5.78316 21.9942C5.96022 22.002 6.13617 21.9626 6.29301 21.88L11.999 18.88L17.692 21.88L17.792 21.926C17.9571 21.9911 18.1365 22.011 18.3118 21.9838C18.4871 21.9566 18.652 21.8833 18.7896 21.7713C18.9272 21.6593 19.0326 21.5128 19.0948 21.3467C19.1571 21.1806 19.1741 21.0009 19.144 20.826L18.053 14.471L22.677 9.97104L22.755 9.88604C22.8664 9.74881 22.9395 9.5845 22.9667 9.40984C22.994 9.23518 22.9744 9.05642 22.9101 8.89178C22.8458 8.72713 22.7389 8.58248 22.6005 8.47256C22.4621 8.36264 22.2969 8.29138 22.122 8.26604L15.742 7.34004L12.89 1.56004C12.8075 1.39258 12.6797 1.25156 12.5212 1.15295C12.3627 1.05434 12.1797 1.00208 11.993 1.00208C11.8063 1.00208 11.6233 1.05434 11.4648 1.15295C11.3063 1.25156 11.1785 1.39258 11.096 1.56004L8.24301 7.34004Z" fill="#FFC300"/>
<path d="M36.243 7.34004L29.863 8.26505L29.75 8.28804C29.5789 8.33346 29.423 8.42345 29.2981 8.54885C29.1732 8.67424 29.0838 8.83053 29.0391 9.00177C28.9943 9.17301 28.9958 9.35305 29.0434 9.52352C29.091 9.69398 29.183 9.84876 29.31 9.97204L33.932 14.471L32.842 20.826L32.829 20.936C32.8185 21.113 32.8553 21.2895 32.9355 21.4475C33.0156 21.6056 33.1364 21.7395 33.2853 21.8356C33.4343 21.9316 33.6061 21.9863 33.7832 21.9942C33.9602 22.002 34.1362 21.9626 34.293 21.88L39.999 18.88L45.692 21.88L45.792 21.926C45.9571 21.9911 46.1365 22.011 46.3118 21.9838C46.4871 21.9566 46.652 21.8833 46.7896 21.7713C46.9272 21.6593 47.0326 21.5128 47.0948 21.3467C47.1571 21.1806 47.1741 21.0009 47.144 20.826L46.053 14.471L50.677 9.97104L50.755 9.88604C50.8664 9.74881 50.9395 9.5845 50.9667 9.40984C50.994 9.23518 50.9744 9.05642 50.9101 8.89178C50.8458 8.72713 50.7389 8.58248 50.6005 8.47256C50.4621 8.36264 50.2969 8.29138 50.122 8.26604L43.742 7.34004L40.89 1.56004C40.8075 1.39258 40.6797 1.25156 40.5212 1.15295C40.3627 1.05434 40.1797 1.00208 39.993 1.00208C39.8063 1.00208 39.6233 1.05434 39.4648 1.15295C39.3063 1.25156 39.1785 1.39258 39.096 1.56004L36.243 7.34004Z" fill="#FFC300"/>
<path d="M64.243 7.34004L57.863 8.26505L57.75 8.28804C57.5789 8.33346 57.423 8.42345 57.2981 8.54885C57.1732 8.67424 57.0838 8.83053 57.0391 9.00177C56.9943 9.17301 56.9958 9.35305 57.0434 9.52352C57.091 9.69398 57.183 9.84876 57.31 9.97204L61.932 14.471L60.842 20.826L60.829 20.936C60.8185 21.113 60.8553 21.2895 60.9355 21.4475C61.0156 21.6056 61.1364 21.7395 61.2853 21.8356C61.4343 21.9316 61.6061 21.9863 61.7832 21.9942C61.9602 22.002 62.1362 21.9626 62.293 21.88L67.999 18.88L73.692 21.88L73.792 21.926C73.9571 21.9911 74.1365 22.011 74.3118 21.9838C74.4871 21.9566 74.652 21.8833 74.7896 21.7713C74.9272 21.6593 75.0326 21.5128 75.0948 21.3467C75.1571 21.1806 75.1741 21.0009 75.144 20.826L74.053 14.471L78.677 9.97104L78.755 9.88604C78.8664 9.74881 78.9395 9.5845 78.9667 9.40984C78.994 9.23518 78.9744 9.05642 78.9101 8.89178C78.8458 8.72713 78.7389 8.58248 78.6005 8.47256C78.4621 8.36264 78.2969 8.29138 78.122 8.26604L71.742 7.34004L68.89 1.56004C68.8075 1.39258 68.6797 1.25156 68.5212 1.15295C68.3627 1.05434 68.1797 1.00208 67.993 1.00208C67.8063 1.00208 67.6233 1.05434 67.4648 1.15295C67.3063 1.25156 67.1785 1.39258 67.096 1.56004L64.243 7.34004Z" fill="#FFC300"/>
<path d="M92.243 7.34004L85.863 8.26505L85.75 8.28804C85.5789 8.33346 85.423 8.42345 85.2981 8.54885C85.1732 8.67424 85.0838 8.83053 85.0391 9.00177C84.9943 9.17301 84.9958 9.35305 85.0434 9.52352C85.091 9.69398 85.183 9.84876 85.31 9.97204L89.932 14.471L88.842 20.826L88.829 20.936C88.8185 21.113 88.8553 21.2895 88.9355 21.4475C89.0156 21.6056 89.1364 21.7395 89.2853 21.8356C89.4343 21.9316 89.6061 21.9863 89.7832 21.9942C89.9602 22.002 90.1362 21.9626 90.293 21.88L95.999 18.88L101.692 21.88L101.792 21.926C101.957 21.9911 102.136 22.011 102.312 21.9838C102.487 21.9566 102.652 21.8833 102.79 21.7713C102.927 21.6593 103.033 21.5128 103.095 21.3467C103.157 21.1806 103.174 21.0009 103.144 20.826L102.053 14.471L106.677 9.97104L106.755 9.88604C106.866 9.74881 106.939 9.5845 106.967 9.40984C106.994 9.23518 106.974 9.05642 106.91 8.89178C106.846 8.72713 106.739 8.58248 106.6 8.47256C106.462 8.36264 106.297 8.29138 106.122 8.26604L99.742 7.34004L96.89 1.56004C96.8075 1.39258 96.6797 1.25156 96.5212 1.15295C96.3627 1.05434 96.1797 1.00208 95.993 1.00208C95.8063 1.00208 95.6233 1.05434 95.4648 1.15295C95.3063 1.25156 95.1785 1.39258 95.096 1.56004L92.243 7.34004Z" fill="#FFC300"/>
<path d="M124 0.999984C124.163 1.0006 124.323 1.04134 124.467 1.1186C124.61 1.19586 124.733 1.30727 124.823 1.44298L124.89 1.55898L127.742 7.33998L134.122 8.26498C134.863 8.37298 135.202 9.20498 134.825 9.79098L134.755 9.88598L134.677 9.97198L130.053 14.471L131.143 20.826C131.171 20.9918 131.158 21.162 131.103 21.321C131.048 21.48 130.954 21.6227 130.83 21.7358C130.705 21.8489 130.554 21.9288 130.391 21.9682C130.227 22.0075 130.056 22.0051 129.894 21.961L129.793 21.926L129.692 21.88L123.999 18.88L118.293 21.88C118.188 21.935 118.081 21.97 117.973 21.986L117.867 21.996C117.727 22.0011 117.588 21.977 117.459 21.9252C117.329 21.8735 117.211 21.7952 117.114 21.6954C117.016 21.5956 116.94 21.4765 116.891 21.3458C116.842 21.215 116.821 21.0754 116.829 20.936L116.842 20.826L117.932 14.471L113.309 9.97098C113.189 9.85454 113.101 9.71006 113.051 9.55068C113.002 9.3913 112.993 9.22208 113.026 9.05841C113.058 8.89474 113.131 8.74182 113.238 8.61355C113.345 8.48528 113.482 8.38574 113.637 8.32398L113.75 8.28798L113.864 8.26498L120.243 7.33998L123.096 1.55998C123.176 1.38859 123.304 1.24424 123.464 1.14473C123.625 1.04522 123.811 0.994904 124 0.999984ZM124 4.27398V16.75C124.081 16.75 124.161 16.7597 124.239 16.779L124.354 16.815L124.466 16.865L128.829 19.164L127.993 14.291C127.952 14.0502 128 13.8026 128.129 13.595L128.199 13.496L128.281 13.406L131.827 9.95298L126.936 9.24498C126.694 9.20989 126.474 9.08753 126.316 8.90098L126.243 8.80398L126.183 8.69798L124 4.27398Z" fill="#FFC300"/>
</svg>
