<svg width="19" height="21" viewBox="0 0 19 21" fill="none" xmlns="http://www.w3.org/2000/svg">
<path d="M17.9688 3.125H14.0625V2.34375C14.0625 1.72215 13.8156 1.12601 13.376 0.686469C12.9365 0.24693 12.3404 0 11.7188 0H7.03125C6.40965 0 5.81351 0.24693 5.37397 0.686469C4.93443 1.12601 4.6875 1.72215 4.6875 2.34375V3.125H0.78125C0.57405 3.125 0.375336 3.20731 0.228823 3.35382C0.0823102 3.50034 0 3.69905 0 3.90625C0 4.11345 0.0823102 4.31216 0.228823 4.45868C0.375336 4.60519 0.57405 4.6875 0.78125 4.6875H1.5625V18.75C1.5625 19.1644 1.72712 19.5618 2.02015 19.8549C2.31317 20.1479 2.7106 20.3125 3.125 20.3125H15.625C16.0394 20.3125 16.4368 20.1479 16.7299 19.8549C17.0229 19.5618 17.1875 19.1644 17.1875 18.75V4.6875H17.9688C18.176 4.6875 18.3747 4.60519 18.5212 4.45868C18.6677 4.31216 18.75 4.11345 18.75 3.90625C18.75 3.69905 18.6677 3.50034 18.5212 3.35382C18.3747 3.20731 18.176 3.125 17.9688 3.125ZM6.25 2.34375C6.25 2.13655 6.33231 1.93784 6.47882 1.79132C6.62534 1.64481 6.82405 1.5625 7.03125 1.5625H11.7188C11.926 1.5625 12.1247 1.64481 12.2712 1.79132C12.4177 1.93784 12.5 2.13655 12.5 2.34375V3.125H6.25V2.34375ZM15.625 18.75H3.125V4.6875H15.625V18.75ZM7.8125 8.59375V14.8438C7.8125 15.051 7.73019 15.2497 7.58368 15.3962C7.43716 15.5427 7.23845 15.625 7.03125 15.625C6.82405 15.625 6.62534 15.5427 6.47882 15.3962C6.33231 15.2497 6.25 15.051 6.25 14.8438V8.59375C6.25 8.38655 6.33231 8.18784 6.47882 8.04132C6.62534 7.89481 6.82405 7.8125 7.03125 7.8125C7.23845 7.8125 7.43716 7.89481 7.58368 8.04132C7.73019 8.18784 7.8125 8.38655 7.8125 8.59375ZM12.5 8.59375V14.8438C12.5 15.051 12.4177 15.2497 12.2712 15.3962C12.1247 15.5427 11.926 15.625 11.7188 15.625C11.5115 15.625 11.3128 15.5427 11.1663 15.3962C11.0198 15.2497 10.9375 15.051 10.9375 14.8438V8.59375C10.9375 8.38655 11.0198 8.18784 11.1663 8.04132C11.3128 7.89481 11.5115 7.8125 11.7188 7.8125C11.926 7.8125 12.1247 7.89481 12.2712 8.04132C12.4177 8.18784 12.5 8.38655 12.5 8.59375Z" fill="#FF0000" fill-opacity="0.95"/>
</svg>
